G04 #@! TF.GenerationSoftware,KiCad,Pcbnew,(5.1.2)-1*
G04 #@! TF.CreationDate,2019-09-01T11:48:08-05:00*
G04 #@! TF.ProjectId,Electronic_Calendar,456c6563-7472-46f6-9e69-635f43616c65,rev?*
G04 #@! TF.SameCoordinates,Original*
G04 #@! TF.FileFunction,Paste,Bot*
G04 #@! TF.FilePolarity,Positive*
%FSLAX46Y46*%
G04 Gerber Fmt 4.6, Leading zero omitted, Abs format (unit mm)*
G04 Created by KiCad (PCBNEW (5.1.2)-1) date 2019-09-01 11:48:08*
%MOMM*%
%LPD*%
G04 APERTURE LIST*
%ADD10R,0.800000X0.800000*%
%ADD11R,2.300000X0.500000*%
%ADD12R,2.500000X2.000000*%
G04 APERTURE END LIST*
D10*
X94907000Y-83502500D03*
X93307000Y-83502500D03*
X94907000Y-80962500D03*
X93307000Y-80962500D03*
X94907000Y-78422500D03*
X93307000Y-78422500D03*
X94907000Y-75882500D03*
X93307000Y-75882500D03*
X94907000Y-73342500D03*
X93307000Y-73342500D03*
X94907000Y-70802500D03*
X93307000Y-70802500D03*
X94907000Y-68262500D03*
X93307000Y-68262500D03*
X140182500Y-81026000D03*
X138582500Y-81026000D03*
X140182500Y-78486000D03*
X138582500Y-78486000D03*
X140182500Y-75946000D03*
X138582500Y-75946000D03*
X140182500Y-73406000D03*
X138582500Y-73406000D03*
X140182500Y-70866000D03*
X138582500Y-70866000D03*
X140182500Y-68326000D03*
X138582500Y-68326000D03*
X110020000Y-141922500D03*
X108420000Y-141922500D03*
X110020000Y-139382500D03*
X108420000Y-139382500D03*
X110020000Y-136842500D03*
X108420000Y-136842500D03*
X110020000Y-134302500D03*
X108420000Y-134302500D03*
X110020000Y-131762500D03*
X108420000Y-131762500D03*
X110020000Y-129222500D03*
X108420000Y-129222500D03*
X110020000Y-126682500D03*
X108420000Y-126682500D03*
X110020000Y-124142500D03*
X108420000Y-124142500D03*
X110020000Y-121602500D03*
X108420000Y-121602500D03*
X110020000Y-119062500D03*
X108420000Y-119062500D03*
X110020000Y-116522500D03*
X108420000Y-116522500D03*
X110020000Y-113982500D03*
X108420000Y-113982500D03*
X110020000Y-111442500D03*
X108420000Y-111442500D03*
X110020000Y-108902500D03*
X108420000Y-108902500D03*
X110020000Y-106362500D03*
X108420000Y-106362500D03*
X110020000Y-103822500D03*
X108420000Y-103822500D03*
X110020000Y-101282500D03*
X108420000Y-101282500D03*
X110020000Y-98742500D03*
X108420000Y-98742500D03*
X110020000Y-96202500D03*
X108420000Y-96202500D03*
X110020000Y-93662500D03*
X108420000Y-93662500D03*
X110020000Y-91122500D03*
X108420000Y-91122500D03*
X110020000Y-88582500D03*
X108420000Y-88582500D03*
X110020000Y-86042500D03*
X108420000Y-86042500D03*
X110020000Y-83502500D03*
X108420000Y-83502500D03*
X110020000Y-80962500D03*
X108420000Y-80962500D03*
X110020000Y-78422500D03*
X108420000Y-78422500D03*
X110020000Y-75882500D03*
X108420000Y-75882500D03*
X110020000Y-73342500D03*
X108420000Y-73342500D03*
X110020000Y-70802500D03*
X108420000Y-70802500D03*
X110020000Y-68262500D03*
X108420000Y-68262500D03*
X125069500Y-93726000D03*
X123469500Y-93726000D03*
X125069500Y-91186000D03*
X123469500Y-91186000D03*
X125069500Y-88646000D03*
X123469500Y-88646000D03*
X125069500Y-86106000D03*
X123469500Y-86106000D03*
X125069500Y-83566000D03*
X123469500Y-83566000D03*
X123469500Y-81026000D03*
X125069500Y-81026000D03*
X125069500Y-78486000D03*
X123469500Y-78486000D03*
X123469500Y-75946000D03*
X125069500Y-75946000D03*
X125069500Y-73406000D03*
X123469500Y-73406000D03*
X125069500Y-70866000D03*
X123469500Y-70866000D03*
X125069500Y-68326000D03*
X123469500Y-68326000D03*
D11*
X160204500Y-51041500D03*
X160204500Y-51841500D03*
X160204500Y-52641500D03*
X160204500Y-53441500D03*
X160204500Y-54241500D03*
D12*
X160304500Y-48191500D03*
X165804500Y-48191500D03*
X160304500Y-57091500D03*
X165804500Y-57091500D03*
D10*
X125247500Y-141859000D03*
X126847500Y-141859000D03*
X125247500Y-139319000D03*
X126847500Y-139319000D03*
X125247500Y-136779000D03*
X126847500Y-136779000D03*
X135407500Y-141859000D03*
X137007500Y-141859000D03*
X135407500Y-139319000D03*
X137007500Y-139319000D03*
X135407500Y-136779000D03*
X137007500Y-136779000D03*
X145567500Y-141859000D03*
X147167500Y-141859000D03*
X145567500Y-139319000D03*
X147167500Y-139319000D03*
X145567500Y-136779000D03*
X147167500Y-136779000D03*
X120167500Y-141859000D03*
X121767500Y-141859000D03*
X120167500Y-139319000D03*
X121767500Y-139319000D03*
X120167500Y-136779000D03*
X121767500Y-136779000D03*
X120167500Y-134239000D03*
X121767500Y-134239000D03*
X130327500Y-141859000D03*
X131927500Y-141859000D03*
X130327500Y-139319000D03*
X131927500Y-139319000D03*
X130327500Y-136779000D03*
X131927500Y-136779000D03*
X130327500Y-134239000D03*
X131927500Y-134239000D03*
X140487500Y-141859000D03*
X142087500Y-141859000D03*
X140487500Y-139319000D03*
X142087500Y-139319000D03*
X140487500Y-136779000D03*
X142087500Y-136779000D03*
X140487500Y-134239000D03*
X142087500Y-134239000D03*
X93307000Y-65722500D03*
X94907000Y-65722500D03*
X138582500Y-65786000D03*
X140182500Y-65786000D03*
X108420000Y-65722500D03*
X110020000Y-65722500D03*
X123469500Y-65786000D03*
X125069500Y-65786000D03*
M02*
