G04 #@! TF.GenerationSoftware,KiCad,Pcbnew,(5.1.2)-1*
G04 #@! TF.CreationDate,2019-09-01T11:48:08-05:00*
G04 #@! TF.ProjectId,Electronic_Calendar,456c6563-7472-46f6-9e69-635f43616c65,rev?*
G04 #@! TF.SameCoordinates,Original*
G04 #@! TF.FileFunction,Paste,Top*
G04 #@! TF.FilePolarity,Positive*
%FSLAX46Y46*%
G04 Gerber Fmt 4.6, Leading zero omitted, Abs format (unit mm)*
G04 Created by KiCad (PCBNEW (5.1.2)-1) date 2019-09-01 11:48:08*
%MOMM*%
%LPD*%
G04 APERTURE LIST*
%ADD10R,1.200000X0.900000*%
%ADD11R,3.510001X2.540000*%
%ADD12R,1.060000X0.650000*%
%ADD13R,0.650000X1.060000*%
%ADD14R,0.800000X0.900000*%
%ADD15R,0.500000X0.900000*%
%ADD16R,0.750000X0.800000*%
%ADD17R,0.650000X0.250000*%
%ADD18R,0.498000X0.660000*%
%ADD19R,1.000000X2.500000*%
%ADD20R,2.500000X1.000000*%
%ADD21R,0.800000X0.750000*%
%ADD22R,0.350000X0.650000*%
%ADD23R,0.720000X0.465000*%
%ADD24R,0.650000X0.350000*%
%ADD25R,0.465000X0.720000*%
%ADD26R,0.250000X0.700000*%
%ADD27R,0.714000X0.498000*%
%ADD28R,1.220000X0.650000*%
%ADD29R,1.500000X0.450000*%
%ADD30R,0.650000X0.400000*%
%ADD31R,0.300000X1.500000*%
%ADD32R,1.500000X0.300000*%
%ADD33R,0.850000X0.300000*%
%ADD34R,0.300000X0.850000*%
%ADD35R,0.780000X0.780000*%
%ADD36R,0.660000X0.366000*%
%ADD37R,0.900000X0.500000*%
%ADD38R,3.200000X0.800000*%
%ADD39R,0.800000X3.200000*%
%ADD40R,0.700000X0.450000*%
%ADD41R,0.800000X0.700000*%
%ADD42R,4.290000X4.500000*%
%ADD43R,1.600000X1.550000*%
%ADD44R,1.200000X1.550000*%
%ADD45R,2.790000X1.903000*%
%ADD46R,0.800000X0.800000*%
%ADD47R,1.800000X2.500000*%
%ADD48R,1.250000X1.000000*%
%ADD49R,5.000000X1.000000*%
%ADD50R,2.700000X2.550000*%
G04 APERTURE END LIST*
D10*
X121475500Y-105409000D03*
X121475500Y-102109000D03*
X120205500Y-85025500D03*
X120205500Y-81725500D03*
D11*
X157099000Y-97230000D03*
X157099000Y-67870000D03*
D12*
X101303000Y-102296000D03*
X101303000Y-101346000D03*
X101303000Y-100396000D03*
X99103000Y-100396000D03*
X99103000Y-102296000D03*
X99103000Y-101346000D03*
D13*
X143830000Y-89492000D03*
X144780000Y-89492000D03*
X145730000Y-89492000D03*
X145730000Y-87292000D03*
X143830000Y-87292000D03*
X144780000Y-87292000D03*
D14*
X130114000Y-87931500D03*
X132014000Y-87931500D03*
X131064000Y-85931500D03*
D15*
X99453000Y-98615500D03*
X100953000Y-98615500D03*
X145530000Y-91440000D03*
X144030000Y-91440000D03*
X130314000Y-89598500D03*
X131814000Y-89598500D03*
D16*
X97536000Y-101040500D03*
X97536000Y-102540500D03*
D15*
X141045500Y-91440000D03*
X142545500Y-91440000D03*
X141045500Y-92964000D03*
X142545500Y-92964000D03*
D17*
X138267500Y-94015500D03*
X138267500Y-93515500D03*
X138267500Y-93015500D03*
X138267500Y-92515500D03*
X138267500Y-92015500D03*
X138267500Y-91515500D03*
X138267500Y-91015500D03*
X138267500Y-90515500D03*
X135417500Y-90515500D03*
X135417500Y-91015500D03*
X135417500Y-91515500D03*
X135417500Y-92015500D03*
X135417500Y-92515500D03*
X135417500Y-93015500D03*
X135417500Y-93515500D03*
X135417500Y-94015500D03*
D18*
X136427500Y-90615500D03*
X136427500Y-91715500D03*
X136427500Y-92815500D03*
X136427500Y-93915500D03*
X137257500Y-90615500D03*
X137257500Y-91715500D03*
X137257500Y-92815500D03*
X137257500Y-93915500D03*
D15*
X131457000Y-95300800D03*
X132957000Y-95300800D03*
X135243000Y-86296500D03*
X133743000Y-86296500D03*
X138037000Y-86296500D03*
X136537000Y-86296500D03*
D19*
X132627500Y-92265500D03*
X129627500Y-92265500D03*
D20*
X140970000Y-89701500D03*
X140970000Y-86701500D03*
X142062200Y-94689800D03*
X142062200Y-97689800D03*
D21*
X133743000Y-87947500D03*
X135243000Y-87947500D03*
D15*
X94857000Y-68262500D03*
X93357000Y-68262500D03*
X140132500Y-81026000D03*
X138632500Y-81026000D03*
X110744000Y-141922500D03*
X109244000Y-141922500D03*
X122745500Y-93726000D03*
X124245500Y-93726000D03*
D12*
X116121000Y-126240500D03*
X116121000Y-127190500D03*
X116121000Y-128140500D03*
X118321000Y-128140500D03*
X118321000Y-126240500D03*
X115930500Y-115890000D03*
X115930500Y-116840000D03*
X115930500Y-117790000D03*
X118130500Y-117790000D03*
X118130500Y-115890000D03*
X115930500Y-105603000D03*
X115930500Y-106553000D03*
X115930500Y-107503000D03*
X118130500Y-107503000D03*
X118130500Y-105603000D03*
X115930500Y-95252500D03*
X115930500Y-96202500D03*
X115930500Y-97152500D03*
X118130500Y-97152500D03*
X118130500Y-95252500D03*
X115930500Y-84838500D03*
X115930500Y-85788500D03*
X115930500Y-86738500D03*
X118130500Y-86738500D03*
X118130500Y-84838500D03*
D22*
X135626200Y-100152800D03*
X136276200Y-100152800D03*
X136926200Y-100152800D03*
X137576200Y-100152800D03*
X137576200Y-97052800D03*
X136926200Y-97052800D03*
X136276200Y-97052800D03*
X135626200Y-97052800D03*
D23*
X137201200Y-98215300D03*
X136001200Y-98215300D03*
X137201200Y-98990300D03*
X136001200Y-98990300D03*
D22*
X94421600Y-46621100D03*
X93771600Y-46621100D03*
X93121600Y-46621100D03*
X92471600Y-46621100D03*
X92471600Y-49721100D03*
X93121600Y-49721100D03*
X93771600Y-49721100D03*
X94421600Y-49721100D03*
D23*
X92846600Y-48558600D03*
X94046600Y-48558600D03*
X92846600Y-47783600D03*
X94046600Y-47783600D03*
D24*
X83844800Y-139563200D03*
X83844800Y-140213200D03*
X83844800Y-140863200D03*
X83844800Y-141513200D03*
X86944800Y-141513200D03*
X86944800Y-140863200D03*
X86944800Y-140213200D03*
X86944800Y-139563200D03*
D25*
X85782300Y-141138200D03*
X85782300Y-139938200D03*
X85007300Y-141138200D03*
X85007300Y-139938200D03*
D22*
X117084200Y-78842200D03*
X117734200Y-78842200D03*
X118384200Y-78842200D03*
X119034200Y-78842200D03*
X119034200Y-75742200D03*
X118384200Y-75742200D03*
X117734200Y-75742200D03*
X117084200Y-75742200D03*
D23*
X118659200Y-76904700D03*
X117459200Y-76904700D03*
X118659200Y-77679700D03*
X117459200Y-77679700D03*
D13*
X154366000Y-47287000D03*
X153416000Y-47287000D03*
X152466000Y-47287000D03*
X152466000Y-49487000D03*
X154366000Y-49487000D03*
X153416000Y-49487000D03*
D26*
X145397000Y-51749500D03*
X144947000Y-51749500D03*
X144497000Y-51749500D03*
X144047000Y-51749500D03*
X143597000Y-51749500D03*
X143147000Y-51749500D03*
X143147000Y-54549500D03*
X143597000Y-54549500D03*
X144047000Y-54549500D03*
X144497000Y-54549500D03*
X144947000Y-54549500D03*
X145397000Y-54549500D03*
D27*
X143677000Y-53564500D03*
X144867000Y-53564500D03*
X143677000Y-52734500D03*
X144867000Y-52734500D03*
D28*
X153583000Y-61021000D03*
X153583000Y-60071000D03*
X153583000Y-59121000D03*
X150963000Y-59121000D03*
X150963000Y-60071000D03*
X150963000Y-61021000D03*
D29*
X83600500Y-108215000D03*
X83600500Y-108865000D03*
X83600500Y-109515000D03*
X83600500Y-110165000D03*
X83600500Y-110815000D03*
X83600500Y-111465000D03*
X83600500Y-112115000D03*
X83600500Y-112765000D03*
X89500500Y-112765000D03*
X89500500Y-112115000D03*
X89500500Y-111465000D03*
X89500500Y-110815000D03*
X89500500Y-110165000D03*
X89500500Y-109515000D03*
X89500500Y-108865000D03*
X89500500Y-108215000D03*
X83600500Y-98880500D03*
X83600500Y-99530500D03*
X83600500Y-100180500D03*
X83600500Y-100830500D03*
X83600500Y-101480500D03*
X83600500Y-102130500D03*
X83600500Y-102780500D03*
X83600500Y-103430500D03*
X89500500Y-103430500D03*
X89500500Y-102780500D03*
X89500500Y-102130500D03*
X89500500Y-101480500D03*
X89500500Y-100830500D03*
X89500500Y-100180500D03*
X89500500Y-99530500D03*
X89500500Y-98880500D03*
X83664000Y-71131000D03*
X83664000Y-71781000D03*
X83664000Y-72431000D03*
X83664000Y-73081000D03*
X83664000Y-73731000D03*
X83664000Y-74381000D03*
X83664000Y-75031000D03*
X83664000Y-75681000D03*
X89564000Y-75681000D03*
X89564000Y-75031000D03*
X89564000Y-74381000D03*
X89564000Y-73731000D03*
X89564000Y-73081000D03*
X89564000Y-72431000D03*
X89564000Y-71781000D03*
X89564000Y-71131000D03*
X83664000Y-89609500D03*
X83664000Y-90259500D03*
X83664000Y-90909500D03*
X83664000Y-91559500D03*
X83664000Y-92209500D03*
X83664000Y-92859500D03*
X83664000Y-93509500D03*
X83664000Y-94159500D03*
X89564000Y-94159500D03*
X89564000Y-93509500D03*
X89564000Y-92859500D03*
X89564000Y-92209500D03*
X89564000Y-91559500D03*
X89564000Y-90909500D03*
X89564000Y-90259500D03*
X89564000Y-89609500D03*
X83664000Y-80402000D03*
X83664000Y-81052000D03*
X83664000Y-81702000D03*
X83664000Y-82352000D03*
X83664000Y-83002000D03*
X83664000Y-83652000D03*
X83664000Y-84302000D03*
X83664000Y-84952000D03*
X89564000Y-84952000D03*
X89564000Y-84302000D03*
X89564000Y-83652000D03*
X89564000Y-83002000D03*
X89564000Y-82352000D03*
X89564000Y-81702000D03*
X89564000Y-81052000D03*
X89564000Y-80402000D03*
D30*
X99235000Y-135628500D03*
X99235000Y-136928500D03*
X99235000Y-136278500D03*
X101135000Y-136928500D03*
X101135000Y-135628500D03*
X99253000Y-129906000D03*
X99253000Y-131206000D03*
X99253000Y-130556000D03*
X101153000Y-131206000D03*
X101153000Y-129906000D03*
X99253000Y-124191000D03*
X99253000Y-125491000D03*
X99253000Y-124841000D03*
X101153000Y-125491000D03*
X101153000Y-124191000D03*
X99253000Y-118476000D03*
X99253000Y-119776000D03*
X99253000Y-119126000D03*
X101153000Y-119776000D03*
X101153000Y-118476000D03*
X99253000Y-112761000D03*
X99253000Y-114061000D03*
X99253000Y-113411000D03*
X101153000Y-114061000D03*
X101153000Y-112761000D03*
X99253000Y-107046000D03*
X99253000Y-108346000D03*
X99253000Y-107696000D03*
X101153000Y-108346000D03*
X101153000Y-107046000D03*
X129987000Y-76947000D03*
X129987000Y-78247000D03*
X129987000Y-77597000D03*
X131887000Y-78247000D03*
X131887000Y-76947000D03*
X129987000Y-71232000D03*
X129987000Y-72532000D03*
X129987000Y-71882000D03*
X131887000Y-72532000D03*
X131887000Y-71232000D03*
X129987000Y-65517000D03*
X129987000Y-66817000D03*
X129987000Y-66167000D03*
X131887000Y-66817000D03*
X131887000Y-65517000D03*
X129987000Y-59802000D03*
X129987000Y-61102000D03*
X129987000Y-60452000D03*
X131887000Y-61102000D03*
X131887000Y-59802000D03*
D12*
X72242500Y-128907500D03*
X72242500Y-129857500D03*
X72242500Y-130807500D03*
X74442500Y-130807500D03*
X74442500Y-128907500D03*
X74442500Y-129857500D03*
D31*
X138208500Y-123206500D03*
X138708500Y-123206500D03*
X139208500Y-123206500D03*
X139708500Y-123206500D03*
X140208500Y-123206500D03*
X140708500Y-123206500D03*
X141208500Y-123206500D03*
X141708500Y-123206500D03*
X142208500Y-123206500D03*
X142708500Y-123206500D03*
X143208500Y-123206500D03*
X143708500Y-123206500D03*
X144208500Y-123206500D03*
X144708500Y-123206500D03*
X145208500Y-123206500D03*
X145708500Y-123206500D03*
X146208500Y-123206500D03*
X146708500Y-123206500D03*
X147208500Y-123206500D03*
X147708500Y-123206500D03*
X148208500Y-123206500D03*
X148708500Y-123206500D03*
X149208500Y-123206500D03*
X149708500Y-123206500D03*
X150208500Y-123206500D03*
D32*
X151908500Y-121506500D03*
X151908500Y-121006500D03*
X151908500Y-120506500D03*
X151908500Y-120006500D03*
X151908500Y-119506500D03*
X151908500Y-119006500D03*
X151908500Y-118506500D03*
X151908500Y-118006500D03*
X151908500Y-117506500D03*
X151908500Y-117006500D03*
X151908500Y-116506500D03*
X151908500Y-116006500D03*
X151908500Y-115506500D03*
X151908500Y-115006500D03*
X151908500Y-114506500D03*
X151908500Y-114006500D03*
X151908500Y-113506500D03*
X151908500Y-113006500D03*
X151908500Y-112506500D03*
X151908500Y-112006500D03*
X151908500Y-111506500D03*
X151908500Y-111006500D03*
X151908500Y-110506500D03*
X151908500Y-110006500D03*
X151908500Y-109506500D03*
D31*
X150208500Y-107806500D03*
X149708500Y-107806500D03*
X149208500Y-107806500D03*
X148708500Y-107806500D03*
X148208500Y-107806500D03*
X147708500Y-107806500D03*
X147208500Y-107806500D03*
X146708500Y-107806500D03*
X146208500Y-107806500D03*
X145708500Y-107806500D03*
X145208500Y-107806500D03*
X144708500Y-107806500D03*
X144208500Y-107806500D03*
X143708500Y-107806500D03*
X143208500Y-107806500D03*
X142708500Y-107806500D03*
X142208500Y-107806500D03*
X141708500Y-107806500D03*
X141208500Y-107806500D03*
X140708500Y-107806500D03*
X140208500Y-107806500D03*
X139708500Y-107806500D03*
X139208500Y-107806500D03*
X138708500Y-107806500D03*
X138208500Y-107806500D03*
D32*
X136508500Y-109506500D03*
X136508500Y-110006500D03*
X136508500Y-110506500D03*
X136508500Y-111006500D03*
X136508500Y-111506500D03*
X136508500Y-112006500D03*
X136508500Y-112506500D03*
X136508500Y-113006500D03*
X136508500Y-113506500D03*
X136508500Y-114006500D03*
X136508500Y-114506500D03*
X136508500Y-115006500D03*
X136508500Y-115506500D03*
X136508500Y-116006500D03*
X136508500Y-116506500D03*
X136508500Y-117006500D03*
X136508500Y-117506500D03*
X136508500Y-118006500D03*
X136508500Y-118506500D03*
X136508500Y-119006500D03*
X136508500Y-119506500D03*
X136508500Y-120006500D03*
X136508500Y-120506500D03*
X136508500Y-121006500D03*
X136508500Y-121506500D03*
D12*
X123995000Y-51120000D03*
X123995000Y-52070000D03*
X123995000Y-53020000D03*
X126195000Y-53020000D03*
X126195000Y-51120000D03*
D33*
X120900500Y-66733500D03*
X120900500Y-66233500D03*
X120900500Y-65733500D03*
X120900500Y-65233500D03*
X120900500Y-64733500D03*
X120900500Y-64233500D03*
D34*
X120200500Y-63533500D03*
X119700500Y-63533500D03*
X119200500Y-63533500D03*
X118700500Y-63533500D03*
X118200500Y-63533500D03*
X117700500Y-63533500D03*
D33*
X117000500Y-64233500D03*
X117000500Y-64733500D03*
X117000500Y-65233500D03*
X117000500Y-65733500D03*
X117000500Y-66233500D03*
X117000500Y-66733500D03*
D34*
X117700500Y-67433500D03*
X118200500Y-67433500D03*
X118700500Y-67433500D03*
X119200500Y-67433500D03*
X119700500Y-67433500D03*
X120200500Y-67433500D03*
D35*
X118300500Y-64833500D03*
X118300500Y-66133500D03*
X119600500Y-64833500D03*
X119600500Y-66133500D03*
D12*
X98763000Y-59687500D03*
X98763000Y-58737500D03*
X98763000Y-57787500D03*
X96563000Y-57787500D03*
X96563000Y-59687500D03*
D26*
X88150000Y-64044000D03*
X88650000Y-64044000D03*
X89150000Y-64044000D03*
X89650000Y-64044000D03*
X89650000Y-62194000D03*
X89150000Y-62194000D03*
X88650000Y-62194000D03*
X88150000Y-62194000D03*
D36*
X89450000Y-63119000D03*
X88350000Y-63119000D03*
D15*
X121527000Y-128143000D03*
X120027000Y-128143000D03*
X121336500Y-117792500D03*
X119836500Y-117792500D03*
D37*
X114236500Y-129655000D03*
X114236500Y-128155000D03*
X114236500Y-126734000D03*
X114236500Y-125234000D03*
X114046000Y-117741000D03*
X114046000Y-119241000D03*
X114046000Y-116447000D03*
X114046000Y-114947000D03*
D15*
X121336500Y-107505500D03*
X119836500Y-107505500D03*
X121336500Y-97155000D03*
X119836500Y-97155000D03*
X121336500Y-86741000D03*
X119836500Y-86741000D03*
D37*
X114046000Y-98603500D03*
X114046000Y-97103500D03*
X114046000Y-95809500D03*
X114046000Y-94309500D03*
D15*
X132612700Y-101688900D03*
X134112700Y-101688900D03*
X132612700Y-100101400D03*
X134112700Y-100101400D03*
X98640200Y-46507400D03*
X100140200Y-46507400D03*
D37*
X82156300Y-136549700D03*
X82156300Y-138049700D03*
D15*
X114070700Y-80530700D03*
X115570700Y-80530700D03*
X97435100Y-46520100D03*
X95935100Y-46520100D03*
D37*
X83743800Y-136549700D03*
X83743800Y-138049700D03*
D15*
X114070700Y-78943200D03*
X115570700Y-78943200D03*
D37*
X140525500Y-48018000D03*
X140525500Y-49518000D03*
D15*
X149848000Y-52451000D03*
X148348000Y-52451000D03*
X149848000Y-54038500D03*
X148348000Y-54038500D03*
D37*
X149098000Y-59829000D03*
X149098000Y-61329000D03*
X142240000Y-57900000D03*
X142240000Y-56400000D03*
X145732500Y-57900000D03*
X145732500Y-56400000D03*
D15*
X150229000Y-57467500D03*
X148729000Y-57467500D03*
X153023000Y-57467500D03*
X151523000Y-57467500D03*
X155817000Y-57467500D03*
X154317000Y-57467500D03*
D37*
X148526500Y-47065500D03*
X148526500Y-48565500D03*
D15*
X77355000Y-112014000D03*
X78855000Y-112014000D03*
X77355000Y-102679500D03*
X78855000Y-102679500D03*
X78855000Y-113538000D03*
X77355000Y-113538000D03*
X78855000Y-104203500D03*
X77355000Y-104203500D03*
X78855000Y-110490000D03*
X77355000Y-110490000D03*
X78855000Y-101155500D03*
X77355000Y-101155500D03*
X78855000Y-108966000D03*
X77355000Y-108966000D03*
X78855000Y-99631500D03*
X77355000Y-99631500D03*
X78855000Y-107442000D03*
X77355000Y-107442000D03*
X78855000Y-98107500D03*
X77355000Y-98107500D03*
X77418500Y-93408500D03*
X78918500Y-93408500D03*
X77418500Y-84201000D03*
X78918500Y-84201000D03*
X78918500Y-74930000D03*
X77418500Y-74930000D03*
X78918500Y-94932500D03*
X77418500Y-94932500D03*
X78918500Y-85725000D03*
X77418500Y-85725000D03*
X78918500Y-73406000D03*
X77418500Y-73406000D03*
X78918500Y-91884500D03*
X77418500Y-91884500D03*
X78918500Y-82677000D03*
X77418500Y-82677000D03*
X78918500Y-71882000D03*
X77418500Y-71882000D03*
X78918500Y-90360500D03*
X77418500Y-90360500D03*
X78918500Y-81153000D03*
X77418500Y-81153000D03*
X78918500Y-70358000D03*
X77418500Y-70358000D03*
X78918500Y-88836500D03*
X77418500Y-88836500D03*
X78918500Y-79629000D03*
X77418500Y-79629000D03*
X126797500Y-141859000D03*
X125297500Y-141859000D03*
X126797500Y-139319000D03*
X125297500Y-139319000D03*
X126797500Y-136779000D03*
X125297500Y-136779000D03*
X136957500Y-141859000D03*
X135457500Y-141859000D03*
X136957500Y-139319000D03*
X135457500Y-139319000D03*
X136957500Y-136779000D03*
X135457500Y-136779000D03*
X147117500Y-141859000D03*
X145617500Y-141859000D03*
X147117500Y-139319000D03*
X145617500Y-139319000D03*
X147117500Y-136779000D03*
X145617500Y-136779000D03*
X121717500Y-141859000D03*
X120217500Y-141859000D03*
X121717500Y-139319000D03*
X120217500Y-139319000D03*
X121717500Y-136779000D03*
X120217500Y-136779000D03*
X121717500Y-134239000D03*
X120217500Y-134239000D03*
X131877500Y-141859000D03*
X130377500Y-141859000D03*
X131877500Y-139319000D03*
X130377500Y-139319000D03*
X131877500Y-136779000D03*
X130377500Y-136779000D03*
X131877500Y-134239000D03*
X130377500Y-134239000D03*
X142037500Y-141859000D03*
X140537500Y-141859000D03*
X142037500Y-139319000D03*
X140537500Y-139319000D03*
X142037500Y-136779000D03*
X140537500Y-136779000D03*
X142037500Y-134239000D03*
X140537500Y-134239000D03*
X102818500Y-135509000D03*
X104318500Y-135509000D03*
X102818500Y-129794000D03*
X104318500Y-129794000D03*
D37*
X97790000Y-136029000D03*
X97790000Y-137529000D03*
X97790000Y-130314000D03*
X97790000Y-131814000D03*
D15*
X102818500Y-124079000D03*
X104318500Y-124079000D03*
X102818500Y-118364000D03*
X104318500Y-118364000D03*
D37*
X97790000Y-124599000D03*
X97790000Y-126099000D03*
X97790000Y-120384000D03*
X97790000Y-118884000D03*
D15*
X102818500Y-112649000D03*
X104318500Y-112649000D03*
X102818500Y-106934000D03*
X104318500Y-106934000D03*
D37*
X97790000Y-113169000D03*
X97790000Y-114669000D03*
X97790000Y-107454000D03*
X97790000Y-108954000D03*
D15*
X133806500Y-76835000D03*
X135306500Y-76835000D03*
X133870000Y-71120000D03*
X135370000Y-71120000D03*
X133806500Y-65405000D03*
X135306500Y-65405000D03*
X133806500Y-59690000D03*
X135306500Y-59690000D03*
D37*
X70993000Y-127432500D03*
X70993000Y-125932500D03*
X70485000Y-132258500D03*
X70485000Y-130758500D03*
X158750000Y-127202500D03*
X158750000Y-128702500D03*
D15*
X157341000Y-128778000D03*
X155841000Y-128778000D03*
X155841000Y-127190500D03*
X157341000Y-127190500D03*
D37*
X157416500Y-130314000D03*
X157416500Y-131814000D03*
X152146000Y-130314000D03*
X152146000Y-131814000D03*
X150558500Y-131814000D03*
X150558500Y-130314000D03*
X122301000Y-50875500D03*
X122301000Y-52375500D03*
D38*
X115951000Y-52870000D03*
X115951000Y-51270000D03*
D15*
X124789500Y-67754500D03*
X126289500Y-67754500D03*
X126289500Y-69342000D03*
X124789500Y-69342000D03*
X124789500Y-63055500D03*
X126289500Y-63055500D03*
X124789500Y-72453500D03*
X126289500Y-72453500D03*
X113296000Y-71945500D03*
X114796000Y-71945500D03*
X124789500Y-59944000D03*
X126289500Y-59944000D03*
X126289500Y-58356500D03*
X124789500Y-58356500D03*
X126289500Y-56769000D03*
X124789500Y-56769000D03*
D37*
X100520500Y-59995500D03*
X100520500Y-58495500D03*
D39*
X97498000Y-54305200D03*
X99098000Y-54305200D03*
D15*
X92023500Y-59563000D03*
X93523500Y-59563000D03*
X93523500Y-57975500D03*
X92023500Y-57975500D03*
X86805200Y-56883300D03*
X85305200Y-56883300D03*
X89167400Y-48501300D03*
X87667400Y-48501300D03*
D37*
X84582000Y-62432500D03*
X84582000Y-63932500D03*
D15*
X86983000Y-66167000D03*
X85483000Y-66167000D03*
X89650000Y-66167000D03*
X88150000Y-66167000D03*
X92317000Y-66167000D03*
X90817000Y-66167000D03*
D40*
X153749500Y-130414000D03*
X153749500Y-131714000D03*
X155749500Y-131064000D03*
D41*
X88829700Y-51925300D03*
X88829700Y-53195300D03*
X88829700Y-54475300D03*
X88829700Y-55745300D03*
X94329700Y-55745300D03*
X94329700Y-54475300D03*
X94329700Y-53195300D03*
X94329700Y-51925300D03*
D42*
X92079700Y-53835300D03*
D43*
X92829700Y-52745300D03*
X92829700Y-54925300D03*
D44*
X90829700Y-52745300D03*
X90829700Y-54925300D03*
D41*
X85820700Y-54475300D03*
X85820700Y-53205300D03*
X85820700Y-51925300D03*
X85820700Y-50655300D03*
X80320700Y-50655300D03*
X80320700Y-51925300D03*
X80320700Y-53205300D03*
X80320700Y-54475300D03*
D42*
X82570700Y-52565300D03*
D43*
X81820700Y-53655300D03*
X81820700Y-51475300D03*
D44*
X83820700Y-53655300D03*
X83820700Y-51475300D03*
D37*
X160147000Y-54876000D03*
X160147000Y-56376000D03*
X157670500Y-49137000D03*
X157670500Y-47637000D03*
D15*
X159143000Y-118427500D03*
X160643000Y-118427500D03*
X159143000Y-120078500D03*
X160643000Y-120078500D03*
D45*
X112776000Y-60275000D03*
X112776000Y-55422000D03*
D46*
X140532500Y-51145000D03*
X140532500Y-52745000D03*
X104368500Y-137033000D03*
X102768500Y-137033000D03*
X104368500Y-131318000D03*
X102768500Y-131318000D03*
X104368500Y-125603000D03*
X102768500Y-125603000D03*
X104368500Y-119888000D03*
X102768500Y-119888000D03*
X104368500Y-114173000D03*
X102768500Y-114173000D03*
X104368500Y-108458000D03*
X102768500Y-108458000D03*
X135356500Y-78295500D03*
X133756500Y-78295500D03*
X135420000Y-72580500D03*
X133820000Y-72580500D03*
X135356500Y-66865500D03*
X133756500Y-66865500D03*
X135356500Y-61150500D03*
X133756500Y-61150500D03*
D10*
X118173500Y-70422500D03*
X118173500Y-73722500D03*
D47*
X81546700Y-57931300D03*
X81546700Y-61931300D03*
D21*
X120027000Y-129794000D03*
X121527000Y-129794000D03*
X119836500Y-119443500D03*
X121336500Y-119443500D03*
X116471000Y-129857500D03*
X117971000Y-129857500D03*
X116280500Y-119443500D03*
X117780500Y-119443500D03*
X116471000Y-131318000D03*
X117971000Y-131318000D03*
X116280500Y-120904000D03*
X117780500Y-120904000D03*
X116471000Y-132778500D03*
X117971000Y-132778500D03*
X116280500Y-122364500D03*
X117780500Y-122364500D03*
X119836500Y-109156500D03*
X121336500Y-109156500D03*
X116280500Y-109156500D03*
X117780500Y-109156500D03*
X116280500Y-110617000D03*
X117780500Y-110617000D03*
X116280500Y-112077500D03*
X117780500Y-112077500D03*
X119836500Y-98806000D03*
X121336500Y-98806000D03*
X119836500Y-88392000D03*
X121336500Y-88392000D03*
X116280500Y-98869500D03*
X117780500Y-98869500D03*
X116280500Y-88455500D03*
X117780500Y-88455500D03*
X116280500Y-100330000D03*
X117780500Y-100330000D03*
X116280500Y-89916000D03*
X117780500Y-89916000D03*
X116280500Y-101790500D03*
X117780500Y-101790500D03*
X116280500Y-91376500D03*
X117780500Y-91376500D03*
D16*
X133997700Y-98501900D03*
X133997700Y-97001900D03*
X132537200Y-98501900D03*
X132537200Y-97001900D03*
X131076700Y-98501900D03*
X131076700Y-97001900D03*
X96050100Y-48119600D03*
X96050100Y-49619600D03*
D21*
X85343300Y-137934700D03*
X86843300Y-137934700D03*
D16*
X115455700Y-77343700D03*
X115455700Y-75843700D03*
X97510600Y-48119600D03*
X97510600Y-49619600D03*
D21*
X85343300Y-136474200D03*
X86843300Y-136474200D03*
D16*
X113995200Y-77343700D03*
X113995200Y-75843700D03*
X98971100Y-48119600D03*
X98971100Y-49619600D03*
D21*
X85343300Y-135013700D03*
X86843300Y-135013700D03*
D16*
X112534700Y-77343700D03*
X112534700Y-75843700D03*
X156083000Y-49137000D03*
X156083000Y-47637000D03*
D21*
X148348000Y-50927000D03*
X149848000Y-50927000D03*
X148348000Y-55562500D03*
X149848000Y-55562500D03*
D16*
X150749000Y-47637000D03*
X150749000Y-49137000D03*
X145669000Y-47065500D03*
X145669000Y-48565500D03*
D48*
X144018000Y-48815500D03*
X144018000Y-46815500D03*
D16*
X142367000Y-47065500D03*
X142367000Y-48565500D03*
D21*
X153023000Y-62611000D03*
X151523000Y-62611000D03*
D16*
X144018000Y-58916000D03*
X144018000Y-57416000D03*
X147066000Y-47065500D03*
X147066000Y-48565500D03*
D21*
X85800500Y-106743500D03*
X87300500Y-106743500D03*
X85800500Y-97409000D03*
X87300500Y-97409000D03*
X85864000Y-69659500D03*
X87364000Y-69659500D03*
X85864000Y-88138000D03*
X87364000Y-88138000D03*
X85864000Y-78930500D03*
X87364000Y-78930500D03*
X99453000Y-138430000D03*
X100953000Y-138430000D03*
X99453000Y-132715000D03*
X100953000Y-132715000D03*
X99453000Y-127000000D03*
X100953000Y-127000000D03*
X99453000Y-121285000D03*
X100953000Y-121285000D03*
X99453000Y-115570000D03*
X100953000Y-115570000D03*
X99453000Y-109855000D03*
X100953000Y-109855000D03*
X130187000Y-79819500D03*
X131687000Y-79819500D03*
X130187000Y-74104500D03*
X131687000Y-74104500D03*
X130187000Y-68389500D03*
X131687000Y-68389500D03*
X130187000Y-62674500D03*
X131687000Y-62674500D03*
X72592500Y-127254000D03*
X74092500Y-127254000D03*
X72592500Y-125857000D03*
X74092500Y-125857000D03*
X72592500Y-124460000D03*
X74092500Y-124460000D03*
X72592500Y-132461000D03*
X74092500Y-132461000D03*
D16*
X154813000Y-118503000D03*
X154813000Y-120003000D03*
X133159500Y-117042500D03*
X133159500Y-118542500D03*
X156273500Y-118503000D03*
X156273500Y-120003000D03*
X131699000Y-117042500D03*
X131699000Y-118542500D03*
X157734000Y-118503000D03*
X157734000Y-120003000D03*
X130238500Y-117042500D03*
X130238500Y-118542500D03*
D21*
X143712500Y-104584500D03*
X145212500Y-104584500D03*
D16*
X154813000Y-116955000D03*
X154813000Y-115455000D03*
D21*
X143712500Y-103124000D03*
X145212500Y-103124000D03*
D16*
X156337000Y-116955000D03*
X156337000Y-115455000D03*
D21*
X143712500Y-101663500D03*
X145212500Y-101663500D03*
D16*
X157861000Y-116955000D03*
X157861000Y-115455000D03*
D21*
X137807000Y-104838500D03*
X139307000Y-104838500D03*
D16*
X154813000Y-112510000D03*
X154813000Y-111010000D03*
D21*
X137807000Y-103378000D03*
X139307000Y-103378000D03*
D16*
X156273500Y-112510000D03*
X156273500Y-111010000D03*
D21*
X137807000Y-101917500D03*
X139307000Y-101917500D03*
D16*
X157734000Y-112510000D03*
X157734000Y-111010000D03*
X133159500Y-113970500D03*
X133159500Y-112470500D03*
D21*
X143712500Y-125920500D03*
X145212500Y-125920500D03*
D16*
X131699000Y-113970500D03*
X131699000Y-112470500D03*
D21*
X143712500Y-127381000D03*
X145212500Y-127381000D03*
D16*
X130238500Y-113970500D03*
X130238500Y-112470500D03*
D21*
X143712500Y-128841500D03*
X145212500Y-128841500D03*
X152920000Y-128778000D03*
X154420000Y-128778000D03*
D16*
X159956500Y-138061000D03*
X159956500Y-139561000D03*
X120777000Y-52375500D03*
X120777000Y-50875500D03*
X118808500Y-52820000D03*
X118808500Y-51320000D03*
D19*
X117181500Y-55562500D03*
X120181500Y-55562500D03*
D21*
X124345000Y-49403000D03*
X125845000Y-49403000D03*
X124345000Y-47942500D03*
X125845000Y-47942500D03*
D19*
X117181500Y-58864500D03*
X120181500Y-58864500D03*
D21*
X124345000Y-46482000D03*
X125845000Y-46482000D03*
X124789500Y-70866000D03*
X126289500Y-70866000D03*
D48*
X120459500Y-71072500D03*
X120459500Y-73072500D03*
D21*
X126289500Y-64643000D03*
X124789500Y-64643000D03*
X111811500Y-62674500D03*
X110311500Y-62674500D03*
X124789500Y-61468000D03*
X126289500Y-61468000D03*
D16*
X116141500Y-72822500D03*
X116141500Y-71322500D03*
D21*
X126289500Y-66167000D03*
X124789500Y-66167000D03*
D49*
X113347500Y-69856000D03*
X113347500Y-64256000D03*
X107696000Y-69856000D03*
X107696000Y-64256000D03*
D50*
X104800400Y-53975000D03*
X104800400Y-47625000D03*
D16*
X102044500Y-58495500D03*
X102044500Y-59995500D03*
D21*
X98222500Y-63246000D03*
X96722500Y-63246000D03*
X98222500Y-64706500D03*
X96722500Y-64706500D03*
X98222500Y-66167000D03*
X96722500Y-66167000D03*
X92023500Y-61087000D03*
X93523500Y-61087000D03*
D16*
X91757500Y-62686500D03*
X91757500Y-64186500D03*
X93281500Y-62686500D03*
X93281500Y-64186500D03*
X94742000Y-62686500D03*
X94742000Y-64186500D03*
M02*
