G04 #@! TF.GenerationSoftware,KiCad,Pcbnew,(5.1.2)-1*
G04 #@! TF.CreationDate,2019-09-01T11:48:08-05:00*
G04 #@! TF.ProjectId,Electronic_Calendar,456c6563-7472-46f6-9e69-635f43616c65,rev?*
G04 #@! TF.SameCoordinates,Original*
G04 #@! TF.FileFunction,Legend,Bot*
G04 #@! TF.FilePolarity,Positive*
%FSLAX46Y46*%
G04 Gerber Fmt 4.6, Leading zero omitted, Abs format (unit mm)*
G04 Created by KiCad (PCBNEW (5.1.2)-1) date 2019-09-01 11:48:08*
%MOMM*%
%LPD*%
G04 APERTURE LIST*
%ADD10C,0.300000*%
%ADD11C,0.150000*%
%ADD12C,0.600000*%
%ADD13C,0.500000*%
%ADD14C,0.120000*%
G04 APERTURE END LIST*
D10*
X85102628Y-47046342D02*
X83959771Y-47046342D01*
X79108228Y-47046342D02*
X77965371Y-47046342D01*
X78536800Y-47617771D02*
X78536800Y-46474914D01*
D11*
X165780404Y-66891880D02*
X165780404Y-67701404D01*
X165732785Y-67796642D01*
X165685166Y-67844261D01*
X165589928Y-67891880D01*
X165399452Y-67891880D01*
X165304214Y-67844261D01*
X165256595Y-67796642D01*
X165208976Y-67701404D01*
X165208976Y-66891880D01*
X164780404Y-67844261D02*
X164637547Y-67891880D01*
X164399452Y-67891880D01*
X164304214Y-67844261D01*
X164256595Y-67796642D01*
X164208976Y-67701404D01*
X164208976Y-67606166D01*
X164256595Y-67510928D01*
X164304214Y-67463309D01*
X164399452Y-67415690D01*
X164589928Y-67368071D01*
X164685166Y-67320452D01*
X164732785Y-67272833D01*
X164780404Y-67177595D01*
X164780404Y-67082357D01*
X164732785Y-66987119D01*
X164685166Y-66939500D01*
X164589928Y-66891880D01*
X164351833Y-66891880D01*
X164208976Y-66939500D01*
X163447071Y-67368071D02*
X163304214Y-67415690D01*
X163256595Y-67463309D01*
X163208976Y-67558547D01*
X163208976Y-67701404D01*
X163256595Y-67796642D01*
X163304214Y-67844261D01*
X163399452Y-67891880D01*
X163780404Y-67891880D01*
X163780404Y-66891880D01*
X163447071Y-66891880D01*
X163351833Y-66939500D01*
X163304214Y-66987119D01*
X163256595Y-67082357D01*
X163256595Y-67177595D01*
X163304214Y-67272833D01*
X163351833Y-67320452D01*
X163447071Y-67368071D01*
X163780404Y-67368071D01*
X161447071Y-67796642D02*
X161494690Y-67844261D01*
X161637547Y-67891880D01*
X161732785Y-67891880D01*
X161875642Y-67844261D01*
X161970880Y-67749023D01*
X162018500Y-67653785D01*
X162066119Y-67463309D01*
X162066119Y-67320452D01*
X162018500Y-67129976D01*
X161970880Y-67034738D01*
X161875642Y-66939500D01*
X161732785Y-66891880D01*
X161637547Y-66891880D01*
X161494690Y-66939500D01*
X161447071Y-66987119D01*
X160828023Y-66891880D02*
X160637547Y-66891880D01*
X160542309Y-66939500D01*
X160447071Y-67034738D01*
X160399452Y-67225214D01*
X160399452Y-67558547D01*
X160447071Y-67749023D01*
X160542309Y-67844261D01*
X160637547Y-67891880D01*
X160828023Y-67891880D01*
X160923261Y-67844261D01*
X161018500Y-67749023D01*
X161066119Y-67558547D01*
X161066119Y-67225214D01*
X161018500Y-67034738D01*
X160923261Y-66939500D01*
X160828023Y-66891880D01*
X159970880Y-67891880D02*
X159970880Y-66891880D01*
X159637547Y-67606166D01*
X159304214Y-66891880D01*
X159304214Y-67891880D01*
X158066119Y-67891880D02*
X158066119Y-66891880D01*
X157685166Y-66891880D01*
X157589928Y-66939500D01*
X157542309Y-66987119D01*
X157494690Y-67082357D01*
X157494690Y-67225214D01*
X157542309Y-67320452D01*
X157589928Y-67368071D01*
X157685166Y-67415690D01*
X158066119Y-67415690D01*
X156923261Y-67891880D02*
X157018500Y-67844261D01*
X157066119Y-67796642D01*
X157113738Y-67701404D01*
X157113738Y-67415690D01*
X157066119Y-67320452D01*
X157018500Y-67272833D01*
X156923261Y-67225214D01*
X156780404Y-67225214D01*
X156685166Y-67272833D01*
X156637547Y-67320452D01*
X156589928Y-67415690D01*
X156589928Y-67701404D01*
X156637547Y-67796642D01*
X156685166Y-67844261D01*
X156780404Y-67891880D01*
X156923261Y-67891880D01*
X156161357Y-67891880D02*
X156161357Y-67225214D01*
X156161357Y-67415690D02*
X156113738Y-67320452D01*
X156066119Y-67272833D01*
X155970880Y-67225214D01*
X155875642Y-67225214D01*
X155685166Y-67225214D02*
X155304214Y-67225214D01*
X155542309Y-66891880D02*
X155542309Y-67749023D01*
X155494690Y-67844261D01*
X155399452Y-67891880D01*
X155304214Y-67891880D01*
X154970880Y-67796642D02*
X154923261Y-67844261D01*
X154970880Y-67891880D01*
X155018500Y-67844261D01*
X154970880Y-67796642D01*
X154970880Y-67891880D01*
X154970880Y-67272833D02*
X154923261Y-67320452D01*
X154970880Y-67368071D01*
X155018500Y-67320452D01*
X154970880Y-67272833D01*
X154970880Y-67368071D01*
X165256595Y-69541880D02*
X165828023Y-69541880D01*
X165542309Y-69541880D02*
X165542309Y-68541880D01*
X165637547Y-68684738D01*
X165732785Y-68779976D01*
X165828023Y-68827595D01*
X164304214Y-69541880D02*
X164875642Y-69541880D01*
X164589928Y-69541880D02*
X164589928Y-68541880D01*
X164685166Y-68684738D01*
X164780404Y-68779976D01*
X164875642Y-68827595D01*
X163399452Y-68541880D02*
X163875642Y-68541880D01*
X163923261Y-69018071D01*
X163875642Y-68970452D01*
X163780404Y-68922833D01*
X163542309Y-68922833D01*
X163447071Y-68970452D01*
X163399452Y-69018071D01*
X163351833Y-69113309D01*
X163351833Y-69351404D01*
X163399452Y-69446642D01*
X163447071Y-69494261D01*
X163542309Y-69541880D01*
X163780404Y-69541880D01*
X163875642Y-69494261D01*
X163923261Y-69446642D01*
X162923261Y-69446642D02*
X162875642Y-69494261D01*
X162923261Y-69541880D01*
X162970880Y-69494261D01*
X162923261Y-69446642D01*
X162923261Y-69541880D01*
X162494690Y-68637119D02*
X162447071Y-68589500D01*
X162351833Y-68541880D01*
X162113738Y-68541880D01*
X162018500Y-68589500D01*
X161970880Y-68637119D01*
X161923261Y-68732357D01*
X161923261Y-68827595D01*
X161970880Y-68970452D01*
X162542309Y-69541880D01*
X161923261Y-69541880D01*
X160732785Y-69541880D02*
X160732785Y-68541880D01*
X160637547Y-69160928D02*
X160351833Y-69541880D01*
X160351833Y-68875214D02*
X160732785Y-69256166D01*
X159923261Y-69541880D02*
X159923261Y-68541880D01*
X159923261Y-68922833D02*
X159828023Y-68875214D01*
X159637547Y-68875214D01*
X159542309Y-68922833D01*
X159494690Y-68970452D01*
X159447071Y-69065690D01*
X159447071Y-69351404D01*
X159494690Y-69446642D01*
X159542309Y-69494261D01*
X159637547Y-69541880D01*
X159828023Y-69541880D01*
X159923261Y-69494261D01*
X159018500Y-68875214D02*
X159018500Y-69875214D01*
X159018500Y-68922833D02*
X158923261Y-68875214D01*
X158732785Y-68875214D01*
X158637547Y-68922833D01*
X158589928Y-68970452D01*
X158542309Y-69065690D01*
X158542309Y-69351404D01*
X158589928Y-69446642D01*
X158637547Y-69494261D01*
X158732785Y-69541880D01*
X158923261Y-69541880D01*
X159018500Y-69494261D01*
X158161357Y-69494261D02*
X158066119Y-69541880D01*
X157875642Y-69541880D01*
X157780404Y-69494261D01*
X157732785Y-69399023D01*
X157732785Y-69351404D01*
X157780404Y-69256166D01*
X157875642Y-69208547D01*
X158018500Y-69208547D01*
X158113738Y-69160928D01*
X158161357Y-69065690D01*
X158161357Y-69018071D01*
X158113738Y-68922833D01*
X158018500Y-68875214D01*
X157875642Y-68875214D01*
X157780404Y-68922833D01*
X165637547Y-70620452D02*
X165732785Y-70572833D01*
X165780404Y-70525214D01*
X165828023Y-70429976D01*
X165828023Y-70382357D01*
X165780404Y-70287119D01*
X165732785Y-70239500D01*
X165637547Y-70191880D01*
X165447071Y-70191880D01*
X165351833Y-70239500D01*
X165304214Y-70287119D01*
X165256595Y-70382357D01*
X165256595Y-70429976D01*
X165304214Y-70525214D01*
X165351833Y-70572833D01*
X165447071Y-70620452D01*
X165637547Y-70620452D01*
X165732785Y-70668071D01*
X165780404Y-70715690D01*
X165828023Y-70810928D01*
X165828023Y-71001404D01*
X165780404Y-71096642D01*
X165732785Y-71144261D01*
X165637547Y-71191880D01*
X165447071Y-71191880D01*
X165351833Y-71144261D01*
X165304214Y-71096642D01*
X165256595Y-71001404D01*
X165256595Y-70810928D01*
X165304214Y-70715690D01*
X165351833Y-70668071D01*
X165447071Y-70620452D01*
X164066119Y-71191880D02*
X164066119Y-70191880D01*
X164066119Y-70572833D02*
X163970880Y-70525214D01*
X163780404Y-70525214D01*
X163685166Y-70572833D01*
X163637547Y-70620452D01*
X163589928Y-70715690D01*
X163589928Y-71001404D01*
X163637547Y-71096642D01*
X163685166Y-71144261D01*
X163780404Y-71191880D01*
X163970880Y-71191880D01*
X164066119Y-71144261D01*
X163161357Y-71191880D02*
X163161357Y-70525214D01*
X163161357Y-70191880D02*
X163208976Y-70239500D01*
X163161357Y-70287119D01*
X163113738Y-70239500D01*
X163161357Y-70191880D01*
X163161357Y-70287119D01*
X162828023Y-70525214D02*
X162447071Y-70525214D01*
X162685166Y-70191880D02*
X162685166Y-71049023D01*
X162637547Y-71144261D01*
X162542309Y-71191880D01*
X162447071Y-71191880D01*
X160923261Y-71191880D02*
X160923261Y-70191880D01*
X160923261Y-71144261D02*
X161018500Y-71191880D01*
X161208976Y-71191880D01*
X161304214Y-71144261D01*
X161351833Y-71096642D01*
X161399452Y-71001404D01*
X161399452Y-70715690D01*
X161351833Y-70620452D01*
X161304214Y-70572833D01*
X161208976Y-70525214D01*
X161018500Y-70525214D01*
X160923261Y-70572833D01*
X160018500Y-71191880D02*
X160018500Y-70668071D01*
X160066119Y-70572833D01*
X160161357Y-70525214D01*
X160351833Y-70525214D01*
X160447071Y-70572833D01*
X160018500Y-71144261D02*
X160113738Y-71191880D01*
X160351833Y-71191880D01*
X160447071Y-71144261D01*
X160494690Y-71049023D01*
X160494690Y-70953785D01*
X160447071Y-70858547D01*
X160351833Y-70810928D01*
X160113738Y-70810928D01*
X160018500Y-70763309D01*
X159685166Y-70525214D02*
X159304214Y-70525214D01*
X159542309Y-70191880D02*
X159542309Y-71049023D01*
X159494690Y-71144261D01*
X159399452Y-71191880D01*
X159304214Y-71191880D01*
X158542309Y-71191880D02*
X158542309Y-70668071D01*
X158589928Y-70572833D01*
X158685166Y-70525214D01*
X158875642Y-70525214D01*
X158970880Y-70572833D01*
X158542309Y-71144261D02*
X158637547Y-71191880D01*
X158875642Y-71191880D01*
X158970880Y-71144261D01*
X159018500Y-71049023D01*
X159018500Y-70953785D01*
X158970880Y-70858547D01*
X158875642Y-70810928D01*
X158637547Y-70810928D01*
X158542309Y-70763309D01*
X157161357Y-71191880D02*
X157256595Y-71144261D01*
X157304214Y-71049023D01*
X157304214Y-70191880D01*
X156399452Y-71144261D02*
X156494690Y-71191880D01*
X156685166Y-71191880D01*
X156780404Y-71144261D01*
X156828023Y-71049023D01*
X156828023Y-70668071D01*
X156780404Y-70572833D01*
X156685166Y-70525214D01*
X156494690Y-70525214D01*
X156399452Y-70572833D01*
X156351833Y-70668071D01*
X156351833Y-70763309D01*
X156828023Y-70858547D01*
X155923261Y-70525214D02*
X155923261Y-71191880D01*
X155923261Y-70620452D02*
X155875642Y-70572833D01*
X155780404Y-70525214D01*
X155637547Y-70525214D01*
X155542309Y-70572833D01*
X155494690Y-70668071D01*
X155494690Y-71191880D01*
X154589928Y-70525214D02*
X154589928Y-71334738D01*
X154637547Y-71429976D01*
X154685166Y-71477595D01*
X154780404Y-71525214D01*
X154923261Y-71525214D01*
X155018500Y-71477595D01*
X154589928Y-71144261D02*
X154685166Y-71191880D01*
X154875642Y-71191880D01*
X154970880Y-71144261D01*
X155018500Y-71096642D01*
X155066119Y-71001404D01*
X155066119Y-70715690D01*
X155018500Y-70620452D01*
X154970880Y-70572833D01*
X154875642Y-70525214D01*
X154685166Y-70525214D01*
X154589928Y-70572833D01*
X154256595Y-70525214D02*
X153875642Y-70525214D01*
X154113738Y-70191880D02*
X154113738Y-71049023D01*
X154066119Y-71144261D01*
X153970880Y-71191880D01*
X153875642Y-71191880D01*
X153542309Y-71191880D02*
X153542309Y-70191880D01*
X153113738Y-71191880D02*
X153113738Y-70668071D01*
X153161357Y-70572833D01*
X153256595Y-70525214D01*
X153399452Y-70525214D01*
X153494690Y-70572833D01*
X153542309Y-70620452D01*
X165780404Y-72841880D02*
X165780404Y-71841880D01*
X165208976Y-72841880D01*
X165208976Y-71841880D01*
X164589928Y-72841880D02*
X164685166Y-72794261D01*
X164732785Y-72746642D01*
X164780404Y-72651404D01*
X164780404Y-72365690D01*
X164732785Y-72270452D01*
X164685166Y-72222833D01*
X164589928Y-72175214D01*
X164447071Y-72175214D01*
X164351833Y-72222833D01*
X164304214Y-72270452D01*
X164256595Y-72365690D01*
X164256595Y-72651404D01*
X164304214Y-72746642D01*
X164351833Y-72794261D01*
X164447071Y-72841880D01*
X164589928Y-72841880D01*
X163066119Y-72175214D02*
X163066119Y-73175214D01*
X163066119Y-72222833D02*
X162970880Y-72175214D01*
X162780404Y-72175214D01*
X162685166Y-72222833D01*
X162637547Y-72270452D01*
X162589928Y-72365690D01*
X162589928Y-72651404D01*
X162637547Y-72746642D01*
X162685166Y-72794261D01*
X162780404Y-72841880D01*
X162970880Y-72841880D01*
X163066119Y-72794261D01*
X161732785Y-72841880D02*
X161732785Y-72318071D01*
X161780404Y-72222833D01*
X161875642Y-72175214D01*
X162066119Y-72175214D01*
X162161357Y-72222833D01*
X161732785Y-72794261D02*
X161828023Y-72841880D01*
X162066119Y-72841880D01*
X162161357Y-72794261D01*
X162208976Y-72699023D01*
X162208976Y-72603785D01*
X162161357Y-72508547D01*
X162066119Y-72460928D01*
X161828023Y-72460928D01*
X161732785Y-72413309D01*
X161256595Y-72841880D02*
X161256595Y-72175214D01*
X161256595Y-72365690D02*
X161208976Y-72270452D01*
X161161357Y-72222833D01*
X161066119Y-72175214D01*
X160970880Y-72175214D01*
X160637547Y-72841880D02*
X160637547Y-72175214D01*
X160637547Y-71841880D02*
X160685166Y-71889500D01*
X160637547Y-71937119D01*
X160589928Y-71889500D01*
X160637547Y-71841880D01*
X160637547Y-71937119D01*
X160304214Y-72175214D02*
X159923261Y-72175214D01*
X160161357Y-71841880D02*
X160161357Y-72699023D01*
X160113738Y-72794261D01*
X160018500Y-72841880D01*
X159923261Y-72841880D01*
X159685166Y-72175214D02*
X159447071Y-72841880D01*
X159208976Y-72175214D02*
X159447071Y-72841880D01*
X159542309Y-73079976D01*
X159589928Y-73127595D01*
X159685166Y-73175214D01*
X165256595Y-74491880D02*
X165828023Y-74491880D01*
X165542309Y-74491880D02*
X165542309Y-73491880D01*
X165637547Y-73634738D01*
X165732785Y-73729976D01*
X165828023Y-73777595D01*
X164113738Y-74444261D02*
X164018500Y-74491880D01*
X163828023Y-74491880D01*
X163732785Y-74444261D01*
X163685166Y-74349023D01*
X163685166Y-74301404D01*
X163732785Y-74206166D01*
X163828023Y-74158547D01*
X163970880Y-74158547D01*
X164066119Y-74110928D01*
X164113738Y-74015690D01*
X164113738Y-73968071D01*
X164066119Y-73872833D01*
X163970880Y-73825214D01*
X163828023Y-73825214D01*
X163732785Y-73872833D01*
X163399452Y-73825214D02*
X163018500Y-73825214D01*
X163256595Y-73491880D02*
X163256595Y-74349023D01*
X163208976Y-74444261D01*
X163113738Y-74491880D01*
X163018500Y-74491880D01*
X162542309Y-74491880D02*
X162637547Y-74444261D01*
X162685166Y-74396642D01*
X162732785Y-74301404D01*
X162732785Y-74015690D01*
X162685166Y-73920452D01*
X162637547Y-73872833D01*
X162542309Y-73825214D01*
X162399452Y-73825214D01*
X162304214Y-73872833D01*
X162256595Y-73920452D01*
X162208976Y-74015690D01*
X162208976Y-74301404D01*
X162256595Y-74396642D01*
X162304214Y-74444261D01*
X162399452Y-74491880D01*
X162542309Y-74491880D01*
X161780404Y-73825214D02*
X161780404Y-74825214D01*
X161780404Y-73872833D02*
X161685166Y-73825214D01*
X161494690Y-73825214D01*
X161399452Y-73872833D01*
X161351833Y-73920452D01*
X161304214Y-74015690D01*
X161304214Y-74301404D01*
X161351833Y-74396642D01*
X161399452Y-74444261D01*
X161494690Y-74491880D01*
X161685166Y-74491880D01*
X161780404Y-74444261D01*
X160113738Y-74491880D02*
X160113738Y-73491880D01*
X160113738Y-73872833D02*
X160018500Y-73825214D01*
X159828023Y-73825214D01*
X159732785Y-73872833D01*
X159685166Y-73920452D01*
X159637547Y-74015690D01*
X159637547Y-74301404D01*
X159685166Y-74396642D01*
X159732785Y-74444261D01*
X159828023Y-74491880D01*
X160018500Y-74491880D01*
X160113738Y-74444261D01*
X159208976Y-74491880D02*
X159208976Y-73825214D01*
X159208976Y-73491880D02*
X159256595Y-73539500D01*
X159208976Y-73587119D01*
X159161357Y-73539500D01*
X159208976Y-73491880D01*
X159208976Y-73587119D01*
X158875642Y-73825214D02*
X158494690Y-73825214D01*
X158732785Y-73491880D02*
X158732785Y-74349023D01*
X158685166Y-74444261D01*
X158589928Y-74491880D01*
X158494690Y-74491880D01*
X165780404Y-76141880D02*
X165780404Y-75141880D01*
X165208976Y-76141880D01*
X165208976Y-75141880D01*
X164589928Y-76141880D02*
X164685166Y-76094261D01*
X164732785Y-76046642D01*
X164780404Y-75951404D01*
X164780404Y-75665690D01*
X164732785Y-75570452D01*
X164685166Y-75522833D01*
X164589928Y-75475214D01*
X164447071Y-75475214D01*
X164351833Y-75522833D01*
X164304214Y-75570452D01*
X164256595Y-75665690D01*
X164256595Y-75951404D01*
X164304214Y-76046642D01*
X164351833Y-76094261D01*
X164447071Y-76141880D01*
X164589928Y-76141880D01*
X163208976Y-75475214D02*
X162828023Y-75475214D01*
X163066119Y-76141880D02*
X163066119Y-75284738D01*
X163018500Y-75189500D01*
X162923261Y-75141880D01*
X162828023Y-75141880D01*
X162351833Y-76141880D02*
X162447071Y-76094261D01*
X162494690Y-75999023D01*
X162494690Y-75141880D01*
X161828023Y-76141880D02*
X161923261Y-76094261D01*
X161970880Y-76046642D01*
X162018500Y-75951404D01*
X162018500Y-75665690D01*
X161970880Y-75570452D01*
X161923261Y-75522833D01*
X161828023Y-75475214D01*
X161685166Y-75475214D01*
X161589928Y-75522833D01*
X161542309Y-75570452D01*
X161494690Y-75665690D01*
X161494690Y-75951404D01*
X161542309Y-76046642D01*
X161589928Y-76094261D01*
X161685166Y-76141880D01*
X161828023Y-76141880D01*
X161161357Y-75475214D02*
X160970880Y-76141880D01*
X160780404Y-75665690D01*
X160589928Y-76141880D01*
X160399452Y-75475214D01*
X158828023Y-76094261D02*
X158923261Y-76141880D01*
X159113738Y-76141880D01*
X159208976Y-76094261D01*
X159256595Y-76046642D01*
X159304214Y-75951404D01*
X159304214Y-75665690D01*
X159256595Y-75570452D01*
X159208976Y-75522833D01*
X159113738Y-75475214D01*
X158923261Y-75475214D01*
X158828023Y-75522833D01*
X158256595Y-76141880D02*
X158351833Y-76094261D01*
X158399452Y-76046642D01*
X158447071Y-75951404D01*
X158447071Y-75665690D01*
X158399452Y-75570452D01*
X158351833Y-75522833D01*
X158256595Y-75475214D01*
X158113738Y-75475214D01*
X158018500Y-75522833D01*
X157970880Y-75570452D01*
X157923261Y-75665690D01*
X157923261Y-75951404D01*
X157970880Y-76046642D01*
X158018500Y-76094261D01*
X158113738Y-76141880D01*
X158256595Y-76141880D01*
X157494690Y-75475214D02*
X157494690Y-76141880D01*
X157494690Y-75570452D02*
X157447071Y-75522833D01*
X157351833Y-75475214D01*
X157208976Y-75475214D01*
X157113738Y-75522833D01*
X157066119Y-75618071D01*
X157066119Y-76141880D01*
X156732785Y-75475214D02*
X156351833Y-75475214D01*
X156589928Y-75141880D02*
X156589928Y-75999023D01*
X156542309Y-76094261D01*
X156447071Y-76141880D01*
X156351833Y-76141880D01*
X156018500Y-76141880D02*
X156018500Y-75475214D01*
X156018500Y-75665690D02*
X155970880Y-75570452D01*
X155923261Y-75522833D01*
X155828023Y-75475214D01*
X155732785Y-75475214D01*
X155256595Y-76141880D02*
X155351833Y-76094261D01*
X155399452Y-76046642D01*
X155447071Y-75951404D01*
X155447071Y-75665690D01*
X155399452Y-75570452D01*
X155351833Y-75522833D01*
X155256595Y-75475214D01*
X155113738Y-75475214D01*
X155018500Y-75522833D01*
X154970880Y-75570452D01*
X154923261Y-75665690D01*
X154923261Y-75951404D01*
X154970880Y-76046642D01*
X155018500Y-76094261D01*
X155113738Y-76141880D01*
X155256595Y-76141880D01*
X154351833Y-76141880D02*
X154447071Y-76094261D01*
X154494690Y-75999023D01*
X154494690Y-75141880D01*
X137857976Y-129087571D02*
X137715119Y-129135190D01*
X137667500Y-129182809D01*
X137619880Y-129278047D01*
X137619880Y-129420904D01*
X137667500Y-129516142D01*
X137715119Y-129563761D01*
X137810357Y-129611380D01*
X138191309Y-129611380D01*
X138191309Y-128611380D01*
X137857976Y-128611380D01*
X137762738Y-128659000D01*
X137715119Y-128706619D01*
X137667500Y-128801857D01*
X137667500Y-128897095D01*
X137715119Y-128992333D01*
X137762738Y-129039952D01*
X137857976Y-129087571D01*
X138191309Y-129087571D01*
X137191309Y-129611380D02*
X137191309Y-128944714D01*
X137191309Y-128611380D02*
X137238928Y-128659000D01*
X137191309Y-128706619D01*
X137143690Y-128659000D01*
X137191309Y-128611380D01*
X137191309Y-128706619D01*
X136715119Y-128944714D02*
X136715119Y-129611380D01*
X136715119Y-129039952D02*
X136667500Y-128992333D01*
X136572261Y-128944714D01*
X136429404Y-128944714D01*
X136334166Y-128992333D01*
X136286547Y-129087571D01*
X136286547Y-129611380D01*
X135381785Y-129611380D02*
X135381785Y-129087571D01*
X135429404Y-128992333D01*
X135524642Y-128944714D01*
X135715119Y-128944714D01*
X135810357Y-128992333D01*
X135381785Y-129563761D02*
X135477023Y-129611380D01*
X135715119Y-129611380D01*
X135810357Y-129563761D01*
X135857976Y-129468523D01*
X135857976Y-129373285D01*
X135810357Y-129278047D01*
X135715119Y-129230428D01*
X135477023Y-129230428D01*
X135381785Y-129182809D01*
X134905595Y-129611380D02*
X134905595Y-128944714D01*
X134905595Y-129135190D02*
X134857976Y-129039952D01*
X134810357Y-128992333D01*
X134715119Y-128944714D01*
X134619880Y-128944714D01*
X134381785Y-128944714D02*
X134143690Y-129611380D01*
X133905595Y-128944714D02*
X134143690Y-129611380D01*
X134238928Y-129849476D01*
X134286547Y-129897095D01*
X134381785Y-129944714D01*
X132191309Y-129516142D02*
X132238928Y-129563761D01*
X132381785Y-129611380D01*
X132477023Y-129611380D01*
X132619880Y-129563761D01*
X132715119Y-129468523D01*
X132762738Y-129373285D01*
X132810357Y-129182809D01*
X132810357Y-129039952D01*
X132762738Y-128849476D01*
X132715119Y-128754238D01*
X132619880Y-128659000D01*
X132477023Y-128611380D01*
X132381785Y-128611380D01*
X132238928Y-128659000D01*
X132191309Y-128706619D01*
X131619880Y-129611380D02*
X131715119Y-129563761D01*
X131762738Y-129468523D01*
X131762738Y-128611380D01*
X131096071Y-129611380D02*
X131191309Y-129563761D01*
X131238928Y-129516142D01*
X131286547Y-129420904D01*
X131286547Y-129135190D01*
X131238928Y-129039952D01*
X131191309Y-128992333D01*
X131096071Y-128944714D01*
X130953214Y-128944714D01*
X130857976Y-128992333D01*
X130810357Y-129039952D01*
X130762738Y-129135190D01*
X130762738Y-129420904D01*
X130810357Y-129516142D01*
X130857976Y-129563761D01*
X130953214Y-129611380D01*
X131096071Y-129611380D01*
X129905595Y-129563761D02*
X130000833Y-129611380D01*
X130191309Y-129611380D01*
X130286547Y-129563761D01*
X130334166Y-129516142D01*
X130381785Y-129420904D01*
X130381785Y-129135190D01*
X130334166Y-129039952D01*
X130286547Y-128992333D01*
X130191309Y-128944714D01*
X130000833Y-128944714D01*
X129905595Y-128992333D01*
X129477023Y-129611380D02*
X129477023Y-128611380D01*
X129381785Y-129230428D02*
X129096071Y-129611380D01*
X129096071Y-128944714D02*
X129477023Y-129325666D01*
X97964476Y-63158690D02*
X97964476Y-63634880D01*
X98297809Y-62634880D02*
X97964476Y-63158690D01*
X97631142Y-62634880D01*
X96916857Y-63587261D02*
X97012095Y-63634880D01*
X97202571Y-63634880D01*
X97297809Y-63587261D01*
X97345428Y-63492023D01*
X97345428Y-63111071D01*
X97297809Y-63015833D01*
X97202571Y-62968214D01*
X97012095Y-62968214D01*
X96916857Y-63015833D01*
X96869238Y-63111071D01*
X96869238Y-63206309D01*
X97345428Y-63301547D01*
X96012095Y-63634880D02*
X96012095Y-63111071D01*
X96059714Y-63015833D01*
X96154952Y-62968214D01*
X96345428Y-62968214D01*
X96440666Y-63015833D01*
X96012095Y-63587261D02*
X96107333Y-63634880D01*
X96345428Y-63634880D01*
X96440666Y-63587261D01*
X96488285Y-63492023D01*
X96488285Y-63396785D01*
X96440666Y-63301547D01*
X96345428Y-63253928D01*
X96107333Y-63253928D01*
X96012095Y-63206309D01*
X95535904Y-63634880D02*
X95535904Y-62968214D01*
X95535904Y-63158690D02*
X95488285Y-63063452D01*
X95440666Y-63015833D01*
X95345428Y-62968214D01*
X95250190Y-62968214D01*
X113188571Y-63634880D02*
X113188571Y-62634880D01*
X112950476Y-62634880D01*
X112807619Y-62682500D01*
X112712380Y-62777738D01*
X112664761Y-62872976D01*
X112617142Y-63063452D01*
X112617142Y-63206309D01*
X112664761Y-63396785D01*
X112712380Y-63492023D01*
X112807619Y-63587261D01*
X112950476Y-63634880D01*
X113188571Y-63634880D01*
X111760000Y-63634880D02*
X111760000Y-63111071D01*
X111807619Y-63015833D01*
X111902857Y-62968214D01*
X112093333Y-62968214D01*
X112188571Y-63015833D01*
X111760000Y-63587261D02*
X111855238Y-63634880D01*
X112093333Y-63634880D01*
X112188571Y-63587261D01*
X112236190Y-63492023D01*
X112236190Y-63396785D01*
X112188571Y-63301547D01*
X112093333Y-63253928D01*
X111855238Y-63253928D01*
X111760000Y-63206309D01*
X111426666Y-62968214D02*
X111045714Y-62968214D01*
X111283809Y-62634880D02*
X111283809Y-63492023D01*
X111236190Y-63587261D01*
X111140952Y-63634880D01*
X111045714Y-63634880D01*
X110331428Y-63587261D02*
X110426666Y-63634880D01*
X110617142Y-63634880D01*
X110712380Y-63587261D01*
X110760000Y-63492023D01*
X110760000Y-63111071D01*
X110712380Y-63015833D01*
X110617142Y-62968214D01*
X110426666Y-62968214D01*
X110331428Y-63015833D01*
X110283809Y-63111071D01*
X110283809Y-63206309D01*
X110760000Y-63301547D01*
X130246190Y-63698380D02*
X130246190Y-62698380D01*
X129912857Y-63412666D01*
X129579523Y-62698380D01*
X129579523Y-63698380D01*
X128960476Y-63698380D02*
X129055714Y-63650761D01*
X129103333Y-63603142D01*
X129150952Y-63507904D01*
X129150952Y-63222190D01*
X129103333Y-63126952D01*
X129055714Y-63079333D01*
X128960476Y-63031714D01*
X128817619Y-63031714D01*
X128722380Y-63079333D01*
X128674761Y-63126952D01*
X128627142Y-63222190D01*
X128627142Y-63507904D01*
X128674761Y-63603142D01*
X128722380Y-63650761D01*
X128817619Y-63698380D01*
X128960476Y-63698380D01*
X128198571Y-63031714D02*
X128198571Y-63698380D01*
X128198571Y-63126952D02*
X128150952Y-63079333D01*
X128055714Y-63031714D01*
X127912857Y-63031714D01*
X127817619Y-63079333D01*
X127770000Y-63174571D01*
X127770000Y-63698380D01*
X127436666Y-63031714D02*
X127055714Y-63031714D01*
X127293809Y-62698380D02*
X127293809Y-63555523D01*
X127246190Y-63650761D01*
X127150952Y-63698380D01*
X127055714Y-63698380D01*
X126722380Y-63698380D02*
X126722380Y-62698380D01*
X126293809Y-63698380D02*
X126293809Y-63174571D01*
X126341428Y-63079333D01*
X126436666Y-63031714D01*
X126579523Y-63031714D01*
X126674761Y-63079333D01*
X126722380Y-63126952D01*
X144478238Y-63698380D02*
X144478238Y-62698380D01*
X144240142Y-62698380D01*
X144097285Y-62746000D01*
X144002047Y-62841238D01*
X143954428Y-62936476D01*
X143906809Y-63126952D01*
X143906809Y-63269809D01*
X143954428Y-63460285D01*
X144002047Y-63555523D01*
X144097285Y-63650761D01*
X144240142Y-63698380D01*
X144478238Y-63698380D01*
X143049666Y-63698380D02*
X143049666Y-63174571D01*
X143097285Y-63079333D01*
X143192523Y-63031714D01*
X143383000Y-63031714D01*
X143478238Y-63079333D01*
X143049666Y-63650761D02*
X143144904Y-63698380D01*
X143383000Y-63698380D01*
X143478238Y-63650761D01*
X143525857Y-63555523D01*
X143525857Y-63460285D01*
X143478238Y-63365047D01*
X143383000Y-63317428D01*
X143144904Y-63317428D01*
X143049666Y-63269809D01*
X142668714Y-63031714D02*
X142430619Y-63698380D01*
X142192523Y-63031714D02*
X142430619Y-63698380D01*
X142525857Y-63936476D01*
X142573476Y-63984095D01*
X142668714Y-64031714D01*
D12*
X153094023Y-54768523D02*
X153094023Y-50768523D01*
X151570214Y-50768523D01*
X151189261Y-50959000D01*
X150998785Y-51149476D01*
X150808309Y-51530428D01*
X150808309Y-52101857D01*
X150998785Y-52482809D01*
X151189261Y-52673285D01*
X151570214Y-52863761D01*
X153094023Y-52863761D01*
X149094023Y-54768523D02*
X149094023Y-52101857D01*
X149094023Y-52863761D02*
X148903547Y-52482809D01*
X148713071Y-52292333D01*
X148332119Y-52101857D01*
X147951166Y-52101857D01*
X146617833Y-54768523D02*
X146617833Y-52101857D01*
X146617833Y-50768523D02*
X146808309Y-50959000D01*
X146617833Y-51149476D01*
X146427357Y-50959000D01*
X146617833Y-50768523D01*
X146617833Y-51149476D01*
X144713071Y-52101857D02*
X144713071Y-54768523D01*
X144713071Y-52482809D02*
X144522595Y-52292333D01*
X144141642Y-52101857D01*
X143570214Y-52101857D01*
X143189261Y-52292333D01*
X142998785Y-52673285D01*
X142998785Y-54768523D01*
X141665452Y-52101857D02*
X140141642Y-52101857D01*
X141094023Y-50768523D02*
X141094023Y-54197095D01*
X140903547Y-54578047D01*
X140522595Y-54768523D01*
X140141642Y-54768523D01*
X137284500Y-54578047D02*
X137665452Y-54768523D01*
X138427357Y-54768523D01*
X138808309Y-54578047D01*
X138998785Y-54197095D01*
X138998785Y-52673285D01*
X138808309Y-52292333D01*
X138427357Y-52101857D01*
X137665452Y-52101857D01*
X137284500Y-52292333D01*
X137094023Y-52673285D01*
X137094023Y-53054238D01*
X138998785Y-53435190D01*
X133665452Y-54768523D02*
X133665452Y-50768523D01*
X133665452Y-54578047D02*
X134046404Y-54768523D01*
X134808309Y-54768523D01*
X135189261Y-54578047D01*
X135379738Y-54387571D01*
X135570214Y-54006619D01*
X135570214Y-52863761D01*
X135379738Y-52482809D01*
X135189261Y-52292333D01*
X134808309Y-52101857D01*
X134046404Y-52101857D01*
X133665452Y-52292333D01*
X126427357Y-54387571D02*
X126617833Y-54578047D01*
X127189261Y-54768523D01*
X127570214Y-54768523D01*
X128141642Y-54578047D01*
X128522595Y-54197095D01*
X128713071Y-53816142D01*
X128903547Y-53054238D01*
X128903547Y-52482809D01*
X128713071Y-51720904D01*
X128522595Y-51339952D01*
X128141642Y-50959000D01*
X127570214Y-50768523D01*
X127189261Y-50768523D01*
X126617833Y-50959000D01*
X126427357Y-51149476D01*
X124713071Y-54768523D02*
X124713071Y-52101857D01*
X124713071Y-50768523D02*
X124903547Y-50959000D01*
X124713071Y-51149476D01*
X124522595Y-50959000D01*
X124713071Y-50768523D01*
X124713071Y-51149476D01*
X122808309Y-54768523D02*
X122808309Y-52101857D01*
X122808309Y-52863761D02*
X122617833Y-52482809D01*
X122427357Y-52292333D01*
X122046404Y-52101857D01*
X121665452Y-52101857D01*
X118617833Y-54578047D02*
X118998785Y-54768523D01*
X119760690Y-54768523D01*
X120141642Y-54578047D01*
X120332119Y-54387571D01*
X120522595Y-54006619D01*
X120522595Y-52863761D01*
X120332119Y-52482809D01*
X120141642Y-52292333D01*
X119760690Y-52101857D01*
X118998785Y-52101857D01*
X118617833Y-52292333D01*
X115189261Y-52101857D02*
X115189261Y-54768523D01*
X116903547Y-52101857D02*
X116903547Y-54197095D01*
X116713071Y-54578047D01*
X116332119Y-54768523D01*
X115760690Y-54768523D01*
X115379738Y-54578047D01*
X115189261Y-54387571D01*
X113284500Y-54768523D02*
X113284500Y-52101857D01*
X113284500Y-50768523D02*
X113474976Y-50959000D01*
X113284500Y-51149476D01*
X113094023Y-50959000D01*
X113284500Y-50768523D01*
X113284500Y-51149476D01*
X111951166Y-52101857D02*
X110427357Y-52101857D01*
X111379738Y-50768523D02*
X111379738Y-54197095D01*
X111189261Y-54578047D01*
X110808309Y-54768523D01*
X110427357Y-54768523D01*
X103760690Y-54387571D02*
X103951166Y-54578047D01*
X104522595Y-54768523D01*
X104903547Y-54768523D01*
X105474976Y-54578047D01*
X105855928Y-54197095D01*
X106046404Y-53816142D01*
X106236880Y-53054238D01*
X106236880Y-52482809D01*
X106046404Y-51720904D01*
X105855928Y-51339952D01*
X105474976Y-50959000D01*
X104903547Y-50768523D01*
X104522595Y-50768523D01*
X103951166Y-50959000D01*
X103760690Y-51149476D01*
X100332119Y-54768523D02*
X100332119Y-52673285D01*
X100522595Y-52292333D01*
X100903547Y-52101857D01*
X101665452Y-52101857D01*
X102046404Y-52292333D01*
X100332119Y-54578047D02*
X100713071Y-54768523D01*
X101665452Y-54768523D01*
X102046404Y-54578047D01*
X102236880Y-54197095D01*
X102236880Y-53816142D01*
X102046404Y-53435190D01*
X101665452Y-53244714D01*
X100713071Y-53244714D01*
X100332119Y-53054238D01*
X97855928Y-54768523D02*
X98236880Y-54578047D01*
X98427357Y-54197095D01*
X98427357Y-50768523D01*
X94808309Y-54578047D02*
X95189261Y-54768523D01*
X95951166Y-54768523D01*
X96332119Y-54578047D01*
X96522595Y-54197095D01*
X96522595Y-52673285D01*
X96332119Y-52292333D01*
X95951166Y-52101857D01*
X95189261Y-52101857D01*
X94808309Y-52292333D01*
X94617833Y-52673285D01*
X94617833Y-53054238D01*
X96522595Y-53435190D01*
X92903547Y-52101857D02*
X92903547Y-54768523D01*
X92903547Y-52482809D02*
X92713071Y-52292333D01*
X92332119Y-52101857D01*
X91760690Y-52101857D01*
X91379738Y-52292333D01*
X91189261Y-52673285D01*
X91189261Y-54768523D01*
X87570214Y-54768523D02*
X87570214Y-50768523D01*
X87570214Y-54578047D02*
X87951166Y-54768523D01*
X88713071Y-54768523D01*
X89094023Y-54578047D01*
X89284500Y-54387571D01*
X89474976Y-54006619D01*
X89474976Y-52863761D01*
X89284500Y-52482809D01*
X89094023Y-52292333D01*
X88713071Y-52101857D01*
X87951166Y-52101857D01*
X87570214Y-52292333D01*
X83951166Y-54768523D02*
X83951166Y-52673285D01*
X84141642Y-52292333D01*
X84522595Y-52101857D01*
X85284500Y-52101857D01*
X85665452Y-52292333D01*
X83951166Y-54578047D02*
X84332119Y-54768523D01*
X85284500Y-54768523D01*
X85665452Y-54578047D01*
X85855928Y-54197095D01*
X85855928Y-53816142D01*
X85665452Y-53435190D01*
X85284500Y-53244714D01*
X84332119Y-53244714D01*
X83951166Y-53054238D01*
X82046404Y-54768523D02*
X82046404Y-52101857D01*
X82046404Y-52863761D02*
X81855928Y-52482809D01*
X81665452Y-52292333D01*
X81284500Y-52101857D01*
X80903547Y-52101857D01*
D11*
X75382190Y-139390380D02*
X75382190Y-138390380D01*
X75001238Y-138390380D01*
X74906000Y-138438000D01*
X74858380Y-138485619D01*
X74810761Y-138580857D01*
X74810761Y-138723714D01*
X74858380Y-138818952D01*
X74906000Y-138866571D01*
X75001238Y-138914190D01*
X75382190Y-138914190D01*
X74239333Y-139390380D02*
X74334571Y-139342761D01*
X74382190Y-139295142D01*
X74429809Y-139199904D01*
X74429809Y-138914190D01*
X74382190Y-138818952D01*
X74334571Y-138771333D01*
X74239333Y-138723714D01*
X74096476Y-138723714D01*
X74001238Y-138771333D01*
X73953619Y-138818952D01*
X73906000Y-138914190D01*
X73906000Y-139199904D01*
X73953619Y-139295142D01*
X74001238Y-139342761D01*
X74096476Y-139390380D01*
X74239333Y-139390380D01*
X73572666Y-138723714D02*
X73382190Y-139390380D01*
X73191714Y-138914190D01*
X73001238Y-139390380D01*
X72810761Y-138723714D01*
X72048857Y-139342761D02*
X72144095Y-139390380D01*
X72334571Y-139390380D01*
X72429809Y-139342761D01*
X72477428Y-139247523D01*
X72477428Y-138866571D01*
X72429809Y-138771333D01*
X72334571Y-138723714D01*
X72144095Y-138723714D01*
X72048857Y-138771333D01*
X72001238Y-138866571D01*
X72001238Y-138961809D01*
X72477428Y-139057047D01*
X71572666Y-139390380D02*
X71572666Y-138723714D01*
X71572666Y-138914190D02*
X71525047Y-138818952D01*
X71477428Y-138771333D01*
X71382190Y-138723714D01*
X71286952Y-138723714D01*
X68389500Y-143954500D02*
X68389500Y-133921500D01*
X78422500Y-143954500D02*
X68389500Y-143954500D01*
X78422500Y-133921500D02*
X78422500Y-143954500D01*
X68389500Y-133921500D02*
X78422500Y-133921500D01*
X81534000Y-47065000D02*
X79534000Y-47065000D01*
X83534000Y-47065000D02*
X82634000Y-47065000D01*
X85459000Y-47065000D02*
G75*
G03X85459000Y-47065000I-925000J0D01*
G01*
X79459000Y-47065000D02*
G75*
G03X79459000Y-47065000I-925000J0D01*
G01*
D13*
X81709000Y-47065000D02*
G75*
G03X81709000Y-47065000I-175000J0D01*
G01*
D11*
X80859000Y-46315000D02*
G75*
G02X80784000Y-47740000I675000J-750000D01*
G01*
D14*
X95407000Y-83002500D02*
X93307000Y-83002500D01*
X95407000Y-84002500D02*
X93307000Y-84002500D01*
X95407000Y-83002500D02*
X95407000Y-84002500D01*
X95407000Y-80462500D02*
X93307000Y-80462500D01*
X95407000Y-81462500D02*
X93307000Y-81462500D01*
X95407000Y-80462500D02*
X95407000Y-81462500D01*
X95407000Y-77922500D02*
X93307000Y-77922500D01*
X95407000Y-78922500D02*
X93307000Y-78922500D01*
X95407000Y-77922500D02*
X95407000Y-78922500D01*
X95407000Y-75382500D02*
X93307000Y-75382500D01*
X95407000Y-76382500D02*
X93307000Y-76382500D01*
X95407000Y-75382500D02*
X95407000Y-76382500D01*
X95407000Y-72842500D02*
X93307000Y-72842500D01*
X95407000Y-73842500D02*
X93307000Y-73842500D01*
X95407000Y-72842500D02*
X95407000Y-73842500D01*
X95407000Y-70302500D02*
X93307000Y-70302500D01*
X95407000Y-71302500D02*
X93307000Y-71302500D01*
X95407000Y-70302500D02*
X95407000Y-71302500D01*
X95407000Y-67762500D02*
X93307000Y-67762500D01*
X95407000Y-68762500D02*
X93307000Y-68762500D01*
X95407000Y-67762500D02*
X95407000Y-68762500D01*
X140682500Y-80526000D02*
X138582500Y-80526000D01*
X140682500Y-81526000D02*
X138582500Y-81526000D01*
X140682500Y-80526000D02*
X140682500Y-81526000D01*
X140682500Y-77986000D02*
X138582500Y-77986000D01*
X140682500Y-78986000D02*
X138582500Y-78986000D01*
X140682500Y-77986000D02*
X140682500Y-78986000D01*
X140682500Y-75446000D02*
X138582500Y-75446000D01*
X140682500Y-76446000D02*
X138582500Y-76446000D01*
X140682500Y-75446000D02*
X140682500Y-76446000D01*
X140682500Y-72906000D02*
X138582500Y-72906000D01*
X140682500Y-73906000D02*
X138582500Y-73906000D01*
X140682500Y-72906000D02*
X140682500Y-73906000D01*
X140682500Y-70366000D02*
X138582500Y-70366000D01*
X140682500Y-71366000D02*
X138582500Y-71366000D01*
X140682500Y-70366000D02*
X140682500Y-71366000D01*
X140682500Y-67826000D02*
X138582500Y-67826000D01*
X140682500Y-68826000D02*
X138582500Y-68826000D01*
X140682500Y-67826000D02*
X140682500Y-68826000D01*
X110520000Y-141422500D02*
X108420000Y-141422500D01*
X110520000Y-142422500D02*
X108420000Y-142422500D01*
X110520000Y-141422500D02*
X110520000Y-142422500D01*
X110520000Y-138882500D02*
X108420000Y-138882500D01*
X110520000Y-139882500D02*
X108420000Y-139882500D01*
X110520000Y-138882500D02*
X110520000Y-139882500D01*
X110520000Y-136342500D02*
X108420000Y-136342500D01*
X110520000Y-137342500D02*
X108420000Y-137342500D01*
X110520000Y-136342500D02*
X110520000Y-137342500D01*
X110520000Y-133802500D02*
X108420000Y-133802500D01*
X110520000Y-134802500D02*
X108420000Y-134802500D01*
X110520000Y-133802500D02*
X110520000Y-134802500D01*
X110520000Y-131262500D02*
X108420000Y-131262500D01*
X110520000Y-132262500D02*
X108420000Y-132262500D01*
X110520000Y-131262500D02*
X110520000Y-132262500D01*
X110520000Y-128722500D02*
X108420000Y-128722500D01*
X110520000Y-129722500D02*
X108420000Y-129722500D01*
X110520000Y-128722500D02*
X110520000Y-129722500D01*
X110520000Y-126182500D02*
X108420000Y-126182500D01*
X110520000Y-127182500D02*
X108420000Y-127182500D01*
X110520000Y-126182500D02*
X110520000Y-127182500D01*
X110520000Y-123642500D02*
X108420000Y-123642500D01*
X110520000Y-124642500D02*
X108420000Y-124642500D01*
X110520000Y-123642500D02*
X110520000Y-124642500D01*
X110520000Y-121102500D02*
X108420000Y-121102500D01*
X110520000Y-122102500D02*
X108420000Y-122102500D01*
X110520000Y-121102500D02*
X110520000Y-122102500D01*
X110520000Y-118562500D02*
X108420000Y-118562500D01*
X110520000Y-119562500D02*
X108420000Y-119562500D01*
X110520000Y-118562500D02*
X110520000Y-119562500D01*
X110520000Y-116022500D02*
X108420000Y-116022500D01*
X110520000Y-117022500D02*
X108420000Y-117022500D01*
X110520000Y-116022500D02*
X110520000Y-117022500D01*
X110520000Y-113482500D02*
X108420000Y-113482500D01*
X110520000Y-114482500D02*
X108420000Y-114482500D01*
X110520000Y-113482500D02*
X110520000Y-114482500D01*
X110520000Y-110942500D02*
X108420000Y-110942500D01*
X110520000Y-111942500D02*
X108420000Y-111942500D01*
X110520000Y-110942500D02*
X110520000Y-111942500D01*
X110520000Y-108402500D02*
X108420000Y-108402500D01*
X110520000Y-109402500D02*
X108420000Y-109402500D01*
X110520000Y-108402500D02*
X110520000Y-109402500D01*
X110520000Y-105862500D02*
X108420000Y-105862500D01*
X110520000Y-106862500D02*
X108420000Y-106862500D01*
X110520000Y-105862500D02*
X110520000Y-106862500D01*
X110520000Y-103322500D02*
X108420000Y-103322500D01*
X110520000Y-104322500D02*
X108420000Y-104322500D01*
X110520000Y-103322500D02*
X110520000Y-104322500D01*
X110520000Y-100782500D02*
X108420000Y-100782500D01*
X110520000Y-101782500D02*
X108420000Y-101782500D01*
X110520000Y-100782500D02*
X110520000Y-101782500D01*
X110520000Y-98242500D02*
X108420000Y-98242500D01*
X110520000Y-99242500D02*
X108420000Y-99242500D01*
X110520000Y-98242500D02*
X110520000Y-99242500D01*
X110520000Y-95702500D02*
X108420000Y-95702500D01*
X110520000Y-96702500D02*
X108420000Y-96702500D01*
X110520000Y-95702500D02*
X110520000Y-96702500D01*
X110520000Y-93162500D02*
X108420000Y-93162500D01*
X110520000Y-94162500D02*
X108420000Y-94162500D01*
X110520000Y-93162500D02*
X110520000Y-94162500D01*
X110520000Y-90622500D02*
X108420000Y-90622500D01*
X110520000Y-91622500D02*
X108420000Y-91622500D01*
X110520000Y-90622500D02*
X110520000Y-91622500D01*
X110520000Y-88082500D02*
X108420000Y-88082500D01*
X110520000Y-89082500D02*
X108420000Y-89082500D01*
X110520000Y-88082500D02*
X110520000Y-89082500D01*
X110520000Y-85542500D02*
X108420000Y-85542500D01*
X110520000Y-86542500D02*
X108420000Y-86542500D01*
X110520000Y-85542500D02*
X110520000Y-86542500D01*
X110520000Y-83002500D02*
X108420000Y-83002500D01*
X110520000Y-84002500D02*
X108420000Y-84002500D01*
X110520000Y-83002500D02*
X110520000Y-84002500D01*
X110520000Y-80462500D02*
X108420000Y-80462500D01*
X110520000Y-81462500D02*
X108420000Y-81462500D01*
X110520000Y-80462500D02*
X110520000Y-81462500D01*
X110520000Y-77922500D02*
X108420000Y-77922500D01*
X110520000Y-78922500D02*
X108420000Y-78922500D01*
X110520000Y-77922500D02*
X110520000Y-78922500D01*
X110520000Y-75382500D02*
X108420000Y-75382500D01*
X110520000Y-76382500D02*
X108420000Y-76382500D01*
X110520000Y-75382500D02*
X110520000Y-76382500D01*
X110520000Y-72842500D02*
X108420000Y-72842500D01*
X110520000Y-73842500D02*
X108420000Y-73842500D01*
X110520000Y-72842500D02*
X110520000Y-73842500D01*
X110520000Y-70302500D02*
X108420000Y-70302500D01*
X110520000Y-71302500D02*
X108420000Y-71302500D01*
X110520000Y-70302500D02*
X110520000Y-71302500D01*
X110520000Y-67762500D02*
X108420000Y-67762500D01*
X110520000Y-68762500D02*
X108420000Y-68762500D01*
X110520000Y-67762500D02*
X110520000Y-68762500D01*
X125569500Y-93226000D02*
X123469500Y-93226000D01*
X125569500Y-94226000D02*
X123469500Y-94226000D01*
X125569500Y-93226000D02*
X125569500Y-94226000D01*
X125569500Y-90686000D02*
X123469500Y-90686000D01*
X125569500Y-91686000D02*
X123469500Y-91686000D01*
X125569500Y-90686000D02*
X125569500Y-91686000D01*
X125569500Y-88146000D02*
X123469500Y-88146000D01*
X125569500Y-89146000D02*
X123469500Y-89146000D01*
X125569500Y-88146000D02*
X125569500Y-89146000D01*
X125569500Y-85606000D02*
X123469500Y-85606000D01*
X125569500Y-86606000D02*
X123469500Y-86606000D01*
X125569500Y-85606000D02*
X125569500Y-86606000D01*
X125569500Y-83066000D02*
X123469500Y-83066000D01*
X125569500Y-84066000D02*
X123469500Y-84066000D01*
X125569500Y-83066000D02*
X125569500Y-84066000D01*
X125569500Y-80526000D02*
X125569500Y-81526000D01*
X125569500Y-81526000D02*
X123469500Y-81526000D01*
X125569500Y-80526000D02*
X123469500Y-80526000D01*
X125569500Y-77986000D02*
X123469500Y-77986000D01*
X125569500Y-78986000D02*
X123469500Y-78986000D01*
X125569500Y-77986000D02*
X125569500Y-78986000D01*
X125569500Y-75446000D02*
X125569500Y-76446000D01*
X125569500Y-76446000D02*
X123469500Y-76446000D01*
X125569500Y-75446000D02*
X123469500Y-75446000D01*
X125569500Y-72906000D02*
X123469500Y-72906000D01*
X125569500Y-73906000D02*
X123469500Y-73906000D01*
X125569500Y-72906000D02*
X125569500Y-73906000D01*
X125569500Y-70366000D02*
X123469500Y-70366000D01*
X125569500Y-71366000D02*
X123469500Y-71366000D01*
X125569500Y-70366000D02*
X125569500Y-71366000D01*
X125569500Y-67826000D02*
X123469500Y-67826000D01*
X125569500Y-68826000D02*
X123469500Y-68826000D01*
X125569500Y-67826000D02*
X125569500Y-68826000D01*
X167254500Y-48791500D02*
X167254500Y-56491500D01*
X168254500Y-48791500D02*
X168254500Y-56491500D01*
X168254500Y-56491500D02*
X159054500Y-56491500D01*
X159054500Y-56491500D02*
X159054500Y-48791500D01*
X159054500Y-48791500D02*
X168254500Y-48791500D01*
X70971400Y-47749400D02*
X62171400Y-47749400D01*
X62171400Y-47749400D02*
X62171400Y-56949400D01*
X76871400Y-50449400D02*
X76871400Y-47749400D01*
X76871400Y-47749400D02*
X74971400Y-47749400D01*
X62171400Y-56949400D02*
X76871400Y-56949400D01*
X76871400Y-56949400D02*
X76871400Y-54349400D01*
X127347500Y-141359000D02*
X127347500Y-142359000D01*
X127347500Y-142359000D02*
X125247500Y-142359000D01*
X127347500Y-141359000D02*
X125247500Y-141359000D01*
X127347500Y-138819000D02*
X127347500Y-139819000D01*
X127347500Y-139819000D02*
X125247500Y-139819000D01*
X127347500Y-138819000D02*
X125247500Y-138819000D01*
X127347500Y-136279000D02*
X127347500Y-137279000D01*
X127347500Y-137279000D02*
X125247500Y-137279000D01*
X127347500Y-136279000D02*
X125247500Y-136279000D01*
X137507500Y-141359000D02*
X137507500Y-142359000D01*
X137507500Y-142359000D02*
X135407500Y-142359000D01*
X137507500Y-141359000D02*
X135407500Y-141359000D01*
X137507500Y-138819000D02*
X137507500Y-139819000D01*
X137507500Y-139819000D02*
X135407500Y-139819000D01*
X137507500Y-138819000D02*
X135407500Y-138819000D01*
X137507500Y-136279000D02*
X137507500Y-137279000D01*
X137507500Y-137279000D02*
X135407500Y-137279000D01*
X137507500Y-136279000D02*
X135407500Y-136279000D01*
X147667500Y-141359000D02*
X147667500Y-142359000D01*
X147667500Y-142359000D02*
X145567500Y-142359000D01*
X147667500Y-141359000D02*
X145567500Y-141359000D01*
X147667500Y-138819000D02*
X147667500Y-139819000D01*
X147667500Y-139819000D02*
X145567500Y-139819000D01*
X147667500Y-138819000D02*
X145567500Y-138819000D01*
X147667500Y-136279000D02*
X147667500Y-137279000D01*
X147667500Y-137279000D02*
X145567500Y-137279000D01*
X147667500Y-136279000D02*
X145567500Y-136279000D01*
X122267500Y-141359000D02*
X122267500Y-142359000D01*
X122267500Y-142359000D02*
X120167500Y-142359000D01*
X122267500Y-141359000D02*
X120167500Y-141359000D01*
X122267500Y-138819000D02*
X122267500Y-139819000D01*
X122267500Y-139819000D02*
X120167500Y-139819000D01*
X122267500Y-138819000D02*
X120167500Y-138819000D01*
X122267500Y-136279000D02*
X122267500Y-137279000D01*
X122267500Y-137279000D02*
X120167500Y-137279000D01*
X122267500Y-136279000D02*
X120167500Y-136279000D01*
X122267500Y-133739000D02*
X122267500Y-134739000D01*
X122267500Y-134739000D02*
X120167500Y-134739000D01*
X122267500Y-133739000D02*
X120167500Y-133739000D01*
X132427500Y-141359000D02*
X132427500Y-142359000D01*
X132427500Y-142359000D02*
X130327500Y-142359000D01*
X132427500Y-141359000D02*
X130327500Y-141359000D01*
X132427500Y-138819000D02*
X132427500Y-139819000D01*
X132427500Y-139819000D02*
X130327500Y-139819000D01*
X132427500Y-138819000D02*
X130327500Y-138819000D01*
X132427500Y-136279000D02*
X132427500Y-137279000D01*
X132427500Y-137279000D02*
X130327500Y-137279000D01*
X132427500Y-136279000D02*
X130327500Y-136279000D01*
X132427500Y-133739000D02*
X132427500Y-134739000D01*
X132427500Y-134739000D02*
X130327500Y-134739000D01*
X132427500Y-133739000D02*
X130327500Y-133739000D01*
X142587500Y-141359000D02*
X142587500Y-142359000D01*
X142587500Y-142359000D02*
X140487500Y-142359000D01*
X142587500Y-141359000D02*
X140487500Y-141359000D01*
X142587500Y-138819000D02*
X142587500Y-139819000D01*
X142587500Y-139819000D02*
X140487500Y-139819000D01*
X142587500Y-138819000D02*
X140487500Y-138819000D01*
X142587500Y-136279000D02*
X142587500Y-137279000D01*
X142587500Y-137279000D02*
X140487500Y-137279000D01*
X142587500Y-136279000D02*
X140487500Y-136279000D01*
X142587500Y-133739000D02*
X142587500Y-134739000D01*
X142587500Y-134739000D02*
X140487500Y-134739000D01*
X142587500Y-133739000D02*
X140487500Y-133739000D01*
X95407000Y-65222500D02*
X95407000Y-66222500D01*
X95407000Y-66222500D02*
X93307000Y-66222500D01*
X95407000Y-65222500D02*
X93307000Y-65222500D01*
X140682500Y-65286000D02*
X140682500Y-66286000D01*
X140682500Y-66286000D02*
X138582500Y-66286000D01*
X140682500Y-65286000D02*
X138582500Y-65286000D01*
X110520000Y-65222500D02*
X110520000Y-66222500D01*
X110520000Y-66222500D02*
X108420000Y-66222500D01*
X110520000Y-65222500D02*
X108420000Y-65222500D01*
X125569500Y-65286000D02*
X125569500Y-66286000D01*
X125569500Y-66286000D02*
X123469500Y-66286000D01*
X125569500Y-65286000D02*
X123469500Y-65286000D01*
M02*
