M48
; DRILL file {KiCad (5.1.2)-1} date 9/1/2019 11:48:10 AM
; FORMAT={-:-/ absolute / inch / decimal}
; #@! TF.CreationDate,2019-09-01T11:48:10-05:00
; #@! TF.GenerationSoftware,Kicad,Pcbnew,(5.1.2)-1
; #@! TF.FileFunction,Plated,1,4,PTH
FMAT,2
INCH
T1C0.0079
T2C0.0300
T3C0.0394
T4C0.0433
%
G90
G05
T1
X2.7775Y-5.245
X2.8575Y-4.8675
X2.905Y-4.0725
X2.915Y-3.71
X2.9175Y-4.8675
X2.929Y-3.34
X2.935Y-2.89
X3.0025Y-2.83
X3.015Y-3.315
X3.015Y-4.0425
X3.0175Y-3.6775
X3.02Y-4.41
X3.045Y-3.8325
X3.045Y-4.1325
X3.045Y-4.1975
X3.045Y-4.5025
X3.0475Y-2.7375
X3.0475Y-3.0975
X3.0475Y-3.405
X3.0475Y-3.455
X3.0475Y-3.77
X3.075Y-4.0425
X3.0775Y-3.315
X3.0775Y-3.6775
X3.0925Y-2.4075
X3.105Y-4.66
X3.115Y-2.4475
X3.1325Y-3.7725
X3.1325Y-4.1425
X3.1325Y-4.5
X3.14Y-2.9875
X3.1425Y-2.8675
X3.1475Y-2.815
X3.15Y-3.395
X3.1525Y-4.3275
X3.155Y-3.6
X3.155Y-3.9625
X3.1675Y-3.1725
X3.1675Y-3.2325
X3.1725Y-5.42
X3.175Y-4.55
X3.1935Y-3.535
X3.1935Y-3.895
X3.1935Y-4.2675
X3.195Y-2.4125
X3.195Y-2.4375
X3.195Y-2.4625
X3.2025Y-4.565
X3.2125Y-3.12
X3.22Y-2.4125
X3.22Y-2.4375
X3.22Y-2.4625
X3.23Y-4.57
X3.2475Y-3.4925
X3.25Y-4.2275
X3.2525Y-3.8525
X3.2975Y-5.35
X3.345Y-4.2025
X3.3467Y-5.5094
X3.3467Y-5.5566
X3.3475Y-2.7425
X3.3475Y-3.835
X3.35Y-3.1075
X3.35Y-3.47
X3.3575Y-2.285
X3.36Y-5.285
X3.3773Y-5.5094
X3.3773Y-5.5566
X3.3925Y-2.605
X3.42Y-5.285
X3.4675Y-3.835
X3.47Y-3.1075
X3.47Y-3.47
X3.4725Y-2.7425
X3.4725Y-4.2025
X3.4783Y-2.485
X3.48Y-1.91
X3.5217Y-2.485
X3.5556Y-2.331
X3.5681Y-5.2673
X3.595Y-5.27
X3.621Y-5.2603
X3.623Y-2.2825
X3.6415Y-4.8275
X3.6475Y-5.255
X3.649Y-5.015
X3.6515Y-4.8673
X3.6525Y-2.2825
X3.6554Y-1.8812
X3.6554Y-1.9118
X3.6615Y-4.8998
X3.6625Y-5.44
X3.6675Y-4.9725
X3.6715Y-4.9375
X3.674Y-5.245
X3.6755Y-2.6875
X3.7026Y-1.8812
X3.7026Y-1.9118
X3.73Y-2.468
X3.73Y-5.3525
X3.7365Y-2.5875
X3.7365Y-2.7875
X3.7365Y-2.8875
X3.7365Y-2.9875
X3.7365Y-3.0875
X3.7365Y-3.1875
X3.7365Y-3.2875
X3.7415Y-5.13
X3.7665Y-2.6875
X3.777Y-1.8315
X3.805Y-3.9775
X3.805Y-4.0375
X3.8078Y-2.6051
X3.8325Y-4.8325
X3.8475Y-5.0925
X3.85Y-2.2575
X3.85Y-5.33
X3.8675Y-2.635
X3.8883Y-2.3499
X3.9025Y-2.2325
X3.9075Y-1.83
X3.9155Y-4.325
X3.9155Y-4.55
X3.9155Y-4.775
X3.9155Y-5.0
X3.9155Y-5.225
X3.9155Y-5.45
X3.925Y-1.895
X3.925Y-1.955
X3.94Y-2.42
X3.9425Y-3.8825
X3.9425Y-1.831
X3.9457Y-4.914
X3.97Y-2.835
X3.9745Y-4.325
X3.9745Y-4.55
X3.9745Y-4.775
X3.9745Y-5.0
X3.9745Y-5.225
X3.9745Y-5.45
X3.98Y-2.56
X4.0025Y-2.5875
X4.0025Y-2.6975
X4.0025Y-2.785
X4.0025Y-2.8875
X4.0025Y-2.9875
X4.0025Y-3.0875
X4.0025Y-3.1875
X4.0025Y-3.2875
X4.0475Y-4.335
X4.0525Y-4.5575
X4.075Y-4.99
X4.0875Y-1.8375
X4.0875Y-1.8625
X4.0875Y-1.8875
X4.0875Y-1.9125
X4.105Y-3.9525
X4.1125Y-1.8375
X4.1125Y-1.8625
X4.1125Y-1.8875
X4.1125Y-1.9125
X4.125Y-4.8175
X4.1315Y-4.5825
X4.1375Y-1.8375
X4.1375Y-1.8625
X4.1375Y-1.8875
X4.1375Y-1.9125
X4.1575Y-3.9975
X4.1625Y-1.8375
X4.1625Y-1.8625
X4.1625Y-1.8875
X4.1625Y-1.9125
X4.165Y-2.5275
X4.19Y-2.5275
X4.215Y-2.5275
X4.24Y-2.5275
X4.265Y-2.5275
X4.2685Y-5.5875
X4.2825Y-2.4225
X4.29Y-2.5275
X4.315Y-2.5275
X4.3227Y-2.7963
X4.3315Y-2.5875
X4.3315Y-2.6875
X4.3315Y-2.8875
X4.3315Y-2.9875
X4.3315Y-3.0875
X4.3315Y-3.1875
X4.3315Y-3.2875
X4.3315Y-3.3875
X4.3315Y-3.4875
X4.3315Y-3.5875
X4.3315Y-3.6875
X4.3315Y-3.7875
X4.3315Y-3.8875
X4.3315Y-3.9875
X4.3315Y-4.0875
X4.3315Y-4.1875
X4.3315Y-4.2875
X4.3315Y-4.3875
X4.3315Y-4.4875
X4.3315Y-4.5875
X4.3315Y-4.6875
X4.3315Y-4.7875
X4.3315Y-4.8875
X4.3315Y-4.9875
X4.3315Y-5.0875
X4.3315Y-5.1875
X4.3315Y-5.2875
X4.3315Y-5.3875
X4.3315Y-5.4875
X4.3315Y-5.5875
X4.34Y-1.81
X4.34Y-1.845
X4.34Y-1.88
X4.34Y-1.915
X4.34Y-1.95
X4.343Y-2.4675
X4.36Y-5.545
X4.375Y-1.81
X4.375Y-1.845
X4.375Y-1.88
X4.375Y-1.915
X4.375Y-1.95
X4.385Y-2.5275
X4.4Y-3.55
X4.41Y-1.81
X4.41Y-1.845
X4.41Y-1.88
X4.41Y-1.915
X4.41Y-1.95
X4.41Y-2.5275
X4.415Y-3.2025
X4.4305Y-2.986
X4.4305Y-3.045
X4.435Y-2.5275
X4.4375Y-3.3025
X4.445Y-1.81
X4.445Y-1.845
X4.445Y-1.88
X4.445Y-1.915
X4.445Y-1.95
X4.4475Y-3.2425
X4.45Y-3.635
X4.46Y-2.5275
X4.48Y-1.81
X4.48Y-1.845
X4.48Y-1.88
X4.48Y-1.915
X4.48Y-1.95
X4.485Y-2.5275
X4.4875Y-3.24
X4.51Y-2.5275
X4.515Y-1.81
X4.515Y-1.845
X4.515Y-1.88
X4.515Y-1.915
X4.515Y-1.95
X4.525Y-4.335
X4.535Y-2.5275
X4.55Y-1.81
X4.55Y-1.845
X4.55Y-1.88
X4.55Y-1.915
X4.55Y-1.95
X4.5725Y-3.2175
X4.578Y-3.5975
X4.578Y-4.0075
X4.578Y-4.4125
X4.578Y-4.8175
X4.585Y-1.81
X4.585Y-1.845
X4.585Y-1.88
X4.585Y-1.915
X4.585Y-1.95
X4.5855Y-5.2275
X4.6025Y-3.21
X4.62Y-1.81
X4.62Y-1.845
X4.62Y-1.88
X4.62Y-1.915
X4.62Y-1.95
X4.6244Y-3.0277
X4.6244Y-3.0583
X4.6325Y-3.1775
X4.637Y-3.5975
X4.637Y-4.0075
X4.637Y-4.4125
X4.637Y-4.8175
X4.6445Y-5.2275
X4.655Y-1.81
X4.655Y-1.845
X4.655Y-1.88
X4.655Y-1.915
X4.655Y-1.95
X4.6575Y-2.5525
X4.6575Y-2.6037
X4.67Y-2.7275
X4.6716Y-3.0277
X4.6716Y-3.0583
X4.69Y-1.81
X4.69Y-1.845
X4.69Y-1.88
X4.69Y-1.915
X4.69Y-1.95
X4.7087Y-2.5525
X4.7087Y-2.6037
X4.715Y-3.0075
X4.718Y-3.48
X4.718Y-3.89
X4.718Y-4.2975
X4.718Y-4.7025
X4.72Y-2.405
X4.72Y-5.21
X4.7225Y-2.15
X4.7225Y-2.175
X4.7225Y-2.2
X4.7225Y-2.225
X4.7225Y-2.28
X4.7225Y-2.305
X4.7225Y-2.33
X4.7225Y-2.355
X4.725Y-1.81
X4.725Y-1.845
X4.725Y-1.88
X4.725Y-1.915
X4.725Y-1.95
X4.7255Y-5.11
X4.7375Y-2.71
X4.7425Y-2.9125
X4.7475Y-2.15
X4.7475Y-2.175
X4.7475Y-2.2
X4.7475Y-2.225
X4.7475Y-2.28
X4.7475Y-2.305
X4.7475Y-2.33
X4.7475Y-2.355
X4.75Y-4.4875
X4.76Y-1.81
X4.76Y-1.845
X4.76Y-1.88
X4.76Y-1.915
X4.76Y-1.95
X4.7622Y-5.285
X4.7622Y-5.385
X4.7622Y-5.485
X4.7622Y-5.585
X4.7825Y-2.7075
X4.79Y-2.1325
X4.7925Y-5.6168
X4.795Y-1.81
X4.795Y-1.845
X4.795Y-1.88
X4.795Y-1.915
X4.795Y-1.95
X4.7975Y-4.491
X4.7975Y-4.576
X4.7999Y-4.4524
X4.8Y-3.69
X4.8149Y-3.0274
X4.83Y-1.81
X4.83Y-1.845
X4.83Y-1.88
X4.83Y-1.915
X4.83Y-1.95
X4.83Y-4.8925
X4.83Y-5.285
X4.8315Y-4.7765
X4.8325Y-5.385
X4.8325Y-5.485
X4.835Y-5.585
X4.8385Y-4.3875
X4.84Y-4.545
X4.844Y-4.835
X4.8475Y-4.454
X4.861Y-3.69
X4.875Y-4.561
X4.875Y-3.775
X4.8817Y-2.0126
X4.89Y-2.9525
X4.895Y-1.8025
X4.9065Y-3.7375
X4.9106Y-3.0406
X4.915Y-4.9225
X4.9201Y-3.4938
X4.9225Y-2.9275
X4.924Y-3.09
X4.924Y-3.19
X4.924Y-3.29
X4.924Y-3.39
X4.924Y-3.59
X4.9315Y-2.6987
X4.9406Y-2.7645
X4.9425Y-2.36
X4.9425Y-2.6279
X4.9425Y-3.5375
X4.95Y-2.05
X4.9622Y-5.385
X4.9622Y-5.485
X4.9622Y-5.585
X4.972Y-2.73
X4.985Y-4.8731
X4.99Y-1.83
X4.9925Y-5.6175
X5.0025Y-2.235
X5.0075Y-4.48
X5.0075Y-4.6125
X5.01Y-4.175
X5.015Y-4.8375
X5.0165Y-4.87
X5.021Y-2.5475
X5.021Y-2.6625
X5.021Y-2.79
X5.0325Y-5.485
X5.0325Y-5.585
X5.035Y-5.385
X5.0375Y-2.155
X5.04Y-2.23
X5.04Y-4.5025
X5.04Y-4.605
X5.0425Y-4.185
X5.095Y-4.4275
X5.095Y-4.4875
X5.095Y-4.6075
X5.1034Y-3.6325
X5.1075Y-4.025
X5.1225Y-2.7325
X5.1225Y-2.935
X5.125Y-3.815
X5.1255Y-2.4675
X5.1255Y-3.1425
X5.1275Y-4.6425
X5.1305Y-3.5275
X5.1605Y-3.878
X5.1622Y-5.285
X5.1622Y-5.385
X5.1622Y-5.485
X5.1622Y-5.585
X5.1845Y-2.4675
X5.1845Y-3.1425
X5.1875Y-2.935
X5.19Y-2.73
X5.1925Y-5.6175
X5.2325Y-2.53
X5.2325Y-5.285
X5.2325Y-5.385
X5.2345Y-3.752
X5.2375Y-5.485
X5.24Y-5.585
X5.2575Y-3.2075
X5.27Y-3.6375
X5.2725Y-3.7325
X5.275Y-2.7375
X5.28Y-3.941
X5.2975Y-3.59
X5.2975Y-3.6225
X5.2975Y-3.6525
X5.2975Y-3.6825
X5.2975Y-3.71
X5.3227Y-4.836
X5.3275Y-3.765
X5.33Y-3.3375
X5.34Y-3.98
X5.3544Y-3.8667
X5.3544Y-3.8973
X5.3622Y-5.385
X5.3622Y-5.485
X5.3622Y-5.585
X5.365Y-4.0275
X5.3712Y-3.5675
X5.3712Y-3.6108
X5.3712Y-3.6542
X5.3712Y-3.6975
X5.3775Y-2.98
X5.38Y-3.215
X5.3925Y-5.6168
X5.4016Y-3.8667
X5.4016Y-3.8973
X5.4038Y-3.5675
X5.4038Y-3.6108
X5.4038Y-3.6542
X5.4038Y-3.6975
X5.4125Y-2.8825
X5.425Y-3.985
X5.4325Y-5.385
X5.4325Y-5.485
X5.435Y-5.585
X5.4525Y-4.75
X5.471Y-4.796
X5.4725Y-4.5615
X5.475Y-3.3375
X5.475Y-4.6446
X5.48Y-3.6041
X5.48Y-3.6625
X5.485Y-3.9875
X5.4872Y-3.19
X5.4989Y-4.6631
X5.5075Y-3.8525
X5.5125Y-4.6865
X5.5125Y-4.805
X5.515Y-3.4134
X5.52Y-2.5875
X5.52Y-2.69
X5.52Y-2.79
X5.52Y-2.89
X5.52Y-2.99
X5.52Y-3.09
X5.52Y-3.1563
X5.55Y-3.4134
X5.5525Y-3.19
X5.5575Y-3.8459
X5.5622Y-5.285
X5.5622Y-5.385
X5.5622Y-5.485
X5.5622Y-5.585
X5.585Y-3.4134
X5.585Y-4.7
X5.5925Y-3.8459
X5.5925Y-5.6175
X5.6025Y-4.0075
X5.605Y-1.853
X5.6175Y-4.19
X5.6275Y-3.8459
X5.6275Y-3.98
X5.6288Y-4.6437
X5.6311Y-4.8051
X5.6375Y-5.285
X5.6375Y-5.385
X5.6375Y-5.585
X5.64Y-5.485
X5.6475Y-4.7175
X5.6525Y-4.6875
X5.6566Y-2.0762
X5.6566Y-2.1088
X5.6575Y-3.975
X5.6575Y-5.1
X5.67Y-1.8431
X5.67Y-2.2605
X5.67Y-2.3195
X5.6775Y-4.6675
X5.6825Y-3.645
X5.6825Y-3.685
X5.6825Y-3.71
X5.6825Y-3.735
X5.6825Y-3.76
X5.6825Y-3.785
X5.6825Y-3.81
X5.7Y-3.4367
X5.7Y-3.5233
X5.7034Y-2.0762
X5.7034Y-2.1088
X5.705Y-4.645
X5.7073Y-5.2877
X5.7075Y-3.685
X5.7075Y-3.71
X5.7075Y-3.735
X5.7075Y-3.76
X5.7075Y-3.785
X5.7075Y-3.81
X5.7175Y-3.975
X5.7175Y-5.1
X5.7325Y-3.685
X5.7325Y-3.71
X5.7325Y-3.735
X5.7325Y-3.76
X5.7325Y-3.785
X5.7325Y-3.81
X5.735Y-1.853
X5.74Y-2.84
X5.745Y-5.23
X5.7571Y-5.2542
X5.7575Y-3.685
X5.7575Y-3.71
X5.7575Y-3.735
X5.7575Y-3.76
X5.7575Y-3.785
X5.7575Y-3.81
X5.7622Y-5.385
X5.7622Y-5.485
X5.7622Y-5.585
X5.7632Y-5.2805
X5.77Y-5.31
X5.7825Y-3.685
X5.7825Y-3.71
X5.7825Y-3.735
X5.7825Y-3.76
X5.7825Y-3.785
X5.7825Y-3.81
X5.79Y-1.853
X5.7925Y-5.6175
X5.8075Y-3.685
X5.8075Y-3.71
X5.8075Y-3.735
X5.8075Y-3.76
X5.8075Y-3.785
X5.8075Y-3.81
X5.82Y-2.5275
X5.8325Y-3.685
X5.8325Y-3.71
X5.8325Y-3.735
X5.8325Y-3.76
X5.8325Y-3.785
X5.8325Y-3.81
X5.84Y-5.385
X5.84Y-5.485
X5.84Y-5.585
X5.8405Y-2.005
X5.8405Y-2.1875
X5.895Y-4.2025
X5.925Y-4.779
X5.9303Y-2.6853
X5.935Y-1.8755
X5.9655Y-2.465
X5.985Y-4.815
X5.99Y-5.2125
X6.0205Y-5.07
X6.0245Y-2.465
X6.04Y-1.8617
X6.0475Y-4.85
X6.11Y-5.0075
X6.145Y-1.9345
X6.2075Y-2.0408
X6.2075Y-2.0727
X6.245Y-4.37
X6.245Y-4.43
X6.245Y-4.545
X6.245Y-4.605
X6.2775Y-2.0095
X6.2825Y-2.135
X6.2975Y-4.6625
X6.2975Y-4.7275
X6.2975Y-5.4025
X6.2975Y-5.5275
X6.305Y-2.1605
X6.305Y-5.0075
X6.3073Y-2.0095
X6.3075Y-2.135
X6.3112Y-2.2477
X6.3325Y-2.135
X6.3375Y-2.0095
X6.385Y-5.0075
X6.535Y-3.39
T2
X6.185Y-2.5525
X6.185Y-3.9475
T3
X6.4025Y-5.115
X6.4025Y-5.215
X6.4025Y-5.315
X6.4025Y-5.415
X6.4025Y-5.515
X6.4025Y-5.615
X3.607Y-5.594
T4
X6.0053Y-5.33
X6.0053Y-5.5859
X6.1825Y-5.33
X6.1825Y-5.5859
T3
G00X2.7548Y-2.0216
M15
G01X2.7548Y-2.1004
M16
G05
G00X2.8335Y-1.876
M15
G01X2.9123Y-1.876
M16
G05
G00X2.991Y-2.0216
M15
G01X2.991Y-2.1004
M16
G05
T0
M30
