G04 #@! TF.GenerationSoftware,KiCad,Pcbnew,(5.1.2)-1*
G04 #@! TF.CreationDate,2019-09-01T11:48:08-05:00*
G04 #@! TF.ProjectId,Electronic_Calendar,456c6563-7472-46f6-9e69-635f43616c65,rev?*
G04 #@! TF.SameCoordinates,Original*
G04 #@! TF.FileFunction,Soldermask,Bot*
G04 #@! TF.FilePolarity,Negative*
%FSLAX46Y46*%
G04 Gerber Fmt 4.6, Leading zero omitted, Abs format (unit mm)*
G04 Created by KiCad (PCBNEW (5.1.2)-1) date 2019-09-01 11:48:08*
%MOMM*%
%LPD*%
G04 APERTURE LIST*
%ADD10C,0.150000*%
%ADD11C,0.100000*%
G04 APERTURE END LIST*
D10*
X148486428Y-81430761D02*
X148343571Y-81478380D01*
X148105476Y-81478380D01*
X148010238Y-81430761D01*
X147962619Y-81383142D01*
X147914999Y-81287904D01*
X147914999Y-81192666D01*
X147962619Y-81097428D01*
X148010238Y-81049809D01*
X148105476Y-81002190D01*
X148295952Y-80954571D01*
X148391190Y-80906952D01*
X148438809Y-80859333D01*
X148486428Y-80764095D01*
X148486428Y-80668857D01*
X148438809Y-80573619D01*
X148391190Y-80526000D01*
X148295952Y-80478380D01*
X148057857Y-80478380D01*
X147914999Y-80526000D01*
X147057857Y-81478380D02*
X147057857Y-80954571D01*
X147105476Y-80859333D01*
X147200714Y-80811714D01*
X147391190Y-80811714D01*
X147486428Y-80859333D01*
X147057857Y-81430761D02*
X147153095Y-81478380D01*
X147391190Y-81478380D01*
X147486428Y-81430761D01*
X147534047Y-81335523D01*
X147534047Y-81240285D01*
X147486428Y-81145047D01*
X147391190Y-81097428D01*
X147153095Y-81097428D01*
X147057857Y-81049809D01*
X146724523Y-80811714D02*
X146343571Y-80811714D01*
X146581666Y-80478380D02*
X146581666Y-81335523D01*
X146534047Y-81430761D01*
X146438809Y-81478380D01*
X146343571Y-81478380D01*
X145581666Y-80811714D02*
X145581666Y-81478380D01*
X146010238Y-80811714D02*
X146010238Y-81335523D01*
X145962619Y-81430761D01*
X145867380Y-81478380D01*
X145724523Y-81478380D01*
X145629285Y-81430761D01*
X145581666Y-81383142D01*
X145105476Y-81478380D02*
X145105476Y-80811714D01*
X145105476Y-81002190D02*
X145057857Y-80906952D01*
X145010238Y-80859333D01*
X144914999Y-80811714D01*
X144819761Y-80811714D01*
X144057857Y-81478380D02*
X144057857Y-80478380D01*
X144057857Y-81430761D02*
X144153095Y-81478380D01*
X144343571Y-81478380D01*
X144438809Y-81430761D01*
X144486428Y-81383142D01*
X144534047Y-81287904D01*
X144534047Y-81002190D01*
X144486428Y-80906952D01*
X144438809Y-80859333D01*
X144343571Y-80811714D01*
X144153095Y-80811714D01*
X144057857Y-80859333D01*
X143153095Y-81478380D02*
X143153095Y-80954571D01*
X143200714Y-80859333D01*
X143295952Y-80811714D01*
X143486428Y-80811714D01*
X143581666Y-80859333D01*
X143153095Y-81430761D02*
X143248333Y-81478380D01*
X143486428Y-81478380D01*
X143581666Y-81430761D01*
X143629285Y-81335523D01*
X143629285Y-81240285D01*
X143581666Y-81145047D01*
X143486428Y-81097428D01*
X143248333Y-81097428D01*
X143153095Y-81049809D01*
X142772142Y-80811714D02*
X142534047Y-81478380D01*
X142295952Y-80811714D02*
X142534047Y-81478380D01*
X142629285Y-81716476D01*
X142676904Y-81764095D01*
X142772142Y-81811714D01*
X147105476Y-78414571D02*
X147438809Y-78414571D01*
X147438809Y-78938380D02*
X147438809Y-77938380D01*
X146962619Y-77938380D01*
X146581666Y-78938380D02*
X146581666Y-78271714D01*
X146581666Y-78462190D02*
X146534047Y-78366952D01*
X146486428Y-78319333D01*
X146391190Y-78271714D01*
X146295952Y-78271714D01*
X145962619Y-78938380D02*
X145962619Y-78271714D01*
X145962619Y-77938380D02*
X146010238Y-77986000D01*
X145962619Y-78033619D01*
X145915000Y-77986000D01*
X145962619Y-77938380D01*
X145962619Y-78033619D01*
X145057857Y-78938380D02*
X145057857Y-77938380D01*
X145057857Y-78890761D02*
X145153095Y-78938380D01*
X145343571Y-78938380D01*
X145438809Y-78890761D01*
X145486428Y-78843142D01*
X145534047Y-78747904D01*
X145534047Y-78462190D01*
X145486428Y-78366952D01*
X145438809Y-78319333D01*
X145343571Y-78271714D01*
X145153095Y-78271714D01*
X145057857Y-78319333D01*
X144153095Y-78938380D02*
X144153095Y-78414571D01*
X144200714Y-78319333D01*
X144295952Y-78271714D01*
X144486428Y-78271714D01*
X144581666Y-78319333D01*
X144153095Y-78890761D02*
X144248333Y-78938380D01*
X144486428Y-78938380D01*
X144581666Y-78890761D01*
X144629285Y-78795523D01*
X144629285Y-78700285D01*
X144581666Y-78605047D01*
X144486428Y-78557428D01*
X144248333Y-78557428D01*
X144153095Y-78509809D01*
X143772142Y-78271714D02*
X143534047Y-78938380D01*
X143295952Y-78271714D02*
X143534047Y-78938380D01*
X143629285Y-79176476D01*
X143676904Y-79224095D01*
X143772142Y-79271714D01*
X148605476Y-75398380D02*
X148034047Y-75398380D01*
X148319761Y-76398380D02*
X148319761Y-75398380D01*
X147700714Y-76398380D02*
X147700714Y-75398380D01*
X147272142Y-76398380D02*
X147272142Y-75874571D01*
X147319761Y-75779333D01*
X147415000Y-75731714D01*
X147557857Y-75731714D01*
X147653095Y-75779333D01*
X147700714Y-75826952D01*
X146367380Y-75731714D02*
X146367380Y-76398380D01*
X146795952Y-75731714D02*
X146795952Y-76255523D01*
X146748333Y-76350761D01*
X146653095Y-76398380D01*
X146510238Y-76398380D01*
X146415000Y-76350761D01*
X146367380Y-76303142D01*
X145891190Y-76398380D02*
X145891190Y-75731714D01*
X145891190Y-75922190D02*
X145843571Y-75826952D01*
X145795952Y-75779333D01*
X145700714Y-75731714D01*
X145605476Y-75731714D01*
X145319761Y-76350761D02*
X145224523Y-76398380D01*
X145034047Y-76398380D01*
X144938809Y-76350761D01*
X144891190Y-76255523D01*
X144891190Y-76207904D01*
X144938809Y-76112666D01*
X145034047Y-76065047D01*
X145176904Y-76065047D01*
X145272142Y-76017428D01*
X145319761Y-75922190D01*
X145319761Y-75874571D01*
X145272142Y-75779333D01*
X145176904Y-75731714D01*
X145034047Y-75731714D01*
X144938809Y-75779333D01*
X144034047Y-76398380D02*
X144034047Y-75398380D01*
X144034047Y-76350761D02*
X144129285Y-76398380D01*
X144319761Y-76398380D01*
X144415000Y-76350761D01*
X144462619Y-76303142D01*
X144510238Y-76207904D01*
X144510238Y-75922190D01*
X144462619Y-75826952D01*
X144415000Y-75779333D01*
X144319761Y-75731714D01*
X144129285Y-75731714D01*
X144034047Y-75779333D01*
X143129285Y-76398380D02*
X143129285Y-75874571D01*
X143176904Y-75779333D01*
X143272142Y-75731714D01*
X143462619Y-75731714D01*
X143557857Y-75779333D01*
X143129285Y-76350761D02*
X143224523Y-76398380D01*
X143462619Y-76398380D01*
X143557857Y-76350761D01*
X143605476Y-76255523D01*
X143605476Y-76160285D01*
X143557857Y-76065047D01*
X143462619Y-76017428D01*
X143224523Y-76017428D01*
X143129285Y-75969809D01*
X142748333Y-75731714D02*
X142510238Y-76398380D01*
X142272142Y-75731714D02*
X142510238Y-76398380D01*
X142605476Y-76636476D01*
X142653095Y-76684095D01*
X142748333Y-76731714D01*
X149295952Y-72858380D02*
X149057857Y-73858380D01*
X148867380Y-73144095D01*
X148676904Y-73858380D01*
X148438809Y-72858380D01*
X147676904Y-73810761D02*
X147772142Y-73858380D01*
X147962619Y-73858380D01*
X148057857Y-73810761D01*
X148105476Y-73715523D01*
X148105476Y-73334571D01*
X148057857Y-73239333D01*
X147962619Y-73191714D01*
X147772142Y-73191714D01*
X147676904Y-73239333D01*
X147629285Y-73334571D01*
X147629285Y-73429809D01*
X148105476Y-73525047D01*
X146772142Y-73858380D02*
X146772142Y-72858380D01*
X146772142Y-73810761D02*
X146867380Y-73858380D01*
X147057857Y-73858380D01*
X147153095Y-73810761D01*
X147200714Y-73763142D01*
X147248333Y-73667904D01*
X147248333Y-73382190D01*
X147200714Y-73286952D01*
X147153095Y-73239333D01*
X147057857Y-73191714D01*
X146867380Y-73191714D01*
X146772142Y-73239333D01*
X146295952Y-73191714D02*
X146295952Y-73858380D01*
X146295952Y-73286952D02*
X146248333Y-73239333D01*
X146153095Y-73191714D01*
X146010238Y-73191714D01*
X145915000Y-73239333D01*
X145867380Y-73334571D01*
X145867380Y-73858380D01*
X145010238Y-73810761D02*
X145105476Y-73858380D01*
X145295952Y-73858380D01*
X145391190Y-73810761D01*
X145438809Y-73715523D01*
X145438809Y-73334571D01*
X145391190Y-73239333D01*
X145295952Y-73191714D01*
X145105476Y-73191714D01*
X145010238Y-73239333D01*
X144962619Y-73334571D01*
X144962619Y-73429809D01*
X145438809Y-73525047D01*
X144581666Y-73810761D02*
X144486428Y-73858380D01*
X144295952Y-73858380D01*
X144200714Y-73810761D01*
X144153095Y-73715523D01*
X144153095Y-73667904D01*
X144200714Y-73572666D01*
X144295952Y-73525047D01*
X144438809Y-73525047D01*
X144534047Y-73477428D01*
X144581666Y-73382190D01*
X144581666Y-73334571D01*
X144534047Y-73239333D01*
X144438809Y-73191714D01*
X144295952Y-73191714D01*
X144200714Y-73239333D01*
X143295952Y-73858380D02*
X143295952Y-72858380D01*
X143295952Y-73810761D02*
X143391190Y-73858380D01*
X143581666Y-73858380D01*
X143676904Y-73810761D01*
X143724523Y-73763142D01*
X143772142Y-73667904D01*
X143772142Y-73382190D01*
X143724523Y-73286952D01*
X143676904Y-73239333D01*
X143581666Y-73191714D01*
X143391190Y-73191714D01*
X143295952Y-73239333D01*
X142391190Y-73858380D02*
X142391190Y-73334571D01*
X142438809Y-73239333D01*
X142534047Y-73191714D01*
X142724523Y-73191714D01*
X142819761Y-73239333D01*
X142391190Y-73810761D02*
X142486428Y-73858380D01*
X142724523Y-73858380D01*
X142819761Y-73810761D01*
X142867380Y-73715523D01*
X142867380Y-73620285D01*
X142819761Y-73525047D01*
X142724523Y-73477428D01*
X142486428Y-73477428D01*
X142391190Y-73429809D01*
X142010238Y-73191714D02*
X141772142Y-73858380D01*
X141534047Y-73191714D02*
X141772142Y-73858380D01*
X141867380Y-74096476D01*
X141915000Y-74144095D01*
X142010238Y-74191714D01*
X148272142Y-70318380D02*
X147700714Y-70318380D01*
X147986428Y-71318380D02*
X147986428Y-70318380D01*
X146938809Y-70651714D02*
X146938809Y-71318380D01*
X147367380Y-70651714D02*
X147367380Y-71175523D01*
X147319761Y-71270761D01*
X147224523Y-71318380D01*
X147081666Y-71318380D01*
X146986428Y-71270761D01*
X146938809Y-71223142D01*
X146081666Y-71270761D02*
X146176904Y-71318380D01*
X146367380Y-71318380D01*
X146462619Y-71270761D01*
X146510238Y-71175523D01*
X146510238Y-70794571D01*
X146462619Y-70699333D01*
X146367380Y-70651714D01*
X146176904Y-70651714D01*
X146081666Y-70699333D01*
X146034047Y-70794571D01*
X146034047Y-70889809D01*
X146510238Y-70985047D01*
X145653095Y-71270761D02*
X145557857Y-71318380D01*
X145367380Y-71318380D01*
X145272142Y-71270761D01*
X145224523Y-71175523D01*
X145224523Y-71127904D01*
X145272142Y-71032666D01*
X145367380Y-70985047D01*
X145510238Y-70985047D01*
X145605476Y-70937428D01*
X145653095Y-70842190D01*
X145653095Y-70794571D01*
X145605476Y-70699333D01*
X145510238Y-70651714D01*
X145367380Y-70651714D01*
X145272142Y-70699333D01*
X144367380Y-71318380D02*
X144367380Y-70318380D01*
X144367380Y-71270761D02*
X144462619Y-71318380D01*
X144653095Y-71318380D01*
X144748333Y-71270761D01*
X144795952Y-71223142D01*
X144843571Y-71127904D01*
X144843571Y-70842190D01*
X144795952Y-70746952D01*
X144748333Y-70699333D01*
X144653095Y-70651714D01*
X144462619Y-70651714D01*
X144367380Y-70699333D01*
X143462619Y-71318380D02*
X143462619Y-70794571D01*
X143510238Y-70699333D01*
X143605476Y-70651714D01*
X143795952Y-70651714D01*
X143891190Y-70699333D01*
X143462619Y-71270761D02*
X143557857Y-71318380D01*
X143795952Y-71318380D01*
X143891190Y-71270761D01*
X143938809Y-71175523D01*
X143938809Y-71080285D01*
X143891190Y-70985047D01*
X143795952Y-70937428D01*
X143557857Y-70937428D01*
X143462619Y-70889809D01*
X143081666Y-70651714D02*
X142843571Y-71318380D01*
X142605476Y-70651714D02*
X142843571Y-71318380D01*
X142938809Y-71556476D01*
X142986428Y-71604095D01*
X143081666Y-71651714D01*
X147938809Y-68778380D02*
X147938809Y-67778380D01*
X147605476Y-68492666D01*
X147272142Y-67778380D01*
X147272142Y-68778380D01*
X146653095Y-68778380D02*
X146748333Y-68730761D01*
X146795952Y-68683142D01*
X146843571Y-68587904D01*
X146843571Y-68302190D01*
X146795952Y-68206952D01*
X146748333Y-68159333D01*
X146653095Y-68111714D01*
X146510238Y-68111714D01*
X146414999Y-68159333D01*
X146367380Y-68206952D01*
X146319761Y-68302190D01*
X146319761Y-68587904D01*
X146367380Y-68683142D01*
X146414999Y-68730761D01*
X146510238Y-68778380D01*
X146653095Y-68778380D01*
X145891190Y-68111714D02*
X145891190Y-68778380D01*
X145891190Y-68206952D02*
X145843571Y-68159333D01*
X145748333Y-68111714D01*
X145605476Y-68111714D01*
X145510238Y-68159333D01*
X145462619Y-68254571D01*
X145462619Y-68778380D01*
X144557857Y-68778380D02*
X144557857Y-67778380D01*
X144557857Y-68730761D02*
X144653095Y-68778380D01*
X144843571Y-68778380D01*
X144938809Y-68730761D01*
X144986428Y-68683142D01*
X145034047Y-68587904D01*
X145034047Y-68302190D01*
X144986428Y-68206952D01*
X144938809Y-68159333D01*
X144843571Y-68111714D01*
X144653095Y-68111714D01*
X144557857Y-68159333D01*
X143653095Y-68778380D02*
X143653095Y-68254571D01*
X143700714Y-68159333D01*
X143795952Y-68111714D01*
X143986428Y-68111714D01*
X144081666Y-68159333D01*
X143653095Y-68730761D02*
X143748333Y-68778380D01*
X143986428Y-68778380D01*
X144081666Y-68730761D01*
X144129285Y-68635523D01*
X144129285Y-68540285D01*
X144081666Y-68445047D01*
X143986428Y-68397428D01*
X143748333Y-68397428D01*
X143653095Y-68349809D01*
X143272142Y-68111714D02*
X143034047Y-68778380D01*
X142795952Y-68111714D02*
X143034047Y-68778380D01*
X143129285Y-69016476D01*
X143176904Y-69064095D01*
X143272142Y-69111714D01*
X147891190Y-66190761D02*
X147748333Y-66238380D01*
X147510238Y-66238380D01*
X147415000Y-66190761D01*
X147367380Y-66143142D01*
X147319761Y-66047904D01*
X147319761Y-65952666D01*
X147367380Y-65857428D01*
X147415000Y-65809809D01*
X147510238Y-65762190D01*
X147700714Y-65714571D01*
X147795952Y-65666952D01*
X147843571Y-65619333D01*
X147891190Y-65524095D01*
X147891190Y-65428857D01*
X147843571Y-65333619D01*
X147795952Y-65286000D01*
X147700714Y-65238380D01*
X147462619Y-65238380D01*
X147319761Y-65286000D01*
X146462619Y-65571714D02*
X146462619Y-66238380D01*
X146891190Y-65571714D02*
X146891190Y-66095523D01*
X146843571Y-66190761D01*
X146748333Y-66238380D01*
X146605476Y-66238380D01*
X146510238Y-66190761D01*
X146462619Y-66143142D01*
X145986428Y-65571714D02*
X145986428Y-66238380D01*
X145986428Y-65666952D02*
X145938809Y-65619333D01*
X145843571Y-65571714D01*
X145700714Y-65571714D01*
X145605476Y-65619333D01*
X145557857Y-65714571D01*
X145557857Y-66238380D01*
X144653095Y-66238380D02*
X144653095Y-65238380D01*
X144653095Y-66190761D02*
X144748333Y-66238380D01*
X144938809Y-66238380D01*
X145034047Y-66190761D01*
X145081666Y-66143142D01*
X145129285Y-66047904D01*
X145129285Y-65762190D01*
X145081666Y-65666952D01*
X145034047Y-65619333D01*
X144938809Y-65571714D01*
X144748333Y-65571714D01*
X144653095Y-65619333D01*
X143748333Y-66238380D02*
X143748333Y-65714571D01*
X143795952Y-65619333D01*
X143891190Y-65571714D01*
X144081666Y-65571714D01*
X144176904Y-65619333D01*
X143748333Y-66190761D02*
X143843571Y-66238380D01*
X144081666Y-66238380D01*
X144176904Y-66190761D01*
X144224523Y-66095523D01*
X144224523Y-66000285D01*
X144176904Y-65905047D01*
X144081666Y-65857428D01*
X143843571Y-65857428D01*
X143748333Y-65809809D01*
X143367380Y-65571714D02*
X143129285Y-66238380D01*
X142891190Y-65571714D02*
X143129285Y-66238380D01*
X143224523Y-66476476D01*
X143272142Y-66524095D01*
X143367380Y-66571714D01*
X133706761Y-94178380D02*
X133706761Y-93178380D01*
X133468666Y-93178380D01*
X133325809Y-93226000D01*
X133230571Y-93321238D01*
X133182952Y-93416476D01*
X133135333Y-93606952D01*
X133135333Y-93749809D01*
X133182952Y-93940285D01*
X133230571Y-94035523D01*
X133325809Y-94130761D01*
X133468666Y-94178380D01*
X133706761Y-94178380D01*
X132325809Y-94130761D02*
X132421047Y-94178380D01*
X132611523Y-94178380D01*
X132706761Y-94130761D01*
X132754380Y-94035523D01*
X132754380Y-93654571D01*
X132706761Y-93559333D01*
X132611523Y-93511714D01*
X132421047Y-93511714D01*
X132325809Y-93559333D01*
X132278190Y-93654571D01*
X132278190Y-93749809D01*
X132754380Y-93845047D01*
X131421047Y-94130761D02*
X131516285Y-94178380D01*
X131706761Y-94178380D01*
X131802000Y-94130761D01*
X131849619Y-94083142D01*
X131897238Y-93987904D01*
X131897238Y-93702190D01*
X131849619Y-93606952D01*
X131802000Y-93559333D01*
X131706761Y-93511714D01*
X131516285Y-93511714D01*
X131421047Y-93559333D01*
X130611523Y-94130761D02*
X130706761Y-94178380D01*
X130897238Y-94178380D01*
X130992476Y-94130761D01*
X131040095Y-94035523D01*
X131040095Y-93654571D01*
X130992476Y-93559333D01*
X130897238Y-93511714D01*
X130706761Y-93511714D01*
X130611523Y-93559333D01*
X130563904Y-93654571D01*
X130563904Y-93749809D01*
X131040095Y-93845047D01*
X130135333Y-94178380D02*
X130135333Y-93511714D01*
X130135333Y-93606952D02*
X130087714Y-93559333D01*
X129992476Y-93511714D01*
X129849619Y-93511714D01*
X129754380Y-93559333D01*
X129706761Y-93654571D01*
X129706761Y-94178380D01*
X129706761Y-93654571D02*
X129659142Y-93559333D01*
X129563904Y-93511714D01*
X129421047Y-93511714D01*
X129325809Y-93559333D01*
X129278190Y-93654571D01*
X129278190Y-94178380D01*
X128802000Y-94178380D02*
X128802000Y-93178380D01*
X128802000Y-93559333D02*
X128706761Y-93511714D01*
X128516285Y-93511714D01*
X128421047Y-93559333D01*
X128373428Y-93606952D01*
X128325809Y-93702190D01*
X128325809Y-93987904D01*
X128373428Y-94083142D01*
X128421047Y-94130761D01*
X128516285Y-94178380D01*
X128706761Y-94178380D01*
X128802000Y-94130761D01*
X127516285Y-94130761D02*
X127611523Y-94178380D01*
X127802000Y-94178380D01*
X127897238Y-94130761D01*
X127944857Y-94035523D01*
X127944857Y-93654571D01*
X127897238Y-93559333D01*
X127802000Y-93511714D01*
X127611523Y-93511714D01*
X127516285Y-93559333D01*
X127468666Y-93654571D01*
X127468666Y-93749809D01*
X127944857Y-93845047D01*
X127040095Y-94178380D02*
X127040095Y-93511714D01*
X127040095Y-93702190D02*
X126992476Y-93606952D01*
X126944857Y-93559333D01*
X126849619Y-93511714D01*
X126754380Y-93511714D01*
X133706761Y-91638380D02*
X133706761Y-90638380D01*
X133135333Y-91638380D01*
X133135333Y-90638380D01*
X132516285Y-91638380D02*
X132611523Y-91590761D01*
X132659142Y-91543142D01*
X132706761Y-91447904D01*
X132706761Y-91162190D01*
X132659142Y-91066952D01*
X132611523Y-91019333D01*
X132516285Y-90971714D01*
X132373428Y-90971714D01*
X132278190Y-91019333D01*
X132230571Y-91066952D01*
X132182952Y-91162190D01*
X132182952Y-91447904D01*
X132230571Y-91543142D01*
X132278190Y-91590761D01*
X132373428Y-91638380D01*
X132516285Y-91638380D01*
X131849619Y-90971714D02*
X131611523Y-91638380D01*
X131373428Y-90971714D01*
X130611523Y-91590761D02*
X130706761Y-91638380D01*
X130897238Y-91638380D01*
X130992476Y-91590761D01*
X131040095Y-91495523D01*
X131040095Y-91114571D01*
X130992476Y-91019333D01*
X130897238Y-90971714D01*
X130706761Y-90971714D01*
X130611523Y-91019333D01*
X130563904Y-91114571D01*
X130563904Y-91209809D01*
X131040095Y-91305047D01*
X130135333Y-91638380D02*
X130135333Y-90971714D01*
X130135333Y-91066952D02*
X130087714Y-91019333D01*
X129992476Y-90971714D01*
X129849619Y-90971714D01*
X129754380Y-91019333D01*
X129706761Y-91114571D01*
X129706761Y-91638380D01*
X129706761Y-91114571D02*
X129659142Y-91019333D01*
X129563904Y-90971714D01*
X129421047Y-90971714D01*
X129325809Y-91019333D01*
X129278190Y-91114571D01*
X129278190Y-91638380D01*
X128802000Y-91638380D02*
X128802000Y-90638380D01*
X128802000Y-91019333D02*
X128706761Y-90971714D01*
X128516285Y-90971714D01*
X128421047Y-91019333D01*
X128373428Y-91066952D01*
X128325809Y-91162190D01*
X128325809Y-91447904D01*
X128373428Y-91543142D01*
X128421047Y-91590761D01*
X128516285Y-91638380D01*
X128706761Y-91638380D01*
X128802000Y-91590761D01*
X127516285Y-91590761D02*
X127611523Y-91638380D01*
X127802000Y-91638380D01*
X127897238Y-91590761D01*
X127944857Y-91495523D01*
X127944857Y-91114571D01*
X127897238Y-91019333D01*
X127802000Y-90971714D01*
X127611523Y-90971714D01*
X127516285Y-91019333D01*
X127468666Y-91114571D01*
X127468666Y-91209809D01*
X127944857Y-91305047D01*
X127040095Y-91638380D02*
X127040095Y-90971714D01*
X127040095Y-91162190D02*
X126992476Y-91066952D01*
X126944857Y-91019333D01*
X126849619Y-90971714D01*
X126754380Y-90971714D01*
X132754380Y-88098380D02*
X132563904Y-88098380D01*
X132468666Y-88146000D01*
X132373428Y-88241238D01*
X132325809Y-88431714D01*
X132325809Y-88765047D01*
X132373428Y-88955523D01*
X132468666Y-89050761D01*
X132563904Y-89098380D01*
X132754380Y-89098380D01*
X132849619Y-89050761D01*
X132944857Y-88955523D01*
X132992476Y-88765047D01*
X132992476Y-88431714D01*
X132944857Y-88241238D01*
X132849619Y-88146000D01*
X132754380Y-88098380D01*
X131468666Y-89050761D02*
X131563904Y-89098380D01*
X131754380Y-89098380D01*
X131849619Y-89050761D01*
X131897238Y-89003142D01*
X131944857Y-88907904D01*
X131944857Y-88622190D01*
X131897238Y-88526952D01*
X131849619Y-88479333D01*
X131754380Y-88431714D01*
X131563904Y-88431714D01*
X131468666Y-88479333D01*
X131182952Y-88431714D02*
X130801999Y-88431714D01*
X131040095Y-88098380D02*
X131040095Y-88955523D01*
X130992476Y-89050761D01*
X130897238Y-89098380D01*
X130801999Y-89098380D01*
X130325809Y-89098380D02*
X130421047Y-89050761D01*
X130468666Y-89003142D01*
X130516285Y-88907904D01*
X130516285Y-88622190D01*
X130468666Y-88526952D01*
X130421047Y-88479333D01*
X130325809Y-88431714D01*
X130182952Y-88431714D01*
X130087714Y-88479333D01*
X130040095Y-88526952D01*
X129992476Y-88622190D01*
X129992476Y-88907904D01*
X130040095Y-89003142D01*
X130087714Y-89050761D01*
X130182952Y-89098380D01*
X130325809Y-89098380D01*
X129563904Y-89098380D02*
X129563904Y-88098380D01*
X129563904Y-88479333D02*
X129468666Y-88431714D01*
X129278190Y-88431714D01*
X129182952Y-88479333D01*
X129135333Y-88526952D01*
X129087714Y-88622190D01*
X129087714Y-88907904D01*
X129135333Y-89003142D01*
X129182952Y-89050761D01*
X129278190Y-89098380D01*
X129468666Y-89098380D01*
X129563904Y-89050761D01*
X128278190Y-89050761D02*
X128373428Y-89098380D01*
X128563904Y-89098380D01*
X128659142Y-89050761D01*
X128706761Y-88955523D01*
X128706761Y-88574571D01*
X128659142Y-88479333D01*
X128563904Y-88431714D01*
X128373428Y-88431714D01*
X128278190Y-88479333D01*
X128230571Y-88574571D01*
X128230571Y-88669809D01*
X128706761Y-88765047D01*
X127802000Y-89098380D02*
X127802000Y-88431714D01*
X127802000Y-88622190D02*
X127754380Y-88526952D01*
X127706761Y-88479333D01*
X127611523Y-88431714D01*
X127516285Y-88431714D01*
X134040095Y-86510761D02*
X133897238Y-86558380D01*
X133659142Y-86558380D01*
X133563904Y-86510761D01*
X133516285Y-86463142D01*
X133468666Y-86367904D01*
X133468666Y-86272666D01*
X133516285Y-86177428D01*
X133563904Y-86129809D01*
X133659142Y-86082190D01*
X133849619Y-86034571D01*
X133944857Y-85986952D01*
X133992476Y-85939333D01*
X134040095Y-85844095D01*
X134040095Y-85748857D01*
X133992476Y-85653619D01*
X133944857Y-85606000D01*
X133849619Y-85558380D01*
X133611523Y-85558380D01*
X133468666Y-85606000D01*
X132659142Y-86510761D02*
X132754380Y-86558380D01*
X132944857Y-86558380D01*
X133040095Y-86510761D01*
X133087714Y-86415523D01*
X133087714Y-86034571D01*
X133040095Y-85939333D01*
X132944857Y-85891714D01*
X132754380Y-85891714D01*
X132659142Y-85939333D01*
X132611523Y-86034571D01*
X132611523Y-86129809D01*
X133087714Y-86225047D01*
X132182952Y-85891714D02*
X132182952Y-86891714D01*
X132182952Y-85939333D02*
X132087714Y-85891714D01*
X131897238Y-85891714D01*
X131802000Y-85939333D01*
X131754380Y-85986952D01*
X131706761Y-86082190D01*
X131706761Y-86367904D01*
X131754380Y-86463142D01*
X131802000Y-86510761D01*
X131897238Y-86558380D01*
X132087714Y-86558380D01*
X132182952Y-86510761D01*
X131421047Y-85891714D02*
X131040095Y-85891714D01*
X131278190Y-85558380D02*
X131278190Y-86415523D01*
X131230571Y-86510761D01*
X131135333Y-86558380D01*
X131040095Y-86558380D01*
X130325809Y-86510761D02*
X130421047Y-86558380D01*
X130611523Y-86558380D01*
X130706761Y-86510761D01*
X130754380Y-86415523D01*
X130754380Y-86034571D01*
X130706761Y-85939333D01*
X130611523Y-85891714D01*
X130421047Y-85891714D01*
X130325809Y-85939333D01*
X130278190Y-86034571D01*
X130278190Y-86129809D01*
X130754380Y-86225047D01*
X129849619Y-86558380D02*
X129849619Y-85891714D01*
X129849619Y-85986952D02*
X129802000Y-85939333D01*
X129706761Y-85891714D01*
X129563904Y-85891714D01*
X129468666Y-85939333D01*
X129421047Y-86034571D01*
X129421047Y-86558380D01*
X129421047Y-86034571D02*
X129373428Y-85939333D01*
X129278190Y-85891714D01*
X129135333Y-85891714D01*
X129040095Y-85939333D01*
X128992476Y-86034571D01*
X128992476Y-86558380D01*
X128516285Y-86558380D02*
X128516285Y-85558380D01*
X128516285Y-85939333D02*
X128421047Y-85891714D01*
X128230571Y-85891714D01*
X128135333Y-85939333D01*
X128087714Y-85986952D01*
X128040095Y-86082190D01*
X128040095Y-86367904D01*
X128087714Y-86463142D01*
X128135333Y-86510761D01*
X128230571Y-86558380D01*
X128421047Y-86558380D01*
X128516285Y-86510761D01*
X127230571Y-86510761D02*
X127325809Y-86558380D01*
X127516285Y-86558380D01*
X127611523Y-86510761D01*
X127659142Y-86415523D01*
X127659142Y-86034571D01*
X127611523Y-85939333D01*
X127516285Y-85891714D01*
X127325809Y-85891714D01*
X127230571Y-85939333D01*
X127182952Y-86034571D01*
X127182952Y-86129809D01*
X127659142Y-86225047D01*
X126754380Y-86558380D02*
X126754380Y-85891714D01*
X126754380Y-86082190D02*
X126706761Y-85986952D01*
X126659142Y-85939333D01*
X126563904Y-85891714D01*
X126468666Y-85891714D01*
X132587714Y-83732666D02*
X132111523Y-83732666D01*
X132682952Y-84018380D02*
X132349619Y-83018380D01*
X132016285Y-84018380D01*
X131254380Y-83351714D02*
X131254380Y-84018380D01*
X131682952Y-83351714D02*
X131682952Y-83875523D01*
X131635333Y-83970761D01*
X131540095Y-84018380D01*
X131397238Y-84018380D01*
X131302000Y-83970761D01*
X131254380Y-83923142D01*
X130349619Y-83351714D02*
X130349619Y-84161238D01*
X130397238Y-84256476D01*
X130444857Y-84304095D01*
X130540095Y-84351714D01*
X130682952Y-84351714D01*
X130778190Y-84304095D01*
X130349619Y-83970761D02*
X130444857Y-84018380D01*
X130635333Y-84018380D01*
X130730571Y-83970761D01*
X130778190Y-83923142D01*
X130825809Y-83827904D01*
X130825809Y-83542190D01*
X130778190Y-83446952D01*
X130730571Y-83399333D01*
X130635333Y-83351714D01*
X130444857Y-83351714D01*
X130349619Y-83399333D01*
X129444857Y-83351714D02*
X129444857Y-84018380D01*
X129873428Y-83351714D02*
X129873428Y-83875523D01*
X129825809Y-83970761D01*
X129730571Y-84018380D01*
X129587714Y-84018380D01*
X129492476Y-83970761D01*
X129444857Y-83923142D01*
X129016285Y-83970761D02*
X128921047Y-84018380D01*
X128730571Y-84018380D01*
X128635333Y-83970761D01*
X128587714Y-83875523D01*
X128587714Y-83827904D01*
X128635333Y-83732666D01*
X128730571Y-83685047D01*
X128873428Y-83685047D01*
X128968666Y-83637428D01*
X129016285Y-83542190D01*
X129016285Y-83494571D01*
X128968666Y-83399333D01*
X128873428Y-83351714D01*
X128730571Y-83351714D01*
X128635333Y-83399333D01*
X128302000Y-83351714D02*
X127921047Y-83351714D01*
X128159142Y-83018380D02*
X128159142Y-83875523D01*
X128111523Y-83970761D01*
X128016285Y-84018380D01*
X127921047Y-84018380D01*
X131254380Y-80478380D02*
X131254380Y-81192666D01*
X131302000Y-81335523D01*
X131397238Y-81430761D01*
X131540095Y-81478380D01*
X131635333Y-81478380D01*
X130349619Y-80811714D02*
X130349619Y-81478380D01*
X130778190Y-80811714D02*
X130778190Y-81335523D01*
X130730571Y-81430761D01*
X130635333Y-81478380D01*
X130492476Y-81478380D01*
X130397238Y-81430761D01*
X130349619Y-81383142D01*
X129730571Y-81478380D02*
X129825809Y-81430761D01*
X129873428Y-81335523D01*
X129873428Y-80478380D01*
X129444857Y-80811714D02*
X129206761Y-81478380D01*
X128968666Y-80811714D02*
X129206761Y-81478380D01*
X129302000Y-81716476D01*
X129349619Y-81764095D01*
X129444857Y-81811714D01*
X131492476Y-77938380D02*
X131492476Y-78652666D01*
X131540095Y-78795523D01*
X131635333Y-78890761D01*
X131778190Y-78938380D01*
X131873428Y-78938380D01*
X130587714Y-78271714D02*
X130587714Y-78938380D01*
X131016285Y-78271714D02*
X131016285Y-78795523D01*
X130968666Y-78890761D01*
X130873428Y-78938380D01*
X130730571Y-78938380D01*
X130635333Y-78890761D01*
X130587714Y-78843142D01*
X130111523Y-78271714D02*
X130111523Y-78938380D01*
X130111523Y-78366952D02*
X130063904Y-78319333D01*
X129968666Y-78271714D01*
X129825809Y-78271714D01*
X129730571Y-78319333D01*
X129682952Y-78414571D01*
X129682952Y-78938380D01*
X128825809Y-78890761D02*
X128921047Y-78938380D01*
X129111523Y-78938380D01*
X129206761Y-78890761D01*
X129254380Y-78795523D01*
X129254380Y-78414571D01*
X129206761Y-78319333D01*
X129111523Y-78271714D01*
X128921047Y-78271714D01*
X128825809Y-78319333D01*
X128778190Y-78414571D01*
X128778190Y-78509809D01*
X129254380Y-78605047D01*
X131468666Y-76398380D02*
X131468666Y-75398380D01*
X131135333Y-76112666D01*
X130802000Y-75398380D01*
X130802000Y-76398380D01*
X129897238Y-76398380D02*
X129897238Y-75874571D01*
X129944857Y-75779333D01*
X130040095Y-75731714D01*
X130230571Y-75731714D01*
X130325809Y-75779333D01*
X129897238Y-76350761D02*
X129992476Y-76398380D01*
X130230571Y-76398380D01*
X130325809Y-76350761D01*
X130373428Y-76255523D01*
X130373428Y-76160285D01*
X130325809Y-76065047D01*
X130230571Y-76017428D01*
X129992476Y-76017428D01*
X129897238Y-75969809D01*
X129516285Y-75731714D02*
X129278190Y-76398380D01*
X129040095Y-75731714D02*
X129278190Y-76398380D01*
X129373428Y-76636476D01*
X129421047Y-76684095D01*
X129516285Y-76731714D01*
X131802000Y-73572666D02*
X131325809Y-73572666D01*
X131897238Y-73858380D02*
X131563904Y-72858380D01*
X131230571Y-73858380D01*
X130897238Y-73191714D02*
X130897238Y-74191714D01*
X130897238Y-73239333D02*
X130802000Y-73191714D01*
X130611523Y-73191714D01*
X130516285Y-73239333D01*
X130468666Y-73286952D01*
X130421047Y-73382190D01*
X130421047Y-73667904D01*
X130468666Y-73763142D01*
X130516285Y-73810761D01*
X130611523Y-73858380D01*
X130802000Y-73858380D01*
X130897238Y-73810761D01*
X129992476Y-73858380D02*
X129992476Y-73191714D01*
X129992476Y-73382190D02*
X129944857Y-73286952D01*
X129897238Y-73239333D01*
X129802000Y-73191714D01*
X129706761Y-73191714D01*
X129373428Y-73858380D02*
X129373428Y-73191714D01*
X129373428Y-72858380D02*
X129421047Y-72906000D01*
X129373428Y-72953619D01*
X129325809Y-72906000D01*
X129373428Y-72858380D01*
X129373428Y-72953619D01*
X128754380Y-73858380D02*
X128849619Y-73810761D01*
X128897238Y-73715523D01*
X128897238Y-72858380D01*
X132278190Y-71318380D02*
X132278190Y-70318380D01*
X131944857Y-71032666D01*
X131611523Y-70318380D01*
X131611523Y-71318380D01*
X130706761Y-71318380D02*
X130706761Y-70794571D01*
X130754380Y-70699333D01*
X130849619Y-70651714D01*
X131040095Y-70651714D01*
X131135333Y-70699333D01*
X130706761Y-71270761D02*
X130802000Y-71318380D01*
X131040095Y-71318380D01*
X131135333Y-71270761D01*
X131182952Y-71175523D01*
X131182952Y-71080285D01*
X131135333Y-70985047D01*
X131040095Y-70937428D01*
X130802000Y-70937428D01*
X130706761Y-70889809D01*
X130230571Y-71318380D02*
X130230571Y-70651714D01*
X130230571Y-70842190D02*
X130182952Y-70746952D01*
X130135333Y-70699333D01*
X130040095Y-70651714D01*
X129944857Y-70651714D01*
X129182952Y-71270761D02*
X129278190Y-71318380D01*
X129468666Y-71318380D01*
X129563904Y-71270761D01*
X129611523Y-71223142D01*
X129659142Y-71127904D01*
X129659142Y-70842190D01*
X129611523Y-70746952D01*
X129563904Y-70699333D01*
X129468666Y-70651714D01*
X129278190Y-70651714D01*
X129182952Y-70699333D01*
X128754380Y-71318380D02*
X128754380Y-70318380D01*
X128325809Y-71318380D02*
X128325809Y-70794571D01*
X128373428Y-70699333D01*
X128468666Y-70651714D01*
X128611523Y-70651714D01*
X128706761Y-70699333D01*
X128754380Y-70746952D01*
X132944857Y-68254571D02*
X133278190Y-68254571D01*
X133278190Y-68778380D02*
X133278190Y-67778380D01*
X132802000Y-67778380D01*
X132040095Y-68730761D02*
X132135333Y-68778380D01*
X132325809Y-68778380D01*
X132421047Y-68730761D01*
X132468666Y-68635523D01*
X132468666Y-68254571D01*
X132421047Y-68159333D01*
X132325809Y-68111714D01*
X132135333Y-68111714D01*
X132040095Y-68159333D01*
X131992476Y-68254571D01*
X131992476Y-68349809D01*
X132468666Y-68445047D01*
X131563904Y-68778380D02*
X131563904Y-67778380D01*
X131563904Y-68159333D02*
X131468666Y-68111714D01*
X131278190Y-68111714D01*
X131182952Y-68159333D01*
X131135333Y-68206952D01*
X131087714Y-68302190D01*
X131087714Y-68587904D01*
X131135333Y-68683142D01*
X131182952Y-68730761D01*
X131278190Y-68778380D01*
X131468666Y-68778380D01*
X131563904Y-68730761D01*
X130659142Y-68778380D02*
X130659142Y-68111714D01*
X130659142Y-68302190D02*
X130611523Y-68206952D01*
X130563904Y-68159333D01*
X130468666Y-68111714D01*
X130373428Y-68111714D01*
X129611523Y-68111714D02*
X129611523Y-68778380D01*
X130040095Y-68111714D02*
X130040095Y-68635523D01*
X129992476Y-68730761D01*
X129897238Y-68778380D01*
X129754380Y-68778380D01*
X129659142Y-68730761D01*
X129611523Y-68683142D01*
X128706761Y-68778380D02*
X128706761Y-68254571D01*
X128754380Y-68159333D01*
X128849619Y-68111714D01*
X129040095Y-68111714D01*
X129135333Y-68159333D01*
X128706761Y-68730761D02*
X128802000Y-68778380D01*
X129040095Y-68778380D01*
X129135333Y-68730761D01*
X129182952Y-68635523D01*
X129182952Y-68540285D01*
X129135333Y-68445047D01*
X129040095Y-68397428D01*
X128802000Y-68397428D01*
X128706761Y-68349809D01*
X128230571Y-68778380D02*
X128230571Y-68111714D01*
X128230571Y-68302190D02*
X128182952Y-68206952D01*
X128135333Y-68159333D01*
X128040095Y-68111714D01*
X127944857Y-68111714D01*
X127706761Y-68111714D02*
X127468666Y-68778380D01*
X127230571Y-68111714D02*
X127468666Y-68778380D01*
X127563904Y-69016476D01*
X127611523Y-69064095D01*
X127706761Y-69111714D01*
X132659142Y-65238380D02*
X132659142Y-65952666D01*
X132706761Y-66095523D01*
X132802000Y-66190761D01*
X132944857Y-66238380D01*
X133040095Y-66238380D01*
X131754380Y-66238380D02*
X131754380Y-65714571D01*
X131802000Y-65619333D01*
X131897238Y-65571714D01*
X132087714Y-65571714D01*
X132182952Y-65619333D01*
X131754380Y-66190761D02*
X131849619Y-66238380D01*
X132087714Y-66238380D01*
X132182952Y-66190761D01*
X132230571Y-66095523D01*
X132230571Y-66000285D01*
X132182952Y-65905047D01*
X132087714Y-65857428D01*
X131849619Y-65857428D01*
X131754380Y-65809809D01*
X131278190Y-65571714D02*
X131278190Y-66238380D01*
X131278190Y-65666952D02*
X131230571Y-65619333D01*
X131135333Y-65571714D01*
X130992476Y-65571714D01*
X130897238Y-65619333D01*
X130849619Y-65714571D01*
X130849619Y-66238380D01*
X129944857Y-65571714D02*
X129944857Y-66238380D01*
X130373428Y-65571714D02*
X130373428Y-66095523D01*
X130325809Y-66190761D01*
X130230571Y-66238380D01*
X130087714Y-66238380D01*
X129992476Y-66190761D01*
X129944857Y-66143142D01*
X129040095Y-66238380D02*
X129040095Y-65714571D01*
X129087714Y-65619333D01*
X129182952Y-65571714D01*
X129373428Y-65571714D01*
X129468666Y-65619333D01*
X129040095Y-66190761D02*
X129135333Y-66238380D01*
X129373428Y-66238380D01*
X129468666Y-66190761D01*
X129516285Y-66095523D01*
X129516285Y-66000285D01*
X129468666Y-65905047D01*
X129373428Y-65857428D01*
X129135333Y-65857428D01*
X129040095Y-65809809D01*
X128563904Y-66238380D02*
X128563904Y-65571714D01*
X128563904Y-65762190D02*
X128516285Y-65666952D01*
X128468666Y-65619333D01*
X128373428Y-65571714D01*
X128278190Y-65571714D01*
X128040095Y-65571714D02*
X127802000Y-66238380D01*
X127563904Y-65571714D02*
X127802000Y-66238380D01*
X127897238Y-66476476D01*
X127944857Y-66524095D01*
X128040095Y-66571714D01*
X149574285Y-142311380D02*
X150145714Y-142311380D01*
X149860000Y-142311380D02*
X149860000Y-141311380D01*
X149955238Y-141454238D01*
X150050476Y-141549476D01*
X150145714Y-141597095D01*
X150145714Y-138866619D02*
X150098095Y-138819000D01*
X150002857Y-138771380D01*
X149764761Y-138771380D01*
X149669523Y-138819000D01*
X149621904Y-138866619D01*
X149574285Y-138961857D01*
X149574285Y-139057095D01*
X149621904Y-139199952D01*
X150193333Y-139771380D01*
X149574285Y-139771380D01*
X149669523Y-136564714D02*
X149669523Y-137231380D01*
X149907619Y-136183761D02*
X150145714Y-136898047D01*
X149526666Y-136898047D01*
X149955238Y-134119952D02*
X150050476Y-134072333D01*
X150098095Y-134024714D01*
X150145714Y-133929476D01*
X150145714Y-133881857D01*
X150098095Y-133786619D01*
X150050476Y-133739000D01*
X149955238Y-133691380D01*
X149764761Y-133691380D01*
X149669523Y-133739000D01*
X149621904Y-133786619D01*
X149574285Y-133881857D01*
X149574285Y-133929476D01*
X149621904Y-134024714D01*
X149669523Y-134072333D01*
X149764761Y-134119952D01*
X149955238Y-134119952D01*
X150050476Y-134167571D01*
X150098095Y-134215190D01*
X150145714Y-134310428D01*
X150145714Y-134500904D01*
X150098095Y-134596142D01*
X150050476Y-134643761D01*
X149955238Y-134691380D01*
X149764761Y-134691380D01*
X149669523Y-134643761D01*
X149621904Y-134596142D01*
X149574285Y-134500904D01*
X149574285Y-134310428D01*
X149621904Y-134215190D01*
X149669523Y-134167571D01*
X149764761Y-134119952D01*
X145732261Y-132151380D02*
X145732261Y-131151380D01*
X145732261Y-131627571D02*
X145160833Y-131627571D01*
X145160833Y-132151380D02*
X145160833Y-131151380D01*
X144541785Y-132151380D02*
X144637023Y-132103761D01*
X144684642Y-132056142D01*
X144732261Y-131960904D01*
X144732261Y-131675190D01*
X144684642Y-131579952D01*
X144637023Y-131532333D01*
X144541785Y-131484714D01*
X144398928Y-131484714D01*
X144303690Y-131532333D01*
X144256071Y-131579952D01*
X144208452Y-131675190D01*
X144208452Y-131960904D01*
X144256071Y-132056142D01*
X144303690Y-132103761D01*
X144398928Y-132151380D01*
X144541785Y-132151380D01*
X143351309Y-131484714D02*
X143351309Y-132151380D01*
X143779880Y-131484714D02*
X143779880Y-132008523D01*
X143732261Y-132103761D01*
X143637023Y-132151380D01*
X143494166Y-132151380D01*
X143398928Y-132103761D01*
X143351309Y-132056142D01*
X142875119Y-132151380D02*
X142875119Y-131484714D01*
X142875119Y-131675190D02*
X142827500Y-131579952D01*
X142779880Y-131532333D01*
X142684642Y-131484714D01*
X142589404Y-131484714D01*
X142303690Y-132103761D02*
X142208452Y-132151380D01*
X142017976Y-132151380D01*
X141922738Y-132103761D01*
X141875119Y-132008523D01*
X141875119Y-131960904D01*
X141922738Y-131865666D01*
X142017976Y-131818047D01*
X142160833Y-131818047D01*
X142256071Y-131770428D01*
X142303690Y-131675190D01*
X142303690Y-131627571D01*
X142256071Y-131532333D01*
X142160833Y-131484714D01*
X142017976Y-131484714D01*
X141922738Y-131532333D01*
X136262738Y-132151380D02*
X136262738Y-131151380D01*
X135929404Y-131865666D01*
X135596071Y-131151380D01*
X135596071Y-132151380D01*
X135119880Y-132151380D02*
X135119880Y-131484714D01*
X135119880Y-131151380D02*
X135167500Y-131199000D01*
X135119880Y-131246619D01*
X135072261Y-131199000D01*
X135119880Y-131151380D01*
X135119880Y-131246619D01*
X134643690Y-131484714D02*
X134643690Y-132151380D01*
X134643690Y-131579952D02*
X134596071Y-131532333D01*
X134500833Y-131484714D01*
X134357976Y-131484714D01*
X134262738Y-131532333D01*
X134215119Y-131627571D01*
X134215119Y-132151380D01*
X133310357Y-131484714D02*
X133310357Y-132151380D01*
X133738928Y-131484714D02*
X133738928Y-132008523D01*
X133691309Y-132103761D01*
X133596071Y-132151380D01*
X133453214Y-132151380D01*
X133357976Y-132103761D01*
X133310357Y-132056142D01*
X132977023Y-131484714D02*
X132596071Y-131484714D01*
X132834166Y-131151380D02*
X132834166Y-132008523D01*
X132786547Y-132103761D01*
X132691309Y-132151380D01*
X132596071Y-132151380D01*
X131881785Y-132103761D02*
X131977023Y-132151380D01*
X132167500Y-132151380D01*
X132262738Y-132103761D01*
X132310357Y-132008523D01*
X132310357Y-131627571D01*
X132262738Y-131532333D01*
X132167500Y-131484714D01*
X131977023Y-131484714D01*
X131881785Y-131532333D01*
X131834166Y-131627571D01*
X131834166Y-131722809D01*
X132310357Y-131818047D01*
X131453214Y-132103761D02*
X131357976Y-132151380D01*
X131167500Y-132151380D01*
X131072261Y-132103761D01*
X131024642Y-132008523D01*
X131024642Y-131960904D01*
X131072261Y-131865666D01*
X131167500Y-131818047D01*
X131310357Y-131818047D01*
X131405595Y-131770428D01*
X131453214Y-131675190D01*
X131453214Y-131627571D01*
X131405595Y-131532333D01*
X131310357Y-131484714D01*
X131167500Y-131484714D01*
X131072261Y-131532333D01*
X126412261Y-132103761D02*
X126269404Y-132151380D01*
X126031309Y-132151380D01*
X125936071Y-132103761D01*
X125888452Y-132056142D01*
X125840833Y-131960904D01*
X125840833Y-131865666D01*
X125888452Y-131770428D01*
X125936071Y-131722809D01*
X126031309Y-131675190D01*
X126221785Y-131627571D01*
X126317023Y-131579952D01*
X126364642Y-131532333D01*
X126412261Y-131437095D01*
X126412261Y-131341857D01*
X126364642Y-131246619D01*
X126317023Y-131199000D01*
X126221785Y-131151380D01*
X125983690Y-131151380D01*
X125840833Y-131199000D01*
X125031309Y-132103761D02*
X125126547Y-132151380D01*
X125317023Y-132151380D01*
X125412261Y-132103761D01*
X125459880Y-132008523D01*
X125459880Y-131627571D01*
X125412261Y-131532333D01*
X125317023Y-131484714D01*
X125126547Y-131484714D01*
X125031309Y-131532333D01*
X124983690Y-131627571D01*
X124983690Y-131722809D01*
X125459880Y-131818047D01*
X124126547Y-132103761D02*
X124221785Y-132151380D01*
X124412261Y-132151380D01*
X124507500Y-132103761D01*
X124555119Y-132056142D01*
X124602738Y-131960904D01*
X124602738Y-131675190D01*
X124555119Y-131579952D01*
X124507500Y-131532333D01*
X124412261Y-131484714D01*
X124221785Y-131484714D01*
X124126547Y-131532333D01*
X123555119Y-132151380D02*
X123650357Y-132103761D01*
X123697976Y-132056142D01*
X123745595Y-131960904D01*
X123745595Y-131675190D01*
X123697976Y-131579952D01*
X123650357Y-131532333D01*
X123555119Y-131484714D01*
X123412261Y-131484714D01*
X123317023Y-131532333D01*
X123269404Y-131579952D01*
X123221785Y-131675190D01*
X123221785Y-131960904D01*
X123269404Y-132056142D01*
X123317023Y-132103761D01*
X123412261Y-132151380D01*
X123555119Y-132151380D01*
X122793214Y-131484714D02*
X122793214Y-132151380D01*
X122793214Y-131579952D02*
X122745595Y-131532333D01*
X122650357Y-131484714D01*
X122507500Y-131484714D01*
X122412261Y-131532333D01*
X122364642Y-131627571D01*
X122364642Y-132151380D01*
X121459880Y-132151380D02*
X121459880Y-131151380D01*
X121459880Y-132103761D02*
X121555119Y-132151380D01*
X121745595Y-132151380D01*
X121840833Y-132103761D01*
X121888452Y-132056142D01*
X121936071Y-131960904D01*
X121936071Y-131675190D01*
X121888452Y-131579952D01*
X121840833Y-131532333D01*
X121745595Y-131484714D01*
X121555119Y-131484714D01*
X121459880Y-131532333D01*
X121031309Y-132103761D02*
X120936071Y-132151380D01*
X120745595Y-132151380D01*
X120650357Y-132103761D01*
X120602738Y-132008523D01*
X120602738Y-131960904D01*
X120650357Y-131865666D01*
X120745595Y-131818047D01*
X120888452Y-131818047D01*
X120983690Y-131770428D01*
X121031309Y-131675190D01*
X121031309Y-131627571D01*
X120983690Y-131532333D01*
X120888452Y-131484714D01*
X120745595Y-131484714D01*
X120650357Y-131532333D01*
X114601523Y-141374880D02*
X113982476Y-141374880D01*
X114315809Y-141755833D01*
X114172952Y-141755833D01*
X114077714Y-141803452D01*
X114030095Y-141851071D01*
X113982476Y-141946309D01*
X113982476Y-142184404D01*
X114030095Y-142279642D01*
X114077714Y-142327261D01*
X114172952Y-142374880D01*
X114458666Y-142374880D01*
X114553904Y-142327261D01*
X114601523Y-142279642D01*
X113030095Y-142374880D02*
X113601523Y-142374880D01*
X113315809Y-142374880D02*
X113315809Y-141374880D01*
X113411047Y-141517738D01*
X113506285Y-141612976D01*
X113601523Y-141660595D01*
X114601523Y-138834880D02*
X113982476Y-138834880D01*
X114315809Y-139215833D01*
X114172952Y-139215833D01*
X114077714Y-139263452D01*
X114030095Y-139311071D01*
X113982476Y-139406309D01*
X113982476Y-139644404D01*
X114030095Y-139739642D01*
X114077714Y-139787261D01*
X114172952Y-139834880D01*
X114458666Y-139834880D01*
X114553904Y-139787261D01*
X114601523Y-139739642D01*
X113363428Y-138834880D02*
X113268190Y-138834880D01*
X113172952Y-138882500D01*
X113125333Y-138930119D01*
X113077714Y-139025357D01*
X113030095Y-139215833D01*
X113030095Y-139453928D01*
X113077714Y-139644404D01*
X113125333Y-139739642D01*
X113172952Y-139787261D01*
X113268190Y-139834880D01*
X113363428Y-139834880D01*
X113458666Y-139787261D01*
X113506285Y-139739642D01*
X113553904Y-139644404D01*
X113601523Y-139453928D01*
X113601523Y-139215833D01*
X113553904Y-139025357D01*
X113506285Y-138930119D01*
X113458666Y-138882500D01*
X113363428Y-138834880D01*
X114553904Y-136390119D02*
X114506285Y-136342500D01*
X114411047Y-136294880D01*
X114172952Y-136294880D01*
X114077714Y-136342500D01*
X114030095Y-136390119D01*
X113982476Y-136485357D01*
X113982476Y-136580595D01*
X114030095Y-136723452D01*
X114601523Y-137294880D01*
X113982476Y-137294880D01*
X113506285Y-137294880D02*
X113315809Y-137294880D01*
X113220571Y-137247261D01*
X113172952Y-137199642D01*
X113077714Y-137056785D01*
X113030095Y-136866309D01*
X113030095Y-136485357D01*
X113077714Y-136390119D01*
X113125333Y-136342500D01*
X113220571Y-136294880D01*
X113411047Y-136294880D01*
X113506285Y-136342500D01*
X113553904Y-136390119D01*
X113601523Y-136485357D01*
X113601523Y-136723452D01*
X113553904Y-136818690D01*
X113506285Y-136866309D01*
X113411047Y-136913928D01*
X113220571Y-136913928D01*
X113125333Y-136866309D01*
X113077714Y-136818690D01*
X113030095Y-136723452D01*
X114553904Y-133850119D02*
X114506285Y-133802500D01*
X114411047Y-133754880D01*
X114172952Y-133754880D01*
X114077714Y-133802500D01*
X114030095Y-133850119D01*
X113982476Y-133945357D01*
X113982476Y-134040595D01*
X114030095Y-134183452D01*
X114601523Y-134754880D01*
X113982476Y-134754880D01*
X113411047Y-134183452D02*
X113506285Y-134135833D01*
X113553904Y-134088214D01*
X113601523Y-133992976D01*
X113601523Y-133945357D01*
X113553904Y-133850119D01*
X113506285Y-133802500D01*
X113411047Y-133754880D01*
X113220571Y-133754880D01*
X113125333Y-133802500D01*
X113077714Y-133850119D01*
X113030095Y-133945357D01*
X113030095Y-133992976D01*
X113077714Y-134088214D01*
X113125333Y-134135833D01*
X113220571Y-134183452D01*
X113411047Y-134183452D01*
X113506285Y-134231071D01*
X113553904Y-134278690D01*
X113601523Y-134373928D01*
X113601523Y-134564404D01*
X113553904Y-134659642D01*
X113506285Y-134707261D01*
X113411047Y-134754880D01*
X113220571Y-134754880D01*
X113125333Y-134707261D01*
X113077714Y-134659642D01*
X113030095Y-134564404D01*
X113030095Y-134373928D01*
X113077714Y-134278690D01*
X113125333Y-134231071D01*
X113220571Y-134183452D01*
X114553904Y-131310119D02*
X114506285Y-131262500D01*
X114411047Y-131214880D01*
X114172952Y-131214880D01*
X114077714Y-131262500D01*
X114030095Y-131310119D01*
X113982476Y-131405357D01*
X113982476Y-131500595D01*
X114030095Y-131643452D01*
X114601523Y-132214880D01*
X113982476Y-132214880D01*
X113649142Y-131214880D02*
X112982476Y-131214880D01*
X113411047Y-132214880D01*
X114553904Y-128770119D02*
X114506285Y-128722500D01*
X114411047Y-128674880D01*
X114172952Y-128674880D01*
X114077714Y-128722500D01*
X114030095Y-128770119D01*
X113982476Y-128865357D01*
X113982476Y-128960595D01*
X114030095Y-129103452D01*
X114601523Y-129674880D01*
X113982476Y-129674880D01*
X113125333Y-128674880D02*
X113315809Y-128674880D01*
X113411047Y-128722500D01*
X113458666Y-128770119D01*
X113553904Y-128912976D01*
X113601523Y-129103452D01*
X113601523Y-129484404D01*
X113553904Y-129579642D01*
X113506285Y-129627261D01*
X113411047Y-129674880D01*
X113220571Y-129674880D01*
X113125333Y-129627261D01*
X113077714Y-129579642D01*
X113030095Y-129484404D01*
X113030095Y-129246309D01*
X113077714Y-129151071D01*
X113125333Y-129103452D01*
X113220571Y-129055833D01*
X113411047Y-129055833D01*
X113506285Y-129103452D01*
X113553904Y-129151071D01*
X113601523Y-129246309D01*
X114553904Y-126230119D02*
X114506285Y-126182500D01*
X114411047Y-126134880D01*
X114172952Y-126134880D01*
X114077714Y-126182500D01*
X114030095Y-126230119D01*
X113982476Y-126325357D01*
X113982476Y-126420595D01*
X114030095Y-126563452D01*
X114601523Y-127134880D01*
X113982476Y-127134880D01*
X113077714Y-126134880D02*
X113553904Y-126134880D01*
X113601523Y-126611071D01*
X113553904Y-126563452D01*
X113458666Y-126515833D01*
X113220571Y-126515833D01*
X113125333Y-126563452D01*
X113077714Y-126611071D01*
X113030095Y-126706309D01*
X113030095Y-126944404D01*
X113077714Y-127039642D01*
X113125333Y-127087261D01*
X113220571Y-127134880D01*
X113458666Y-127134880D01*
X113553904Y-127087261D01*
X113601523Y-127039642D01*
X114553904Y-123690119D02*
X114506285Y-123642500D01*
X114411047Y-123594880D01*
X114172952Y-123594880D01*
X114077714Y-123642500D01*
X114030095Y-123690119D01*
X113982476Y-123785357D01*
X113982476Y-123880595D01*
X114030095Y-124023452D01*
X114601523Y-124594880D01*
X113982476Y-124594880D01*
X113125333Y-123928214D02*
X113125333Y-124594880D01*
X113363428Y-123547261D02*
X113601523Y-124261547D01*
X112982476Y-124261547D01*
X114553904Y-121150119D02*
X114506285Y-121102500D01*
X114411047Y-121054880D01*
X114172952Y-121054880D01*
X114077714Y-121102500D01*
X114030095Y-121150119D01*
X113982476Y-121245357D01*
X113982476Y-121340595D01*
X114030095Y-121483452D01*
X114601523Y-122054880D01*
X113982476Y-122054880D01*
X113649142Y-121054880D02*
X113030095Y-121054880D01*
X113363428Y-121435833D01*
X113220571Y-121435833D01*
X113125333Y-121483452D01*
X113077714Y-121531071D01*
X113030095Y-121626309D01*
X113030095Y-121864404D01*
X113077714Y-121959642D01*
X113125333Y-122007261D01*
X113220571Y-122054880D01*
X113506285Y-122054880D01*
X113601523Y-122007261D01*
X113649142Y-121959642D01*
X114553904Y-118610119D02*
X114506285Y-118562500D01*
X114411047Y-118514880D01*
X114172952Y-118514880D01*
X114077714Y-118562500D01*
X114030095Y-118610119D01*
X113982476Y-118705357D01*
X113982476Y-118800595D01*
X114030095Y-118943452D01*
X114601523Y-119514880D01*
X113982476Y-119514880D01*
X113601523Y-118610119D02*
X113553904Y-118562500D01*
X113458666Y-118514880D01*
X113220571Y-118514880D01*
X113125333Y-118562500D01*
X113077714Y-118610119D01*
X113030095Y-118705357D01*
X113030095Y-118800595D01*
X113077714Y-118943452D01*
X113649142Y-119514880D01*
X113030095Y-119514880D01*
X114553904Y-116070119D02*
X114506285Y-116022500D01*
X114411047Y-115974880D01*
X114172952Y-115974880D01*
X114077714Y-116022500D01*
X114030095Y-116070119D01*
X113982476Y-116165357D01*
X113982476Y-116260595D01*
X114030095Y-116403452D01*
X114601523Y-116974880D01*
X113982476Y-116974880D01*
X113030095Y-116974880D02*
X113601523Y-116974880D01*
X113315809Y-116974880D02*
X113315809Y-115974880D01*
X113411047Y-116117738D01*
X113506285Y-116212976D01*
X113601523Y-116260595D01*
X114553904Y-113530119D02*
X114506285Y-113482500D01*
X114411047Y-113434880D01*
X114172952Y-113434880D01*
X114077714Y-113482500D01*
X114030095Y-113530119D01*
X113982476Y-113625357D01*
X113982476Y-113720595D01*
X114030095Y-113863452D01*
X114601523Y-114434880D01*
X113982476Y-114434880D01*
X113363428Y-113434880D02*
X113268190Y-113434880D01*
X113172952Y-113482500D01*
X113125333Y-113530119D01*
X113077714Y-113625357D01*
X113030095Y-113815833D01*
X113030095Y-114053928D01*
X113077714Y-114244404D01*
X113125333Y-114339642D01*
X113172952Y-114387261D01*
X113268190Y-114434880D01*
X113363428Y-114434880D01*
X113458666Y-114387261D01*
X113506285Y-114339642D01*
X113553904Y-114244404D01*
X113601523Y-114053928D01*
X113601523Y-113815833D01*
X113553904Y-113625357D01*
X113506285Y-113530119D01*
X113458666Y-113482500D01*
X113363428Y-113434880D01*
X113982476Y-111894880D02*
X114553904Y-111894880D01*
X114268190Y-111894880D02*
X114268190Y-110894880D01*
X114363428Y-111037738D01*
X114458666Y-111132976D01*
X114553904Y-111180595D01*
X113506285Y-111894880D02*
X113315809Y-111894880D01*
X113220571Y-111847261D01*
X113172952Y-111799642D01*
X113077714Y-111656785D01*
X113030095Y-111466309D01*
X113030095Y-111085357D01*
X113077714Y-110990119D01*
X113125333Y-110942500D01*
X113220571Y-110894880D01*
X113411047Y-110894880D01*
X113506285Y-110942500D01*
X113553904Y-110990119D01*
X113601523Y-111085357D01*
X113601523Y-111323452D01*
X113553904Y-111418690D01*
X113506285Y-111466309D01*
X113411047Y-111513928D01*
X113220571Y-111513928D01*
X113125333Y-111466309D01*
X113077714Y-111418690D01*
X113030095Y-111323452D01*
X113982476Y-109354880D02*
X114553904Y-109354880D01*
X114268190Y-109354880D02*
X114268190Y-108354880D01*
X114363428Y-108497738D01*
X114458666Y-108592976D01*
X114553904Y-108640595D01*
X113411047Y-108783452D02*
X113506285Y-108735833D01*
X113553904Y-108688214D01*
X113601523Y-108592976D01*
X113601523Y-108545357D01*
X113553904Y-108450119D01*
X113506285Y-108402500D01*
X113411047Y-108354880D01*
X113220571Y-108354880D01*
X113125333Y-108402500D01*
X113077714Y-108450119D01*
X113030095Y-108545357D01*
X113030095Y-108592976D01*
X113077714Y-108688214D01*
X113125333Y-108735833D01*
X113220571Y-108783452D01*
X113411047Y-108783452D01*
X113506285Y-108831071D01*
X113553904Y-108878690D01*
X113601523Y-108973928D01*
X113601523Y-109164404D01*
X113553904Y-109259642D01*
X113506285Y-109307261D01*
X113411047Y-109354880D01*
X113220571Y-109354880D01*
X113125333Y-109307261D01*
X113077714Y-109259642D01*
X113030095Y-109164404D01*
X113030095Y-108973928D01*
X113077714Y-108878690D01*
X113125333Y-108831071D01*
X113220571Y-108783452D01*
X113982476Y-106814880D02*
X114553904Y-106814880D01*
X114268190Y-106814880D02*
X114268190Y-105814880D01*
X114363428Y-105957738D01*
X114458666Y-106052976D01*
X114553904Y-106100595D01*
X113649142Y-105814880D02*
X112982476Y-105814880D01*
X113411047Y-106814880D01*
X113982476Y-104274880D02*
X114553904Y-104274880D01*
X114268190Y-104274880D02*
X114268190Y-103274880D01*
X114363428Y-103417738D01*
X114458666Y-103512976D01*
X114553904Y-103560595D01*
X113125333Y-103274880D02*
X113315809Y-103274880D01*
X113411047Y-103322500D01*
X113458666Y-103370119D01*
X113553904Y-103512976D01*
X113601523Y-103703452D01*
X113601523Y-104084404D01*
X113553904Y-104179642D01*
X113506285Y-104227261D01*
X113411047Y-104274880D01*
X113220571Y-104274880D01*
X113125333Y-104227261D01*
X113077714Y-104179642D01*
X113030095Y-104084404D01*
X113030095Y-103846309D01*
X113077714Y-103751071D01*
X113125333Y-103703452D01*
X113220571Y-103655833D01*
X113411047Y-103655833D01*
X113506285Y-103703452D01*
X113553904Y-103751071D01*
X113601523Y-103846309D01*
X113982476Y-101734880D02*
X114553904Y-101734880D01*
X114268190Y-101734880D02*
X114268190Y-100734880D01*
X114363428Y-100877738D01*
X114458666Y-100972976D01*
X114553904Y-101020595D01*
X113077714Y-100734880D02*
X113553904Y-100734880D01*
X113601523Y-101211071D01*
X113553904Y-101163452D01*
X113458666Y-101115833D01*
X113220571Y-101115833D01*
X113125333Y-101163452D01*
X113077714Y-101211071D01*
X113030095Y-101306309D01*
X113030095Y-101544404D01*
X113077714Y-101639642D01*
X113125333Y-101687261D01*
X113220571Y-101734880D01*
X113458666Y-101734880D01*
X113553904Y-101687261D01*
X113601523Y-101639642D01*
X113982476Y-99194880D02*
X114553904Y-99194880D01*
X114268190Y-99194880D02*
X114268190Y-98194880D01*
X114363428Y-98337738D01*
X114458666Y-98432976D01*
X114553904Y-98480595D01*
X113125333Y-98528214D02*
X113125333Y-99194880D01*
X113363428Y-98147261D02*
X113601523Y-98861547D01*
X112982476Y-98861547D01*
X113982476Y-96654880D02*
X114553904Y-96654880D01*
X114268190Y-96654880D02*
X114268190Y-95654880D01*
X114363428Y-95797738D01*
X114458666Y-95892976D01*
X114553904Y-95940595D01*
X113649142Y-95654880D02*
X113030095Y-95654880D01*
X113363428Y-96035833D01*
X113220571Y-96035833D01*
X113125333Y-96083452D01*
X113077714Y-96131071D01*
X113030095Y-96226309D01*
X113030095Y-96464404D01*
X113077714Y-96559642D01*
X113125333Y-96607261D01*
X113220571Y-96654880D01*
X113506285Y-96654880D01*
X113601523Y-96607261D01*
X113649142Y-96559642D01*
X113982476Y-94114880D02*
X114553904Y-94114880D01*
X114268190Y-94114880D02*
X114268190Y-93114880D01*
X114363428Y-93257738D01*
X114458666Y-93352976D01*
X114553904Y-93400595D01*
X113601523Y-93210119D02*
X113553904Y-93162500D01*
X113458666Y-93114880D01*
X113220571Y-93114880D01*
X113125333Y-93162500D01*
X113077714Y-93210119D01*
X113030095Y-93305357D01*
X113030095Y-93400595D01*
X113077714Y-93543452D01*
X113649142Y-94114880D01*
X113030095Y-94114880D01*
X113982476Y-91574880D02*
X114553904Y-91574880D01*
X114268190Y-91574880D02*
X114268190Y-90574880D01*
X114363428Y-90717738D01*
X114458666Y-90812976D01*
X114553904Y-90860595D01*
X113030095Y-91574880D02*
X113601523Y-91574880D01*
X113315809Y-91574880D02*
X113315809Y-90574880D01*
X113411047Y-90717738D01*
X113506285Y-90812976D01*
X113601523Y-90860595D01*
X113982476Y-89034880D02*
X114553904Y-89034880D01*
X114268190Y-89034880D02*
X114268190Y-88034880D01*
X114363428Y-88177738D01*
X114458666Y-88272976D01*
X114553904Y-88320595D01*
X113363428Y-88034880D02*
X113268190Y-88034880D01*
X113172952Y-88082500D01*
X113125333Y-88130119D01*
X113077714Y-88225357D01*
X113030095Y-88415833D01*
X113030095Y-88653928D01*
X113077714Y-88844404D01*
X113125333Y-88939642D01*
X113172952Y-88987261D01*
X113268190Y-89034880D01*
X113363428Y-89034880D01*
X113458666Y-88987261D01*
X113506285Y-88939642D01*
X113553904Y-88844404D01*
X113601523Y-88653928D01*
X113601523Y-88415833D01*
X113553904Y-88225357D01*
X113506285Y-88130119D01*
X113458666Y-88082500D01*
X113363428Y-88034880D01*
X113982476Y-86494880D02*
X113792000Y-86494880D01*
X113696761Y-86447261D01*
X113649142Y-86399642D01*
X113553904Y-86256785D01*
X113506285Y-86066309D01*
X113506285Y-85685357D01*
X113553904Y-85590119D01*
X113601523Y-85542500D01*
X113696761Y-85494880D01*
X113887238Y-85494880D01*
X113982476Y-85542500D01*
X114030095Y-85590119D01*
X114077714Y-85685357D01*
X114077714Y-85923452D01*
X114030095Y-86018690D01*
X113982476Y-86066309D01*
X113887238Y-86113928D01*
X113696761Y-86113928D01*
X113601523Y-86066309D01*
X113553904Y-86018690D01*
X113506285Y-85923452D01*
X113887238Y-83383452D02*
X113982476Y-83335833D01*
X114030095Y-83288214D01*
X114077714Y-83192976D01*
X114077714Y-83145357D01*
X114030095Y-83050119D01*
X113982476Y-83002500D01*
X113887238Y-82954880D01*
X113696761Y-82954880D01*
X113601523Y-83002500D01*
X113553904Y-83050119D01*
X113506285Y-83145357D01*
X113506285Y-83192976D01*
X113553904Y-83288214D01*
X113601523Y-83335833D01*
X113696761Y-83383452D01*
X113887238Y-83383452D01*
X113982476Y-83431071D01*
X114030095Y-83478690D01*
X114077714Y-83573928D01*
X114077714Y-83764404D01*
X114030095Y-83859642D01*
X113982476Y-83907261D01*
X113887238Y-83954880D01*
X113696761Y-83954880D01*
X113601523Y-83907261D01*
X113553904Y-83859642D01*
X113506285Y-83764404D01*
X113506285Y-83573928D01*
X113553904Y-83478690D01*
X113601523Y-83431071D01*
X113696761Y-83383452D01*
X114125333Y-80414880D02*
X113458666Y-80414880D01*
X113887238Y-81414880D01*
X113601523Y-77874880D02*
X113792000Y-77874880D01*
X113887238Y-77922500D01*
X113934857Y-77970119D01*
X114030095Y-78112976D01*
X114077714Y-78303452D01*
X114077714Y-78684404D01*
X114030095Y-78779642D01*
X113982476Y-78827261D01*
X113887238Y-78874880D01*
X113696761Y-78874880D01*
X113601523Y-78827261D01*
X113553904Y-78779642D01*
X113506285Y-78684404D01*
X113506285Y-78446309D01*
X113553904Y-78351071D01*
X113601523Y-78303452D01*
X113696761Y-78255833D01*
X113887238Y-78255833D01*
X113982476Y-78303452D01*
X114030095Y-78351071D01*
X114077714Y-78446309D01*
X113553904Y-75334880D02*
X114030095Y-75334880D01*
X114077714Y-75811071D01*
X114030095Y-75763452D01*
X113934857Y-75715833D01*
X113696761Y-75715833D01*
X113601523Y-75763452D01*
X113553904Y-75811071D01*
X113506285Y-75906309D01*
X113506285Y-76144404D01*
X113553904Y-76239642D01*
X113601523Y-76287261D01*
X113696761Y-76334880D01*
X113934857Y-76334880D01*
X114030095Y-76287261D01*
X114077714Y-76239642D01*
X113601523Y-73128214D02*
X113601523Y-73794880D01*
X113839619Y-72747261D02*
X114077714Y-73461547D01*
X113458666Y-73461547D01*
X114125333Y-70254880D02*
X113506285Y-70254880D01*
X113839619Y-70635833D01*
X113696761Y-70635833D01*
X113601523Y-70683452D01*
X113553904Y-70731071D01*
X113506285Y-70826309D01*
X113506285Y-71064404D01*
X113553904Y-71159642D01*
X113601523Y-71207261D01*
X113696761Y-71254880D01*
X113982476Y-71254880D01*
X114077714Y-71207261D01*
X114125333Y-71159642D01*
X114077714Y-67810119D02*
X114030095Y-67762500D01*
X113934857Y-67714880D01*
X113696761Y-67714880D01*
X113601523Y-67762500D01*
X113553904Y-67810119D01*
X113506285Y-67905357D01*
X113506285Y-68000595D01*
X113553904Y-68143452D01*
X114125333Y-68714880D01*
X113506285Y-68714880D01*
X113506285Y-66174880D02*
X114077714Y-66174880D01*
X113792000Y-66174880D02*
X113792000Y-65174880D01*
X113887238Y-65317738D01*
X113982476Y-65412976D01*
X114077714Y-65460595D01*
X100520285Y-83050119D02*
X100472666Y-83002500D01*
X100377428Y-82954880D01*
X100139333Y-82954880D01*
X100044095Y-83002500D01*
X99996476Y-83050119D01*
X99948857Y-83145357D01*
X99948857Y-83240595D01*
X99996476Y-83383452D01*
X100567904Y-83954880D01*
X99948857Y-83954880D01*
X99329809Y-82954880D02*
X99234571Y-82954880D01*
X99139333Y-83002500D01*
X99091714Y-83050119D01*
X99044095Y-83145357D01*
X98996476Y-83335833D01*
X98996476Y-83573928D01*
X99044095Y-83764404D01*
X99091714Y-83859642D01*
X99139333Y-83907261D01*
X99234571Y-83954880D01*
X99329809Y-83954880D01*
X99425047Y-83907261D01*
X99472666Y-83859642D01*
X99520285Y-83764404D01*
X99567904Y-83573928D01*
X99567904Y-83335833D01*
X99520285Y-83145357D01*
X99472666Y-83050119D01*
X99425047Y-83002500D01*
X99329809Y-82954880D01*
X98615523Y-83050119D02*
X98567904Y-83002500D01*
X98472666Y-82954880D01*
X98234571Y-82954880D01*
X98139333Y-83002500D01*
X98091714Y-83050119D01*
X98044095Y-83145357D01*
X98044095Y-83240595D01*
X98091714Y-83383452D01*
X98663142Y-83954880D01*
X98044095Y-83954880D01*
X97186952Y-82954880D02*
X97377428Y-82954880D01*
X97472666Y-83002500D01*
X97520285Y-83050119D01*
X97615523Y-83192976D01*
X97663142Y-83383452D01*
X97663142Y-83764404D01*
X97615523Y-83859642D01*
X97567904Y-83907261D01*
X97472666Y-83954880D01*
X97282190Y-83954880D01*
X97186952Y-83907261D01*
X97139333Y-83859642D01*
X97091714Y-83764404D01*
X97091714Y-83526309D01*
X97139333Y-83431071D01*
X97186952Y-83383452D01*
X97282190Y-83335833D01*
X97472666Y-83335833D01*
X97567904Y-83383452D01*
X97615523Y-83431071D01*
X97663142Y-83526309D01*
X100520285Y-80510119D02*
X100472666Y-80462500D01*
X100377428Y-80414880D01*
X100139333Y-80414880D01*
X100044095Y-80462500D01*
X99996476Y-80510119D01*
X99948857Y-80605357D01*
X99948857Y-80700595D01*
X99996476Y-80843452D01*
X100567904Y-81414880D01*
X99948857Y-81414880D01*
X99329809Y-80414880D02*
X99234571Y-80414880D01*
X99139333Y-80462500D01*
X99091714Y-80510119D01*
X99044095Y-80605357D01*
X98996476Y-80795833D01*
X98996476Y-81033928D01*
X99044095Y-81224404D01*
X99091714Y-81319642D01*
X99139333Y-81367261D01*
X99234571Y-81414880D01*
X99329809Y-81414880D01*
X99425047Y-81367261D01*
X99472666Y-81319642D01*
X99520285Y-81224404D01*
X99567904Y-81033928D01*
X99567904Y-80795833D01*
X99520285Y-80605357D01*
X99472666Y-80510119D01*
X99425047Y-80462500D01*
X99329809Y-80414880D01*
X98615523Y-80510119D02*
X98567904Y-80462500D01*
X98472666Y-80414880D01*
X98234571Y-80414880D01*
X98139333Y-80462500D01*
X98091714Y-80510119D01*
X98044095Y-80605357D01*
X98044095Y-80700595D01*
X98091714Y-80843452D01*
X98663142Y-81414880D01*
X98044095Y-81414880D01*
X97139333Y-80414880D02*
X97615523Y-80414880D01*
X97663142Y-80891071D01*
X97615523Y-80843452D01*
X97520285Y-80795833D01*
X97282190Y-80795833D01*
X97186952Y-80843452D01*
X97139333Y-80891071D01*
X97091714Y-80986309D01*
X97091714Y-81224404D01*
X97139333Y-81319642D01*
X97186952Y-81367261D01*
X97282190Y-81414880D01*
X97520285Y-81414880D01*
X97615523Y-81367261D01*
X97663142Y-81319642D01*
X100520285Y-77970119D02*
X100472666Y-77922500D01*
X100377428Y-77874880D01*
X100139333Y-77874880D01*
X100044095Y-77922500D01*
X99996476Y-77970119D01*
X99948857Y-78065357D01*
X99948857Y-78160595D01*
X99996476Y-78303452D01*
X100567904Y-78874880D01*
X99948857Y-78874880D01*
X99329809Y-77874880D02*
X99234571Y-77874880D01*
X99139333Y-77922500D01*
X99091714Y-77970119D01*
X99044095Y-78065357D01*
X98996476Y-78255833D01*
X98996476Y-78493928D01*
X99044095Y-78684404D01*
X99091714Y-78779642D01*
X99139333Y-78827261D01*
X99234571Y-78874880D01*
X99329809Y-78874880D01*
X99425047Y-78827261D01*
X99472666Y-78779642D01*
X99520285Y-78684404D01*
X99567904Y-78493928D01*
X99567904Y-78255833D01*
X99520285Y-78065357D01*
X99472666Y-77970119D01*
X99425047Y-77922500D01*
X99329809Y-77874880D01*
X98615523Y-77970119D02*
X98567904Y-77922500D01*
X98472666Y-77874880D01*
X98234571Y-77874880D01*
X98139333Y-77922500D01*
X98091714Y-77970119D01*
X98044095Y-78065357D01*
X98044095Y-78160595D01*
X98091714Y-78303452D01*
X98663142Y-78874880D01*
X98044095Y-78874880D01*
X97186952Y-78208214D02*
X97186952Y-78874880D01*
X97425047Y-77827261D02*
X97663142Y-78541547D01*
X97044095Y-78541547D01*
X100520285Y-75430119D02*
X100472666Y-75382500D01*
X100377428Y-75334880D01*
X100139333Y-75334880D01*
X100044095Y-75382500D01*
X99996476Y-75430119D01*
X99948857Y-75525357D01*
X99948857Y-75620595D01*
X99996476Y-75763452D01*
X100567904Y-76334880D01*
X99948857Y-76334880D01*
X99329809Y-75334880D02*
X99234571Y-75334880D01*
X99139333Y-75382500D01*
X99091714Y-75430119D01*
X99044095Y-75525357D01*
X98996476Y-75715833D01*
X98996476Y-75953928D01*
X99044095Y-76144404D01*
X99091714Y-76239642D01*
X99139333Y-76287261D01*
X99234571Y-76334880D01*
X99329809Y-76334880D01*
X99425047Y-76287261D01*
X99472666Y-76239642D01*
X99520285Y-76144404D01*
X99567904Y-75953928D01*
X99567904Y-75715833D01*
X99520285Y-75525357D01*
X99472666Y-75430119D01*
X99425047Y-75382500D01*
X99329809Y-75334880D01*
X98615523Y-75430119D02*
X98567904Y-75382500D01*
X98472666Y-75334880D01*
X98234571Y-75334880D01*
X98139333Y-75382500D01*
X98091714Y-75430119D01*
X98044095Y-75525357D01*
X98044095Y-75620595D01*
X98091714Y-75763452D01*
X98663142Y-76334880D01*
X98044095Y-76334880D01*
X97710761Y-75334880D02*
X97091714Y-75334880D01*
X97425047Y-75715833D01*
X97282190Y-75715833D01*
X97186952Y-75763452D01*
X97139333Y-75811071D01*
X97091714Y-75906309D01*
X97091714Y-76144404D01*
X97139333Y-76239642D01*
X97186952Y-76287261D01*
X97282190Y-76334880D01*
X97567904Y-76334880D01*
X97663142Y-76287261D01*
X97710761Y-76239642D01*
X100520285Y-72890119D02*
X100472666Y-72842500D01*
X100377428Y-72794880D01*
X100139333Y-72794880D01*
X100044095Y-72842500D01*
X99996476Y-72890119D01*
X99948857Y-72985357D01*
X99948857Y-73080595D01*
X99996476Y-73223452D01*
X100567904Y-73794880D01*
X99948857Y-73794880D01*
X99329809Y-72794880D02*
X99234571Y-72794880D01*
X99139333Y-72842500D01*
X99091714Y-72890119D01*
X99044095Y-72985357D01*
X98996476Y-73175833D01*
X98996476Y-73413928D01*
X99044095Y-73604404D01*
X99091714Y-73699642D01*
X99139333Y-73747261D01*
X99234571Y-73794880D01*
X99329809Y-73794880D01*
X99425047Y-73747261D01*
X99472666Y-73699642D01*
X99520285Y-73604404D01*
X99567904Y-73413928D01*
X99567904Y-73175833D01*
X99520285Y-72985357D01*
X99472666Y-72890119D01*
X99425047Y-72842500D01*
X99329809Y-72794880D01*
X98615523Y-72890119D02*
X98567904Y-72842500D01*
X98472666Y-72794880D01*
X98234571Y-72794880D01*
X98139333Y-72842500D01*
X98091714Y-72890119D01*
X98044095Y-72985357D01*
X98044095Y-73080595D01*
X98091714Y-73223452D01*
X98663142Y-73794880D01*
X98044095Y-73794880D01*
X97663142Y-72890119D02*
X97615523Y-72842500D01*
X97520285Y-72794880D01*
X97282190Y-72794880D01*
X97186952Y-72842500D01*
X97139333Y-72890119D01*
X97091714Y-72985357D01*
X97091714Y-73080595D01*
X97139333Y-73223452D01*
X97710761Y-73794880D01*
X97091714Y-73794880D01*
X100520285Y-70350119D02*
X100472666Y-70302500D01*
X100377428Y-70254880D01*
X100139333Y-70254880D01*
X100044095Y-70302500D01*
X99996476Y-70350119D01*
X99948857Y-70445357D01*
X99948857Y-70540595D01*
X99996476Y-70683452D01*
X100567904Y-71254880D01*
X99948857Y-71254880D01*
X99329809Y-70254880D02*
X99234571Y-70254880D01*
X99139333Y-70302500D01*
X99091714Y-70350119D01*
X99044095Y-70445357D01*
X98996476Y-70635833D01*
X98996476Y-70873928D01*
X99044095Y-71064404D01*
X99091714Y-71159642D01*
X99139333Y-71207261D01*
X99234571Y-71254880D01*
X99329809Y-71254880D01*
X99425047Y-71207261D01*
X99472666Y-71159642D01*
X99520285Y-71064404D01*
X99567904Y-70873928D01*
X99567904Y-70635833D01*
X99520285Y-70445357D01*
X99472666Y-70350119D01*
X99425047Y-70302500D01*
X99329809Y-70254880D01*
X98615523Y-70350119D02*
X98567904Y-70302500D01*
X98472666Y-70254880D01*
X98234571Y-70254880D01*
X98139333Y-70302500D01*
X98091714Y-70350119D01*
X98044095Y-70445357D01*
X98044095Y-70540595D01*
X98091714Y-70683452D01*
X98663142Y-71254880D01*
X98044095Y-71254880D01*
X97091714Y-71254880D02*
X97663142Y-71254880D01*
X97377428Y-71254880D02*
X97377428Y-70254880D01*
X97472666Y-70397738D01*
X97567904Y-70492976D01*
X97663142Y-70540595D01*
X100520285Y-67810119D02*
X100472666Y-67762500D01*
X100377428Y-67714880D01*
X100139333Y-67714880D01*
X100044095Y-67762500D01*
X99996476Y-67810119D01*
X99948857Y-67905357D01*
X99948857Y-68000595D01*
X99996476Y-68143452D01*
X100567904Y-68714880D01*
X99948857Y-68714880D01*
X99329809Y-67714880D02*
X99234571Y-67714880D01*
X99139333Y-67762500D01*
X99091714Y-67810119D01*
X99044095Y-67905357D01*
X98996476Y-68095833D01*
X98996476Y-68333928D01*
X99044095Y-68524404D01*
X99091714Y-68619642D01*
X99139333Y-68667261D01*
X99234571Y-68714880D01*
X99329809Y-68714880D01*
X99425047Y-68667261D01*
X99472666Y-68619642D01*
X99520285Y-68524404D01*
X99567904Y-68333928D01*
X99567904Y-68095833D01*
X99520285Y-67905357D01*
X99472666Y-67810119D01*
X99425047Y-67762500D01*
X99329809Y-67714880D01*
X98615523Y-67810119D02*
X98567904Y-67762500D01*
X98472666Y-67714880D01*
X98234571Y-67714880D01*
X98139333Y-67762500D01*
X98091714Y-67810119D01*
X98044095Y-67905357D01*
X98044095Y-68000595D01*
X98091714Y-68143452D01*
X98663142Y-68714880D01*
X98044095Y-68714880D01*
X97425047Y-67714880D02*
X97329809Y-67714880D01*
X97234571Y-67762500D01*
X97186952Y-67810119D01*
X97139333Y-67905357D01*
X97091714Y-68095833D01*
X97091714Y-68333928D01*
X97139333Y-68524404D01*
X97186952Y-68619642D01*
X97234571Y-68667261D01*
X97329809Y-68714880D01*
X97425047Y-68714880D01*
X97520285Y-68667261D01*
X97567904Y-68619642D01*
X97615523Y-68524404D01*
X97663142Y-68333928D01*
X97663142Y-68095833D01*
X97615523Y-67905357D01*
X97567904Y-67810119D01*
X97520285Y-67762500D01*
X97425047Y-67714880D01*
X100520285Y-65270119D02*
X100472666Y-65222500D01*
X100377428Y-65174880D01*
X100139333Y-65174880D01*
X100044095Y-65222500D01*
X99996476Y-65270119D01*
X99948857Y-65365357D01*
X99948857Y-65460595D01*
X99996476Y-65603452D01*
X100567904Y-66174880D01*
X99948857Y-66174880D01*
X99329809Y-65174880D02*
X99234571Y-65174880D01*
X99139333Y-65222500D01*
X99091714Y-65270119D01*
X99044095Y-65365357D01*
X98996476Y-65555833D01*
X98996476Y-65793928D01*
X99044095Y-65984404D01*
X99091714Y-66079642D01*
X99139333Y-66127261D01*
X99234571Y-66174880D01*
X99329809Y-66174880D01*
X99425047Y-66127261D01*
X99472666Y-66079642D01*
X99520285Y-65984404D01*
X99567904Y-65793928D01*
X99567904Y-65555833D01*
X99520285Y-65365357D01*
X99472666Y-65270119D01*
X99425047Y-65222500D01*
X99329809Y-65174880D01*
X98044095Y-66174880D02*
X98615523Y-66174880D01*
X98329809Y-66174880D02*
X98329809Y-65174880D01*
X98425047Y-65317738D01*
X98520285Y-65412976D01*
X98615523Y-65460595D01*
X97567904Y-66174880D02*
X97377428Y-66174880D01*
X97282190Y-66127261D01*
X97234571Y-66079642D01*
X97139333Y-65936785D01*
X97091714Y-65746309D01*
X97091714Y-65365357D01*
X97139333Y-65270119D01*
X97186952Y-65222500D01*
X97282190Y-65174880D01*
X97472666Y-65174880D01*
X97567904Y-65222500D01*
X97615523Y-65270119D01*
X97663142Y-65365357D01*
X97663142Y-65603452D01*
X97615523Y-65698690D01*
X97567904Y-65746309D01*
X97472666Y-65793928D01*
X97282190Y-65793928D01*
X97186952Y-65746309D01*
X97139333Y-65698690D01*
X97091714Y-65603452D01*
D11*
G36*
X163524500Y-143522000D02*
G01*
X161722500Y-143522000D01*
X161722500Y-141720000D01*
X163524500Y-141720000D01*
X163524500Y-143522000D01*
X163524500Y-143522000D01*
G37*
G36*
X92518800Y-142988600D02*
G01*
X90716800Y-142988600D01*
X90716800Y-141186600D01*
X92518800Y-141186600D01*
X92518800Y-142988600D01*
X92518800Y-142988600D01*
G37*
G36*
X152842064Y-140871389D02*
G01*
X152953248Y-140917443D01*
X153033335Y-140950616D01*
X153060793Y-140968963D01*
X153205473Y-141065635D01*
X153351865Y-141212027D01*
X153466885Y-141384167D01*
X153546111Y-141575436D01*
X153586500Y-141778484D01*
X153586500Y-141985516D01*
X153546111Y-142188564D01*
X153469508Y-142373500D01*
X153466884Y-142379835D01*
X153351865Y-142551973D01*
X153205473Y-142698365D01*
X153033335Y-142813384D01*
X153033334Y-142813385D01*
X153033333Y-142813385D01*
X152842064Y-142892611D01*
X152639016Y-142933000D01*
X152431984Y-142933000D01*
X152228936Y-142892611D01*
X152037667Y-142813385D01*
X152037666Y-142813385D01*
X152037665Y-142813384D01*
X151865527Y-142698365D01*
X151719135Y-142551973D01*
X151604116Y-142379835D01*
X151601492Y-142373500D01*
X151524889Y-142188564D01*
X151484500Y-141985516D01*
X151484500Y-141778484D01*
X151524889Y-141575436D01*
X151604115Y-141384167D01*
X151719135Y-141212027D01*
X151865527Y-141065635D01*
X152010207Y-140968963D01*
X152037665Y-140950616D01*
X152117752Y-140917443D01*
X152228936Y-140871389D01*
X152431984Y-140831000D01*
X152639016Y-140831000D01*
X152842064Y-140871389D01*
X152842064Y-140871389D01*
G37*
G36*
X157342064Y-140871389D02*
G01*
X157453248Y-140917443D01*
X157533335Y-140950616D01*
X157560793Y-140968963D01*
X157705473Y-141065635D01*
X157851865Y-141212027D01*
X157966885Y-141384167D01*
X158046111Y-141575436D01*
X158086500Y-141778484D01*
X158086500Y-141985516D01*
X158046111Y-142188564D01*
X157969508Y-142373500D01*
X157966884Y-142379835D01*
X157851865Y-142551973D01*
X157705473Y-142698365D01*
X157533335Y-142813384D01*
X157533334Y-142813385D01*
X157533333Y-142813385D01*
X157342064Y-142892611D01*
X157139016Y-142933000D01*
X156931984Y-142933000D01*
X156728936Y-142892611D01*
X156537667Y-142813385D01*
X156537666Y-142813385D01*
X156537665Y-142813384D01*
X156365527Y-142698365D01*
X156219135Y-142551973D01*
X156104116Y-142379835D01*
X156101492Y-142373500D01*
X156024889Y-142188564D01*
X155984500Y-141985516D01*
X155984500Y-141778484D01*
X156024889Y-141575436D01*
X156104115Y-141384167D01*
X156219135Y-141212027D01*
X156365527Y-141065635D01*
X156510207Y-140968963D01*
X156537665Y-140950616D01*
X156617752Y-140917443D01*
X156728936Y-140871389D01*
X156931984Y-140831000D01*
X157139016Y-140831000D01*
X157342064Y-140871389D01*
X157342064Y-140871389D01*
G37*
G36*
X108871000Y-142373500D02*
G01*
X107969000Y-142373500D01*
X107969000Y-141471500D01*
X108871000Y-141471500D01*
X108871000Y-142373500D01*
X108871000Y-142373500D01*
G37*
G36*
X110471000Y-142373500D02*
G01*
X109569000Y-142373500D01*
X109569000Y-141471500D01*
X110471000Y-141471500D01*
X110471000Y-142373500D01*
X110471000Y-142373500D01*
G37*
G36*
X132378500Y-142310000D02*
G01*
X131476500Y-142310000D01*
X131476500Y-141408000D01*
X132378500Y-141408000D01*
X132378500Y-142310000D01*
X132378500Y-142310000D01*
G37*
G36*
X137458500Y-142310000D02*
G01*
X136556500Y-142310000D01*
X136556500Y-141408000D01*
X137458500Y-141408000D01*
X137458500Y-142310000D01*
X137458500Y-142310000D01*
G37*
G36*
X142538500Y-142310000D02*
G01*
X141636500Y-142310000D01*
X141636500Y-141408000D01*
X142538500Y-141408000D01*
X142538500Y-142310000D01*
X142538500Y-142310000D01*
G37*
G36*
X140938500Y-142310000D02*
G01*
X140036500Y-142310000D01*
X140036500Y-141408000D01*
X140938500Y-141408000D01*
X140938500Y-142310000D01*
X140938500Y-142310000D01*
G37*
G36*
X130778500Y-142310000D02*
G01*
X129876500Y-142310000D01*
X129876500Y-141408000D01*
X130778500Y-141408000D01*
X130778500Y-142310000D01*
X130778500Y-142310000D01*
G37*
G36*
X135858500Y-142310000D02*
G01*
X134956500Y-142310000D01*
X134956500Y-141408000D01*
X135858500Y-141408000D01*
X135858500Y-142310000D01*
X135858500Y-142310000D01*
G37*
G36*
X127298500Y-142310000D02*
G01*
X126396500Y-142310000D01*
X126396500Y-141408000D01*
X127298500Y-141408000D01*
X127298500Y-142310000D01*
X127298500Y-142310000D01*
G37*
G36*
X125698500Y-142310000D02*
G01*
X124796500Y-142310000D01*
X124796500Y-141408000D01*
X125698500Y-141408000D01*
X125698500Y-142310000D01*
X125698500Y-142310000D01*
G37*
G36*
X146018500Y-142310000D02*
G01*
X145116500Y-142310000D01*
X145116500Y-141408000D01*
X146018500Y-141408000D01*
X146018500Y-142310000D01*
X146018500Y-142310000D01*
G37*
G36*
X122218500Y-142310000D02*
G01*
X121316500Y-142310000D01*
X121316500Y-141408000D01*
X122218500Y-141408000D01*
X122218500Y-142310000D01*
X122218500Y-142310000D01*
G37*
G36*
X120618500Y-142310000D02*
G01*
X119716500Y-142310000D01*
X119716500Y-141408000D01*
X120618500Y-141408000D01*
X120618500Y-142310000D01*
X120618500Y-142310000D01*
G37*
G36*
X147618500Y-142310000D02*
G01*
X146716500Y-142310000D01*
X146716500Y-141408000D01*
X147618500Y-141408000D01*
X147618500Y-142310000D01*
X147618500Y-142310000D01*
G37*
G36*
X162733942Y-139186518D02*
G01*
X162800127Y-139193037D01*
X162969966Y-139244557D01*
X163126491Y-139328222D01*
X163162229Y-139357552D01*
X163263686Y-139440814D01*
X163346948Y-139542271D01*
X163376278Y-139578009D01*
X163459943Y-139734534D01*
X163511463Y-139904373D01*
X163528859Y-140081000D01*
X163511463Y-140257627D01*
X163459943Y-140427466D01*
X163376278Y-140583991D01*
X163346948Y-140619729D01*
X163263686Y-140721186D01*
X163162229Y-140804448D01*
X163126491Y-140833778D01*
X162969966Y-140917443D01*
X162800127Y-140968963D01*
X162733943Y-140975481D01*
X162667760Y-140982000D01*
X162579240Y-140982000D01*
X162513057Y-140975481D01*
X162446873Y-140968963D01*
X162277034Y-140917443D01*
X162120509Y-140833778D01*
X162084771Y-140804448D01*
X161983314Y-140721186D01*
X161900052Y-140619729D01*
X161870722Y-140583991D01*
X161787057Y-140427466D01*
X161735537Y-140257627D01*
X161718141Y-140081000D01*
X161735537Y-139904373D01*
X161787057Y-139734534D01*
X161870722Y-139578009D01*
X161900052Y-139542271D01*
X161983314Y-139440814D01*
X162084771Y-139357552D01*
X162120509Y-139328222D01*
X162277034Y-139244557D01*
X162446873Y-139193037D01*
X162513058Y-139186518D01*
X162579240Y-139180000D01*
X162667760Y-139180000D01*
X162733942Y-139186518D01*
X162733942Y-139186518D01*
G37*
G36*
X110471000Y-139833500D02*
G01*
X109569000Y-139833500D01*
X109569000Y-138931500D01*
X110471000Y-138931500D01*
X110471000Y-139833500D01*
X110471000Y-139833500D01*
G37*
G36*
X108871000Y-139833500D02*
G01*
X107969000Y-139833500D01*
X107969000Y-138931500D01*
X108871000Y-138931500D01*
X108871000Y-139833500D01*
X108871000Y-139833500D01*
G37*
G36*
X130778500Y-139770000D02*
G01*
X129876500Y-139770000D01*
X129876500Y-138868000D01*
X130778500Y-138868000D01*
X130778500Y-139770000D01*
X130778500Y-139770000D01*
G37*
G36*
X135858500Y-139770000D02*
G01*
X134956500Y-139770000D01*
X134956500Y-138868000D01*
X135858500Y-138868000D01*
X135858500Y-139770000D01*
X135858500Y-139770000D01*
G37*
G36*
X127298500Y-139770000D02*
G01*
X126396500Y-139770000D01*
X126396500Y-138868000D01*
X127298500Y-138868000D01*
X127298500Y-139770000D01*
X127298500Y-139770000D01*
G37*
G36*
X125698500Y-139770000D02*
G01*
X124796500Y-139770000D01*
X124796500Y-138868000D01*
X125698500Y-138868000D01*
X125698500Y-139770000D01*
X125698500Y-139770000D01*
G37*
G36*
X142538500Y-139770000D02*
G01*
X141636500Y-139770000D01*
X141636500Y-138868000D01*
X142538500Y-138868000D01*
X142538500Y-139770000D01*
X142538500Y-139770000D01*
G37*
G36*
X146018500Y-139770000D02*
G01*
X145116500Y-139770000D01*
X145116500Y-138868000D01*
X146018500Y-138868000D01*
X146018500Y-139770000D01*
X146018500Y-139770000D01*
G37*
G36*
X147618500Y-139770000D02*
G01*
X146716500Y-139770000D01*
X146716500Y-138868000D01*
X147618500Y-138868000D01*
X147618500Y-139770000D01*
X147618500Y-139770000D01*
G37*
G36*
X140938500Y-139770000D02*
G01*
X140036500Y-139770000D01*
X140036500Y-138868000D01*
X140938500Y-138868000D01*
X140938500Y-139770000D01*
X140938500Y-139770000D01*
G37*
G36*
X120618500Y-139770000D02*
G01*
X119716500Y-139770000D01*
X119716500Y-138868000D01*
X120618500Y-138868000D01*
X120618500Y-139770000D01*
X120618500Y-139770000D01*
G37*
G36*
X122218500Y-139770000D02*
G01*
X121316500Y-139770000D01*
X121316500Y-138868000D01*
X122218500Y-138868000D01*
X122218500Y-139770000D01*
X122218500Y-139770000D01*
G37*
G36*
X132378500Y-139770000D02*
G01*
X131476500Y-139770000D01*
X131476500Y-138868000D01*
X132378500Y-138868000D01*
X132378500Y-139770000D01*
X132378500Y-139770000D01*
G37*
G36*
X137458500Y-139770000D02*
G01*
X136556500Y-139770000D01*
X136556500Y-138868000D01*
X137458500Y-138868000D01*
X137458500Y-139770000D01*
X137458500Y-139770000D01*
G37*
G36*
X162733943Y-136646519D02*
G01*
X162800127Y-136653037D01*
X162969966Y-136704557D01*
X163126491Y-136788222D01*
X163162229Y-136817552D01*
X163263686Y-136900814D01*
X163346948Y-137002271D01*
X163376278Y-137038009D01*
X163459943Y-137194534D01*
X163511463Y-137364373D01*
X163528859Y-137541000D01*
X163511463Y-137717627D01*
X163459943Y-137887466D01*
X163376278Y-138043991D01*
X163346948Y-138079729D01*
X163263686Y-138181186D01*
X163162229Y-138264448D01*
X163126491Y-138293778D01*
X162969966Y-138377443D01*
X162800127Y-138428963D01*
X162733943Y-138435481D01*
X162667760Y-138442000D01*
X162579240Y-138442000D01*
X162513057Y-138435481D01*
X162446873Y-138428963D01*
X162277034Y-138377443D01*
X162120509Y-138293778D01*
X162084771Y-138264448D01*
X161983314Y-138181186D01*
X161900052Y-138079729D01*
X161870722Y-138043991D01*
X161787057Y-137887466D01*
X161735537Y-137717627D01*
X161718141Y-137541000D01*
X161735537Y-137364373D01*
X161787057Y-137194534D01*
X161870722Y-137038009D01*
X161900052Y-137002271D01*
X161983314Y-136900814D01*
X162084771Y-136817552D01*
X162120509Y-136788222D01*
X162277034Y-136704557D01*
X162446873Y-136653037D01*
X162513057Y-136646519D01*
X162579240Y-136640000D01*
X162667760Y-136640000D01*
X162733943Y-136646519D01*
X162733943Y-136646519D01*
G37*
G36*
X108871000Y-137293500D02*
G01*
X107969000Y-137293500D01*
X107969000Y-136391500D01*
X108871000Y-136391500D01*
X108871000Y-137293500D01*
X108871000Y-137293500D01*
G37*
G36*
X110471000Y-137293500D02*
G01*
X109569000Y-137293500D01*
X109569000Y-136391500D01*
X110471000Y-136391500D01*
X110471000Y-137293500D01*
X110471000Y-137293500D01*
G37*
G36*
X147618500Y-137230000D02*
G01*
X146716500Y-137230000D01*
X146716500Y-136328000D01*
X147618500Y-136328000D01*
X147618500Y-137230000D01*
X147618500Y-137230000D01*
G37*
G36*
X146018500Y-137230000D02*
G01*
X145116500Y-137230000D01*
X145116500Y-136328000D01*
X146018500Y-136328000D01*
X146018500Y-137230000D01*
X146018500Y-137230000D01*
G37*
G36*
X137458500Y-137230000D02*
G01*
X136556500Y-137230000D01*
X136556500Y-136328000D01*
X137458500Y-136328000D01*
X137458500Y-137230000D01*
X137458500Y-137230000D01*
G37*
G36*
X135858500Y-137230000D02*
G01*
X134956500Y-137230000D01*
X134956500Y-136328000D01*
X135858500Y-136328000D01*
X135858500Y-137230000D01*
X135858500Y-137230000D01*
G37*
G36*
X125698500Y-137230000D02*
G01*
X124796500Y-137230000D01*
X124796500Y-136328000D01*
X125698500Y-136328000D01*
X125698500Y-137230000D01*
X125698500Y-137230000D01*
G37*
G36*
X127298500Y-137230000D02*
G01*
X126396500Y-137230000D01*
X126396500Y-136328000D01*
X127298500Y-136328000D01*
X127298500Y-137230000D01*
X127298500Y-137230000D01*
G37*
G36*
X122218500Y-137230000D02*
G01*
X121316500Y-137230000D01*
X121316500Y-136328000D01*
X122218500Y-136328000D01*
X122218500Y-137230000D01*
X122218500Y-137230000D01*
G37*
G36*
X120618500Y-137230000D02*
G01*
X119716500Y-137230000D01*
X119716500Y-136328000D01*
X120618500Y-136328000D01*
X120618500Y-137230000D01*
X120618500Y-137230000D01*
G37*
G36*
X140938500Y-137230000D02*
G01*
X140036500Y-137230000D01*
X140036500Y-136328000D01*
X140938500Y-136328000D01*
X140938500Y-137230000D01*
X140938500Y-137230000D01*
G37*
G36*
X142538500Y-137230000D02*
G01*
X141636500Y-137230000D01*
X141636500Y-136328000D01*
X142538500Y-136328000D01*
X142538500Y-137230000D01*
X142538500Y-137230000D01*
G37*
G36*
X130778500Y-137230000D02*
G01*
X129876500Y-137230000D01*
X129876500Y-136328000D01*
X130778500Y-136328000D01*
X130778500Y-137230000D01*
X130778500Y-137230000D01*
G37*
G36*
X132378500Y-137230000D02*
G01*
X131476500Y-137230000D01*
X131476500Y-136328000D01*
X132378500Y-136328000D01*
X132378500Y-137230000D01*
X132378500Y-137230000D01*
G37*
G36*
X152842064Y-134371389D02*
G01*
X153033333Y-134450615D01*
X153033335Y-134450616D01*
X153205473Y-134565635D01*
X153351865Y-134712027D01*
X153426934Y-134824375D01*
X153466885Y-134884167D01*
X153546111Y-135075436D01*
X153586500Y-135278484D01*
X153586500Y-135485516D01*
X153546111Y-135688564D01*
X153519098Y-135753779D01*
X153466884Y-135879835D01*
X153351865Y-136051973D01*
X153205473Y-136198365D01*
X153033335Y-136313384D01*
X153033334Y-136313385D01*
X153033333Y-136313385D01*
X152842064Y-136392611D01*
X152639016Y-136433000D01*
X152431984Y-136433000D01*
X152228936Y-136392611D01*
X152037667Y-136313385D01*
X152037666Y-136313385D01*
X152037665Y-136313384D01*
X151865527Y-136198365D01*
X151719135Y-136051973D01*
X151604116Y-135879835D01*
X151551902Y-135753779D01*
X151524889Y-135688564D01*
X151484500Y-135485516D01*
X151484500Y-135278484D01*
X151524889Y-135075436D01*
X151604115Y-134884167D01*
X151644067Y-134824375D01*
X151719135Y-134712027D01*
X151865527Y-134565635D01*
X152037665Y-134450616D01*
X152037667Y-134450615D01*
X152228936Y-134371389D01*
X152431984Y-134331000D01*
X152639016Y-134331000D01*
X152842064Y-134371389D01*
X152842064Y-134371389D01*
G37*
G36*
X157342064Y-134371389D02*
G01*
X157533333Y-134450615D01*
X157533335Y-134450616D01*
X157705473Y-134565635D01*
X157851865Y-134712027D01*
X157926934Y-134824375D01*
X157966885Y-134884167D01*
X158046111Y-135075436D01*
X158086500Y-135278484D01*
X158086500Y-135485516D01*
X158046111Y-135688564D01*
X158019098Y-135753779D01*
X157966884Y-135879835D01*
X157851865Y-136051973D01*
X157705473Y-136198365D01*
X157533335Y-136313384D01*
X157533334Y-136313385D01*
X157533333Y-136313385D01*
X157342064Y-136392611D01*
X157139016Y-136433000D01*
X156931984Y-136433000D01*
X156728936Y-136392611D01*
X156537667Y-136313385D01*
X156537666Y-136313385D01*
X156537665Y-136313384D01*
X156365527Y-136198365D01*
X156219135Y-136051973D01*
X156104116Y-135879835D01*
X156051902Y-135753779D01*
X156024889Y-135688564D01*
X155984500Y-135485516D01*
X155984500Y-135278484D01*
X156024889Y-135075436D01*
X156104115Y-134884167D01*
X156144067Y-134824375D01*
X156219135Y-134712027D01*
X156365527Y-134565635D01*
X156537665Y-134450616D01*
X156537667Y-134450615D01*
X156728936Y-134371389D01*
X156931984Y-134331000D01*
X157139016Y-134331000D01*
X157342064Y-134371389D01*
X157342064Y-134371389D01*
G37*
G36*
X162733943Y-134106519D02*
G01*
X162800127Y-134113037D01*
X162969966Y-134164557D01*
X163126491Y-134248222D01*
X163162229Y-134277552D01*
X163263686Y-134360814D01*
X163346948Y-134462271D01*
X163376278Y-134498009D01*
X163459943Y-134654534D01*
X163511463Y-134824373D01*
X163528859Y-135001000D01*
X163511463Y-135177627D01*
X163459943Y-135347466D01*
X163376278Y-135503991D01*
X163346948Y-135539729D01*
X163263686Y-135641186D01*
X163162229Y-135724448D01*
X163126491Y-135753778D01*
X162969966Y-135837443D01*
X162800127Y-135888963D01*
X162733943Y-135895481D01*
X162667760Y-135902000D01*
X162579240Y-135902000D01*
X162513057Y-135895481D01*
X162446873Y-135888963D01*
X162277034Y-135837443D01*
X162120509Y-135753778D01*
X162084771Y-135724448D01*
X161983314Y-135641186D01*
X161900052Y-135539729D01*
X161870722Y-135503991D01*
X161787057Y-135347466D01*
X161735537Y-135177627D01*
X161718141Y-135001000D01*
X161735537Y-134824373D01*
X161787057Y-134654534D01*
X161870722Y-134498009D01*
X161900052Y-134462271D01*
X161983314Y-134360814D01*
X162084771Y-134277552D01*
X162120509Y-134248222D01*
X162277034Y-134164557D01*
X162446873Y-134113037D01*
X162513057Y-134106519D01*
X162579240Y-134100000D01*
X162667760Y-134100000D01*
X162733943Y-134106519D01*
X162733943Y-134106519D01*
G37*
G36*
X110471000Y-134753500D02*
G01*
X109569000Y-134753500D01*
X109569000Y-133851500D01*
X110471000Y-133851500D01*
X110471000Y-134753500D01*
X110471000Y-134753500D01*
G37*
G36*
X108871000Y-134753500D02*
G01*
X107969000Y-134753500D01*
X107969000Y-133851500D01*
X108871000Y-133851500D01*
X108871000Y-134753500D01*
X108871000Y-134753500D01*
G37*
G36*
X142538500Y-134690000D02*
G01*
X141636500Y-134690000D01*
X141636500Y-133788000D01*
X142538500Y-133788000D01*
X142538500Y-134690000D01*
X142538500Y-134690000D01*
G37*
G36*
X130778500Y-134690000D02*
G01*
X129876500Y-134690000D01*
X129876500Y-133788000D01*
X130778500Y-133788000D01*
X130778500Y-134690000D01*
X130778500Y-134690000D01*
G37*
G36*
X132378500Y-134690000D02*
G01*
X131476500Y-134690000D01*
X131476500Y-133788000D01*
X132378500Y-133788000D01*
X132378500Y-134690000D01*
X132378500Y-134690000D01*
G37*
G36*
X140938500Y-134690000D02*
G01*
X140036500Y-134690000D01*
X140036500Y-133788000D01*
X140938500Y-133788000D01*
X140938500Y-134690000D01*
X140938500Y-134690000D01*
G37*
G36*
X122218500Y-134690000D02*
G01*
X121316500Y-134690000D01*
X121316500Y-133788000D01*
X122218500Y-133788000D01*
X122218500Y-134690000D01*
X122218500Y-134690000D01*
G37*
G36*
X120618500Y-134690000D02*
G01*
X119716500Y-134690000D01*
X119716500Y-133788000D01*
X120618500Y-133788000D01*
X120618500Y-134690000D01*
X120618500Y-134690000D01*
G37*
G36*
X162733942Y-131566518D02*
G01*
X162800127Y-131573037D01*
X162969966Y-131624557D01*
X163126491Y-131708222D01*
X163162229Y-131737552D01*
X163263686Y-131820814D01*
X163346948Y-131922271D01*
X163376278Y-131958009D01*
X163459943Y-132114534D01*
X163511463Y-132284373D01*
X163528859Y-132461000D01*
X163511463Y-132637627D01*
X163459943Y-132807466D01*
X163376278Y-132963991D01*
X163346948Y-132999729D01*
X163263686Y-133101186D01*
X163162229Y-133184448D01*
X163126491Y-133213778D01*
X162969966Y-133297443D01*
X162800127Y-133348963D01*
X162733942Y-133355482D01*
X162667760Y-133362000D01*
X162579240Y-133362000D01*
X162513058Y-133355482D01*
X162446873Y-133348963D01*
X162277034Y-133297443D01*
X162120509Y-133213778D01*
X162084771Y-133184448D01*
X161983314Y-133101186D01*
X161900052Y-132999729D01*
X161870722Y-132963991D01*
X161787057Y-132807466D01*
X161735537Y-132637627D01*
X161718141Y-132461000D01*
X161735537Y-132284373D01*
X161787057Y-132114534D01*
X161870722Y-131958009D01*
X161900052Y-131922271D01*
X161983314Y-131820814D01*
X162084771Y-131737552D01*
X162120509Y-131708222D01*
X162277034Y-131624557D01*
X162446873Y-131573037D01*
X162513058Y-131566518D01*
X162579240Y-131560000D01*
X162667760Y-131560000D01*
X162733942Y-131566518D01*
X162733942Y-131566518D01*
G37*
G36*
X110471000Y-132213500D02*
G01*
X109569000Y-132213500D01*
X109569000Y-131311500D01*
X110471000Y-131311500D01*
X110471000Y-132213500D01*
X110471000Y-132213500D01*
G37*
G36*
X108871000Y-132213500D02*
G01*
X107969000Y-132213500D01*
X107969000Y-131311500D01*
X108871000Y-131311500D01*
X108871000Y-132213500D01*
X108871000Y-132213500D01*
G37*
G36*
X162733942Y-129026518D02*
G01*
X162800127Y-129033037D01*
X162969966Y-129084557D01*
X163126491Y-129168222D01*
X163162229Y-129197552D01*
X163263686Y-129280814D01*
X163346948Y-129382271D01*
X163376278Y-129418009D01*
X163459943Y-129574534D01*
X163511463Y-129744373D01*
X163528859Y-129921000D01*
X163511463Y-130097627D01*
X163459943Y-130267466D01*
X163376278Y-130423991D01*
X163346948Y-130459729D01*
X163263686Y-130561186D01*
X163162229Y-130644448D01*
X163126491Y-130673778D01*
X162969966Y-130757443D01*
X162800127Y-130808963D01*
X162733943Y-130815481D01*
X162667760Y-130822000D01*
X162579240Y-130822000D01*
X162513057Y-130815481D01*
X162446873Y-130808963D01*
X162277034Y-130757443D01*
X162120509Y-130673778D01*
X162084771Y-130644448D01*
X161983314Y-130561186D01*
X161900052Y-130459729D01*
X161870722Y-130423991D01*
X161787057Y-130267466D01*
X161735537Y-130097627D01*
X161718141Y-129921000D01*
X161735537Y-129744373D01*
X161787057Y-129574534D01*
X161870722Y-129418009D01*
X161900052Y-129382271D01*
X161983314Y-129280814D01*
X162084771Y-129197552D01*
X162120509Y-129168222D01*
X162277034Y-129084557D01*
X162446873Y-129033037D01*
X162513058Y-129026518D01*
X162579240Y-129020000D01*
X162667760Y-129020000D01*
X162733942Y-129026518D01*
X162733942Y-129026518D01*
G37*
G36*
X110471000Y-129673500D02*
G01*
X109569000Y-129673500D01*
X109569000Y-128771500D01*
X110471000Y-128771500D01*
X110471000Y-129673500D01*
X110471000Y-129673500D01*
G37*
G36*
X108871000Y-129673500D02*
G01*
X107969000Y-129673500D01*
X107969000Y-128771500D01*
X108871000Y-128771500D01*
X108871000Y-129673500D01*
X108871000Y-129673500D01*
G37*
G36*
X110471000Y-127133500D02*
G01*
X109569000Y-127133500D01*
X109569000Y-126231500D01*
X110471000Y-126231500D01*
X110471000Y-127133500D01*
X110471000Y-127133500D01*
G37*
G36*
X108871000Y-127133500D02*
G01*
X107969000Y-127133500D01*
X107969000Y-126231500D01*
X108871000Y-126231500D01*
X108871000Y-127133500D01*
X108871000Y-127133500D01*
G37*
G36*
X110471000Y-124593500D02*
G01*
X109569000Y-124593500D01*
X109569000Y-123691500D01*
X110471000Y-123691500D01*
X110471000Y-124593500D01*
X110471000Y-124593500D01*
G37*
G36*
X108871000Y-124593500D02*
G01*
X107969000Y-124593500D01*
X107969000Y-123691500D01*
X108871000Y-123691500D01*
X108871000Y-124593500D01*
X108871000Y-124593500D01*
G37*
G36*
X110471000Y-122053500D02*
G01*
X109569000Y-122053500D01*
X109569000Y-121151500D01*
X110471000Y-121151500D01*
X110471000Y-122053500D01*
X110471000Y-122053500D01*
G37*
G36*
X108871000Y-122053500D02*
G01*
X107969000Y-122053500D01*
X107969000Y-121151500D01*
X108871000Y-121151500D01*
X108871000Y-122053500D01*
X108871000Y-122053500D01*
G37*
G36*
X108871000Y-119513500D02*
G01*
X107969000Y-119513500D01*
X107969000Y-118611500D01*
X108871000Y-118611500D01*
X108871000Y-119513500D01*
X108871000Y-119513500D01*
G37*
G36*
X110471000Y-119513500D02*
G01*
X109569000Y-119513500D01*
X109569000Y-118611500D01*
X110471000Y-118611500D01*
X110471000Y-119513500D01*
X110471000Y-119513500D01*
G37*
G36*
X110471000Y-116973500D02*
G01*
X109569000Y-116973500D01*
X109569000Y-116071500D01*
X110471000Y-116071500D01*
X110471000Y-116973500D01*
X110471000Y-116973500D01*
G37*
G36*
X108871000Y-116973500D02*
G01*
X107969000Y-116973500D01*
X107969000Y-116071500D01*
X108871000Y-116071500D01*
X108871000Y-116973500D01*
X108871000Y-116973500D01*
G37*
G36*
X110471000Y-114433500D02*
G01*
X109569000Y-114433500D01*
X109569000Y-113531500D01*
X110471000Y-113531500D01*
X110471000Y-114433500D01*
X110471000Y-114433500D01*
G37*
G36*
X108871000Y-114433500D02*
G01*
X107969000Y-114433500D01*
X107969000Y-113531500D01*
X108871000Y-113531500D01*
X108871000Y-114433500D01*
X108871000Y-114433500D01*
G37*
G36*
X108871000Y-111893500D02*
G01*
X107969000Y-111893500D01*
X107969000Y-110991500D01*
X108871000Y-110991500D01*
X108871000Y-111893500D01*
X108871000Y-111893500D01*
G37*
G36*
X110471000Y-111893500D02*
G01*
X109569000Y-111893500D01*
X109569000Y-110991500D01*
X110471000Y-110991500D01*
X110471000Y-111893500D01*
X110471000Y-111893500D01*
G37*
G36*
X110471000Y-109353500D02*
G01*
X109569000Y-109353500D01*
X109569000Y-108451500D01*
X110471000Y-108451500D01*
X110471000Y-109353500D01*
X110471000Y-109353500D01*
G37*
G36*
X108871000Y-109353500D02*
G01*
X107969000Y-109353500D01*
X107969000Y-108451500D01*
X108871000Y-108451500D01*
X108871000Y-109353500D01*
X108871000Y-109353500D01*
G37*
G36*
X110471000Y-106813500D02*
G01*
X109569000Y-106813500D01*
X109569000Y-105911500D01*
X110471000Y-105911500D01*
X110471000Y-106813500D01*
X110471000Y-106813500D01*
G37*
G36*
X108871000Y-106813500D02*
G01*
X107969000Y-106813500D01*
X107969000Y-105911500D01*
X108871000Y-105911500D01*
X108871000Y-106813500D01*
X108871000Y-106813500D01*
G37*
G36*
X110471000Y-104273500D02*
G01*
X109569000Y-104273500D01*
X109569000Y-103371500D01*
X110471000Y-103371500D01*
X110471000Y-104273500D01*
X110471000Y-104273500D01*
G37*
G36*
X108871000Y-104273500D02*
G01*
X107969000Y-104273500D01*
X107969000Y-103371500D01*
X108871000Y-103371500D01*
X108871000Y-104273500D01*
X108871000Y-104273500D01*
G37*
G36*
X108871000Y-101733500D02*
G01*
X107969000Y-101733500D01*
X107969000Y-100831500D01*
X108871000Y-100831500D01*
X108871000Y-101733500D01*
X108871000Y-101733500D01*
G37*
G36*
X110471000Y-101733500D02*
G01*
X109569000Y-101733500D01*
X109569000Y-100831500D01*
X110471000Y-100831500D01*
X110471000Y-101733500D01*
X110471000Y-101733500D01*
G37*
G36*
X157336142Y-99484742D02*
G01*
X157484101Y-99546029D01*
X157617255Y-99634999D01*
X157730501Y-99748245D01*
X157819471Y-99881399D01*
X157880758Y-100029358D01*
X157912000Y-100186425D01*
X157912000Y-100346575D01*
X157880758Y-100503642D01*
X157819471Y-100651601D01*
X157730501Y-100784755D01*
X157617255Y-100898001D01*
X157484101Y-100986971D01*
X157336142Y-101048258D01*
X157179075Y-101079500D01*
X157018925Y-101079500D01*
X156861858Y-101048258D01*
X156713899Y-100986971D01*
X156580745Y-100898001D01*
X156467499Y-100784755D01*
X156378529Y-100651601D01*
X156317242Y-100503642D01*
X156286000Y-100346575D01*
X156286000Y-100186425D01*
X156317242Y-100029358D01*
X156378529Y-99881399D01*
X156467499Y-99748245D01*
X156580745Y-99634999D01*
X156713899Y-99546029D01*
X156861858Y-99484742D01*
X157018925Y-99453500D01*
X157179075Y-99453500D01*
X157336142Y-99484742D01*
X157336142Y-99484742D01*
G37*
G36*
X110471000Y-99193500D02*
G01*
X109569000Y-99193500D01*
X109569000Y-98291500D01*
X110471000Y-98291500D01*
X110471000Y-99193500D01*
X110471000Y-99193500D01*
G37*
G36*
X108871000Y-99193500D02*
G01*
X107969000Y-99193500D01*
X107969000Y-98291500D01*
X108871000Y-98291500D01*
X108871000Y-99193500D01*
X108871000Y-99193500D01*
G37*
G36*
X108871000Y-96653500D02*
G01*
X107969000Y-96653500D01*
X107969000Y-95751500D01*
X108871000Y-95751500D01*
X108871000Y-96653500D01*
X108871000Y-96653500D01*
G37*
G36*
X110471000Y-96653500D02*
G01*
X109569000Y-96653500D01*
X109569000Y-95751500D01*
X110471000Y-95751500D01*
X110471000Y-96653500D01*
X110471000Y-96653500D01*
G37*
G36*
X123920500Y-94177000D02*
G01*
X123018500Y-94177000D01*
X123018500Y-93275000D01*
X123920500Y-93275000D01*
X123920500Y-94177000D01*
X123920500Y-94177000D01*
G37*
G36*
X125520500Y-94177000D02*
G01*
X124618500Y-94177000D01*
X124618500Y-93275000D01*
X125520500Y-93275000D01*
X125520500Y-94177000D01*
X125520500Y-94177000D01*
G37*
G36*
X110471000Y-94113500D02*
G01*
X109569000Y-94113500D01*
X109569000Y-93211500D01*
X110471000Y-93211500D01*
X110471000Y-94113500D01*
X110471000Y-94113500D01*
G37*
G36*
X108871000Y-94113500D02*
G01*
X107969000Y-94113500D01*
X107969000Y-93211500D01*
X108871000Y-93211500D01*
X108871000Y-94113500D01*
X108871000Y-94113500D01*
G37*
G36*
X123920500Y-91637000D02*
G01*
X123018500Y-91637000D01*
X123018500Y-90735000D01*
X123920500Y-90735000D01*
X123920500Y-91637000D01*
X123920500Y-91637000D01*
G37*
G36*
X125520500Y-91637000D02*
G01*
X124618500Y-91637000D01*
X124618500Y-90735000D01*
X125520500Y-90735000D01*
X125520500Y-91637000D01*
X125520500Y-91637000D01*
G37*
G36*
X110471000Y-91573500D02*
G01*
X109569000Y-91573500D01*
X109569000Y-90671500D01*
X110471000Y-90671500D01*
X110471000Y-91573500D01*
X110471000Y-91573500D01*
G37*
G36*
X108871000Y-91573500D02*
G01*
X107969000Y-91573500D01*
X107969000Y-90671500D01*
X108871000Y-90671500D01*
X108871000Y-91573500D01*
X108871000Y-91573500D01*
G37*
G36*
X123920500Y-89097000D02*
G01*
X123018500Y-89097000D01*
X123018500Y-88195000D01*
X123920500Y-88195000D01*
X123920500Y-89097000D01*
X123920500Y-89097000D01*
G37*
G36*
X125520500Y-89097000D02*
G01*
X124618500Y-89097000D01*
X124618500Y-88195000D01*
X125520500Y-88195000D01*
X125520500Y-89097000D01*
X125520500Y-89097000D01*
G37*
G36*
X108871000Y-89033500D02*
G01*
X107969000Y-89033500D01*
X107969000Y-88131500D01*
X108871000Y-88131500D01*
X108871000Y-89033500D01*
X108871000Y-89033500D01*
G37*
G36*
X110471000Y-89033500D02*
G01*
X109569000Y-89033500D01*
X109569000Y-88131500D01*
X110471000Y-88131500D01*
X110471000Y-89033500D01*
X110471000Y-89033500D01*
G37*
G36*
X125520500Y-86557000D02*
G01*
X124618500Y-86557000D01*
X124618500Y-85655000D01*
X125520500Y-85655000D01*
X125520500Y-86557000D01*
X125520500Y-86557000D01*
G37*
G36*
X123920500Y-86557000D02*
G01*
X123018500Y-86557000D01*
X123018500Y-85655000D01*
X123920500Y-85655000D01*
X123920500Y-86557000D01*
X123920500Y-86557000D01*
G37*
G36*
X110471000Y-86493500D02*
G01*
X109569000Y-86493500D01*
X109569000Y-85591500D01*
X110471000Y-85591500D01*
X110471000Y-86493500D01*
X110471000Y-86493500D01*
G37*
G36*
X108871000Y-86493500D02*
G01*
X107969000Y-86493500D01*
X107969000Y-85591500D01*
X108871000Y-85591500D01*
X108871000Y-86493500D01*
X108871000Y-86493500D01*
G37*
G36*
X123920500Y-84017000D02*
G01*
X123018500Y-84017000D01*
X123018500Y-83115000D01*
X123920500Y-83115000D01*
X123920500Y-84017000D01*
X123920500Y-84017000D01*
G37*
G36*
X125520500Y-84017000D02*
G01*
X124618500Y-84017000D01*
X124618500Y-83115000D01*
X125520500Y-83115000D01*
X125520500Y-84017000D01*
X125520500Y-84017000D01*
G37*
G36*
X93758000Y-83953500D02*
G01*
X92856000Y-83953500D01*
X92856000Y-83051500D01*
X93758000Y-83051500D01*
X93758000Y-83953500D01*
X93758000Y-83953500D01*
G37*
G36*
X108871000Y-83953500D02*
G01*
X107969000Y-83953500D01*
X107969000Y-83051500D01*
X108871000Y-83051500D01*
X108871000Y-83953500D01*
X108871000Y-83953500D01*
G37*
G36*
X110471000Y-83953500D02*
G01*
X109569000Y-83953500D01*
X109569000Y-83051500D01*
X110471000Y-83051500D01*
X110471000Y-83953500D01*
X110471000Y-83953500D01*
G37*
G36*
X95358000Y-83953500D02*
G01*
X94456000Y-83953500D01*
X94456000Y-83051500D01*
X95358000Y-83051500D01*
X95358000Y-83953500D01*
X95358000Y-83953500D01*
G37*
G36*
X139033500Y-81477000D02*
G01*
X138131500Y-81477000D01*
X138131500Y-80575000D01*
X139033500Y-80575000D01*
X139033500Y-81477000D01*
X139033500Y-81477000D01*
G37*
G36*
X125520500Y-81477000D02*
G01*
X124618500Y-81477000D01*
X124618500Y-80575000D01*
X125520500Y-80575000D01*
X125520500Y-81477000D01*
X125520500Y-81477000D01*
G37*
G36*
X123920500Y-81477000D02*
G01*
X123018500Y-81477000D01*
X123018500Y-80575000D01*
X123920500Y-80575000D01*
X123920500Y-81477000D01*
X123920500Y-81477000D01*
G37*
G36*
X140633500Y-81477000D02*
G01*
X139731500Y-81477000D01*
X139731500Y-80575000D01*
X140633500Y-80575000D01*
X140633500Y-81477000D01*
X140633500Y-81477000D01*
G37*
G36*
X108871000Y-81413500D02*
G01*
X107969000Y-81413500D01*
X107969000Y-80511500D01*
X108871000Y-80511500D01*
X108871000Y-81413500D01*
X108871000Y-81413500D01*
G37*
G36*
X110471000Y-81413500D02*
G01*
X109569000Y-81413500D01*
X109569000Y-80511500D01*
X110471000Y-80511500D01*
X110471000Y-81413500D01*
X110471000Y-81413500D01*
G37*
G36*
X93758000Y-81413500D02*
G01*
X92856000Y-81413500D01*
X92856000Y-80511500D01*
X93758000Y-80511500D01*
X93758000Y-81413500D01*
X93758000Y-81413500D01*
G37*
G36*
X95358000Y-81413500D02*
G01*
X94456000Y-81413500D01*
X94456000Y-80511500D01*
X95358000Y-80511500D01*
X95358000Y-81413500D01*
X95358000Y-81413500D01*
G37*
G36*
X139033500Y-78937000D02*
G01*
X138131500Y-78937000D01*
X138131500Y-78035000D01*
X139033500Y-78035000D01*
X139033500Y-78937000D01*
X139033500Y-78937000D01*
G37*
G36*
X140633500Y-78937000D02*
G01*
X139731500Y-78937000D01*
X139731500Y-78035000D01*
X140633500Y-78035000D01*
X140633500Y-78937000D01*
X140633500Y-78937000D01*
G37*
G36*
X125520500Y-78937000D02*
G01*
X124618500Y-78937000D01*
X124618500Y-78035000D01*
X125520500Y-78035000D01*
X125520500Y-78937000D01*
X125520500Y-78937000D01*
G37*
G36*
X123920500Y-78937000D02*
G01*
X123018500Y-78937000D01*
X123018500Y-78035000D01*
X123920500Y-78035000D01*
X123920500Y-78937000D01*
X123920500Y-78937000D01*
G37*
G36*
X95358000Y-78873500D02*
G01*
X94456000Y-78873500D01*
X94456000Y-77971500D01*
X95358000Y-77971500D01*
X95358000Y-78873500D01*
X95358000Y-78873500D01*
G37*
G36*
X93758000Y-78873500D02*
G01*
X92856000Y-78873500D01*
X92856000Y-77971500D01*
X93758000Y-77971500D01*
X93758000Y-78873500D01*
X93758000Y-78873500D01*
G37*
G36*
X108871000Y-78873500D02*
G01*
X107969000Y-78873500D01*
X107969000Y-77971500D01*
X108871000Y-77971500D01*
X108871000Y-78873500D01*
X108871000Y-78873500D01*
G37*
G36*
X110471000Y-78873500D02*
G01*
X109569000Y-78873500D01*
X109569000Y-77971500D01*
X110471000Y-77971500D01*
X110471000Y-78873500D01*
X110471000Y-78873500D01*
G37*
G36*
X139033500Y-76397000D02*
G01*
X138131500Y-76397000D01*
X138131500Y-75495000D01*
X139033500Y-75495000D01*
X139033500Y-76397000D01*
X139033500Y-76397000D01*
G37*
G36*
X125520500Y-76397000D02*
G01*
X124618500Y-76397000D01*
X124618500Y-75495000D01*
X125520500Y-75495000D01*
X125520500Y-76397000D01*
X125520500Y-76397000D01*
G37*
G36*
X123920500Y-76397000D02*
G01*
X123018500Y-76397000D01*
X123018500Y-75495000D01*
X123920500Y-75495000D01*
X123920500Y-76397000D01*
X123920500Y-76397000D01*
G37*
G36*
X140633500Y-76397000D02*
G01*
X139731500Y-76397000D01*
X139731500Y-75495000D01*
X140633500Y-75495000D01*
X140633500Y-76397000D01*
X140633500Y-76397000D01*
G37*
G36*
X110471000Y-76333500D02*
G01*
X109569000Y-76333500D01*
X109569000Y-75431500D01*
X110471000Y-75431500D01*
X110471000Y-76333500D01*
X110471000Y-76333500D01*
G37*
G36*
X108871000Y-76333500D02*
G01*
X107969000Y-76333500D01*
X107969000Y-75431500D01*
X108871000Y-75431500D01*
X108871000Y-76333500D01*
X108871000Y-76333500D01*
G37*
G36*
X93758000Y-76333500D02*
G01*
X92856000Y-76333500D01*
X92856000Y-75431500D01*
X93758000Y-75431500D01*
X93758000Y-76333500D01*
X93758000Y-76333500D01*
G37*
G36*
X95358000Y-76333500D02*
G01*
X94456000Y-76333500D01*
X94456000Y-75431500D01*
X95358000Y-75431500D01*
X95358000Y-76333500D01*
X95358000Y-76333500D01*
G37*
G36*
X140633500Y-73857000D02*
G01*
X139731500Y-73857000D01*
X139731500Y-72955000D01*
X140633500Y-72955000D01*
X140633500Y-73857000D01*
X140633500Y-73857000D01*
G37*
G36*
X139033500Y-73857000D02*
G01*
X138131500Y-73857000D01*
X138131500Y-72955000D01*
X139033500Y-72955000D01*
X139033500Y-73857000D01*
X139033500Y-73857000D01*
G37*
G36*
X123920500Y-73857000D02*
G01*
X123018500Y-73857000D01*
X123018500Y-72955000D01*
X123920500Y-72955000D01*
X123920500Y-73857000D01*
X123920500Y-73857000D01*
G37*
G36*
X125520500Y-73857000D02*
G01*
X124618500Y-73857000D01*
X124618500Y-72955000D01*
X125520500Y-72955000D01*
X125520500Y-73857000D01*
X125520500Y-73857000D01*
G37*
G36*
X95358000Y-73793500D02*
G01*
X94456000Y-73793500D01*
X94456000Y-72891500D01*
X95358000Y-72891500D01*
X95358000Y-73793500D01*
X95358000Y-73793500D01*
G37*
G36*
X93758000Y-73793500D02*
G01*
X92856000Y-73793500D01*
X92856000Y-72891500D01*
X93758000Y-72891500D01*
X93758000Y-73793500D01*
X93758000Y-73793500D01*
G37*
G36*
X108871000Y-73793500D02*
G01*
X107969000Y-73793500D01*
X107969000Y-72891500D01*
X108871000Y-72891500D01*
X108871000Y-73793500D01*
X108871000Y-73793500D01*
G37*
G36*
X110471000Y-73793500D02*
G01*
X109569000Y-73793500D01*
X109569000Y-72891500D01*
X110471000Y-72891500D01*
X110471000Y-73793500D01*
X110471000Y-73793500D01*
G37*
G36*
X140633500Y-71317000D02*
G01*
X139731500Y-71317000D01*
X139731500Y-70415000D01*
X140633500Y-70415000D01*
X140633500Y-71317000D01*
X140633500Y-71317000D01*
G37*
G36*
X139033500Y-71317000D02*
G01*
X138131500Y-71317000D01*
X138131500Y-70415000D01*
X139033500Y-70415000D01*
X139033500Y-71317000D01*
X139033500Y-71317000D01*
G37*
G36*
X125520500Y-71317000D02*
G01*
X124618500Y-71317000D01*
X124618500Y-70415000D01*
X125520500Y-70415000D01*
X125520500Y-71317000D01*
X125520500Y-71317000D01*
G37*
G36*
X123920500Y-71317000D02*
G01*
X123018500Y-71317000D01*
X123018500Y-70415000D01*
X123920500Y-70415000D01*
X123920500Y-71317000D01*
X123920500Y-71317000D01*
G37*
G36*
X110471000Y-71253500D02*
G01*
X109569000Y-71253500D01*
X109569000Y-70351500D01*
X110471000Y-70351500D01*
X110471000Y-71253500D01*
X110471000Y-71253500D01*
G37*
G36*
X93758000Y-71253500D02*
G01*
X92856000Y-71253500D01*
X92856000Y-70351500D01*
X93758000Y-70351500D01*
X93758000Y-71253500D01*
X93758000Y-71253500D01*
G37*
G36*
X95358000Y-71253500D02*
G01*
X94456000Y-71253500D01*
X94456000Y-70351500D01*
X95358000Y-70351500D01*
X95358000Y-71253500D01*
X95358000Y-71253500D01*
G37*
G36*
X108871000Y-71253500D02*
G01*
X107969000Y-71253500D01*
X107969000Y-70351500D01*
X108871000Y-70351500D01*
X108871000Y-71253500D01*
X108871000Y-71253500D01*
G37*
G36*
X140633500Y-68777000D02*
G01*
X139731500Y-68777000D01*
X139731500Y-67875000D01*
X140633500Y-67875000D01*
X140633500Y-68777000D01*
X140633500Y-68777000D01*
G37*
G36*
X139033500Y-68777000D02*
G01*
X138131500Y-68777000D01*
X138131500Y-67875000D01*
X139033500Y-67875000D01*
X139033500Y-68777000D01*
X139033500Y-68777000D01*
G37*
G36*
X125520500Y-68777000D02*
G01*
X124618500Y-68777000D01*
X124618500Y-67875000D01*
X125520500Y-67875000D01*
X125520500Y-68777000D01*
X125520500Y-68777000D01*
G37*
G36*
X123920500Y-68777000D02*
G01*
X123018500Y-68777000D01*
X123018500Y-67875000D01*
X123920500Y-67875000D01*
X123920500Y-68777000D01*
X123920500Y-68777000D01*
G37*
G36*
X95358000Y-68713500D02*
G01*
X94456000Y-68713500D01*
X94456000Y-67811500D01*
X95358000Y-67811500D01*
X95358000Y-68713500D01*
X95358000Y-68713500D01*
G37*
G36*
X110471000Y-68713500D02*
G01*
X109569000Y-68713500D01*
X109569000Y-67811500D01*
X110471000Y-67811500D01*
X110471000Y-68713500D01*
X110471000Y-68713500D01*
G37*
G36*
X93758000Y-68713500D02*
G01*
X92856000Y-68713500D01*
X92856000Y-67811500D01*
X93758000Y-67811500D01*
X93758000Y-68713500D01*
X93758000Y-68713500D01*
G37*
G36*
X108871000Y-68713500D02*
G01*
X107969000Y-68713500D01*
X107969000Y-67811500D01*
X108871000Y-67811500D01*
X108871000Y-68713500D01*
X108871000Y-68713500D01*
G37*
G36*
X123920500Y-66237000D02*
G01*
X123018500Y-66237000D01*
X123018500Y-65335000D01*
X123920500Y-65335000D01*
X123920500Y-66237000D01*
X123920500Y-66237000D01*
G37*
G36*
X140633500Y-66237000D02*
G01*
X139731500Y-66237000D01*
X139731500Y-65335000D01*
X140633500Y-65335000D01*
X140633500Y-66237000D01*
X140633500Y-66237000D01*
G37*
G36*
X139033500Y-66237000D02*
G01*
X138131500Y-66237000D01*
X138131500Y-65335000D01*
X139033500Y-65335000D01*
X139033500Y-66237000D01*
X139033500Y-66237000D01*
G37*
G36*
X125520500Y-66237000D02*
G01*
X124618500Y-66237000D01*
X124618500Y-65335000D01*
X125520500Y-65335000D01*
X125520500Y-66237000D01*
X125520500Y-66237000D01*
G37*
G36*
X110471000Y-66173500D02*
G01*
X109569000Y-66173500D01*
X109569000Y-65271500D01*
X110471000Y-65271500D01*
X110471000Y-66173500D01*
X110471000Y-66173500D01*
G37*
G36*
X93758000Y-66173500D02*
G01*
X92856000Y-66173500D01*
X92856000Y-65271500D01*
X93758000Y-65271500D01*
X93758000Y-66173500D01*
X93758000Y-66173500D01*
G37*
G36*
X95358000Y-66173500D02*
G01*
X94456000Y-66173500D01*
X94456000Y-65271500D01*
X95358000Y-65271500D01*
X95358000Y-66173500D01*
X95358000Y-66173500D01*
G37*
G36*
X108871000Y-66173500D02*
G01*
X107969000Y-66173500D01*
X107969000Y-65271500D01*
X108871000Y-65271500D01*
X108871000Y-66173500D01*
X108871000Y-66173500D01*
G37*
G36*
X157336142Y-64051742D02*
G01*
X157484101Y-64113029D01*
X157617255Y-64201999D01*
X157730501Y-64315245D01*
X157819471Y-64448399D01*
X157880758Y-64596358D01*
X157912000Y-64753425D01*
X157912000Y-64913575D01*
X157880758Y-65070642D01*
X157819471Y-65218601D01*
X157730501Y-65351755D01*
X157617255Y-65465001D01*
X157484101Y-65553971D01*
X157336142Y-65615258D01*
X157179075Y-65646500D01*
X157018925Y-65646500D01*
X156861858Y-65615258D01*
X156713899Y-65553971D01*
X156580745Y-65465001D01*
X156467499Y-65351755D01*
X156378529Y-65218601D01*
X156317242Y-65070642D01*
X156286000Y-64913575D01*
X156286000Y-64753425D01*
X156317242Y-64596358D01*
X156378529Y-64448399D01*
X156467499Y-64315245D01*
X156580745Y-64201999D01*
X156713899Y-64113029D01*
X156861858Y-64051742D01*
X157018925Y-64020500D01*
X157179075Y-64020500D01*
X157336142Y-64051742D01*
X157336142Y-64051742D01*
G37*
G36*
X164323085Y-60708802D02*
G01*
X164472910Y-60738604D01*
X164755174Y-60855521D01*
X165009205Y-61025259D01*
X165225241Y-61241295D01*
X165394979Y-61495326D01*
X165511896Y-61777590D01*
X165571500Y-62077240D01*
X165571500Y-62382760D01*
X165511896Y-62682410D01*
X165394979Y-62964674D01*
X165225241Y-63218705D01*
X165009205Y-63434741D01*
X164755174Y-63604479D01*
X164472910Y-63721396D01*
X164323085Y-63751198D01*
X164173261Y-63781000D01*
X163867739Y-63781000D01*
X163717915Y-63751198D01*
X163568090Y-63721396D01*
X163285826Y-63604479D01*
X163031795Y-63434741D01*
X162815759Y-63218705D01*
X162646021Y-62964674D01*
X162529104Y-62682410D01*
X162469500Y-62382760D01*
X162469500Y-62077240D01*
X162529104Y-61777590D01*
X162646021Y-61495326D01*
X162815759Y-61241295D01*
X163031795Y-61025259D01*
X163285826Y-60855521D01*
X163568090Y-60738604D01*
X163717915Y-60708802D01*
X163867739Y-60679000D01*
X164173261Y-60679000D01*
X164323085Y-60708802D01*
X164323085Y-60708802D01*
G37*
G36*
X70914585Y-60708802D02*
G01*
X71064410Y-60738604D01*
X71346674Y-60855521D01*
X71600705Y-61025259D01*
X71816741Y-61241295D01*
X71986479Y-61495326D01*
X72103396Y-61777590D01*
X72163000Y-62077240D01*
X72163000Y-62382760D01*
X72103396Y-62682410D01*
X71986479Y-62964674D01*
X71816741Y-63218705D01*
X71600705Y-63434741D01*
X71346674Y-63604479D01*
X71064410Y-63721396D01*
X70914585Y-63751198D01*
X70764761Y-63781000D01*
X70459239Y-63781000D01*
X70309415Y-63751198D01*
X70159590Y-63721396D01*
X69877326Y-63604479D01*
X69623295Y-63434741D01*
X69407259Y-63218705D01*
X69237521Y-62964674D01*
X69120604Y-62682410D01*
X69061000Y-62382760D01*
X69061000Y-62077240D01*
X69120604Y-61777590D01*
X69237521Y-61495326D01*
X69407259Y-61241295D01*
X69623295Y-61025259D01*
X69877326Y-60855521D01*
X70159590Y-60738604D01*
X70309415Y-60708802D01*
X70459239Y-60679000D01*
X70764761Y-60679000D01*
X70914585Y-60708802D01*
X70914585Y-60708802D01*
G37*
G36*
X161605500Y-58142500D02*
G01*
X159003500Y-58142500D01*
X159003500Y-56040500D01*
X161605500Y-56040500D01*
X161605500Y-58142500D01*
X161605500Y-58142500D01*
G37*
G36*
X167105500Y-58142500D02*
G01*
X164503500Y-58142500D01*
X164503500Y-56040500D01*
X167105500Y-56040500D01*
X167105500Y-58142500D01*
X167105500Y-58142500D01*
G37*
G36*
X162902240Y-54350127D02*
G01*
X162950636Y-54359753D01*
X162988402Y-54375396D01*
X163041811Y-54397519D01*
X163041812Y-54397520D01*
X163123869Y-54452348D01*
X163193652Y-54522131D01*
X163193653Y-54522133D01*
X163248481Y-54604189D01*
X163286247Y-54695365D01*
X163305500Y-54792155D01*
X163305500Y-54890845D01*
X163286247Y-54987635D01*
X163248481Y-55078811D01*
X163248480Y-55078812D01*
X163193652Y-55160869D01*
X163123869Y-55230652D01*
X163082562Y-55258252D01*
X163041811Y-55285481D01*
X162988402Y-55307604D01*
X162950636Y-55323247D01*
X162902240Y-55332873D01*
X162853845Y-55342500D01*
X162755155Y-55342500D01*
X162706760Y-55332873D01*
X162658364Y-55323247D01*
X162620598Y-55307604D01*
X162567189Y-55285481D01*
X162526438Y-55258252D01*
X162485131Y-55230652D01*
X162415348Y-55160869D01*
X162360520Y-55078812D01*
X162360519Y-55078811D01*
X162322753Y-54987635D01*
X162303500Y-54890845D01*
X162303500Y-54792155D01*
X162322753Y-54695365D01*
X162360519Y-54604189D01*
X162415347Y-54522133D01*
X162415348Y-54522131D01*
X162485131Y-54452348D01*
X162567188Y-54397520D01*
X162567189Y-54397519D01*
X162620598Y-54375396D01*
X162658364Y-54359753D01*
X162706760Y-54350127D01*
X162755155Y-54340500D01*
X162853845Y-54340500D01*
X162902240Y-54350127D01*
X162902240Y-54350127D01*
G37*
G36*
X161405500Y-54542500D02*
G01*
X159003500Y-54542500D01*
X159003500Y-50740500D01*
X161405500Y-50740500D01*
X161405500Y-54542500D01*
X161405500Y-54542500D01*
G37*
G36*
X71772400Y-54150400D02*
G01*
X68170400Y-54150400D01*
X68170400Y-50548400D01*
X71772400Y-50548400D01*
X71772400Y-54150400D01*
X71772400Y-54150400D01*
G37*
G36*
X77772400Y-54150400D02*
G01*
X74170400Y-54150400D01*
X74170400Y-50548400D01*
X77772400Y-50548400D01*
X77772400Y-54150400D01*
X77772400Y-54150400D01*
G37*
G36*
X162902240Y-49950126D02*
G01*
X162950636Y-49959753D01*
X162988402Y-49975396D01*
X163041811Y-49997519D01*
X163041812Y-49997520D01*
X163123869Y-50052348D01*
X163193652Y-50122131D01*
X163193653Y-50122133D01*
X163248481Y-50204189D01*
X163286247Y-50295365D01*
X163305500Y-50392155D01*
X163305500Y-50490845D01*
X163286247Y-50587635D01*
X163248481Y-50678811D01*
X163248480Y-50678812D01*
X163193652Y-50760869D01*
X163123869Y-50830652D01*
X163082562Y-50858252D01*
X163041811Y-50885481D01*
X162988402Y-50907604D01*
X162950636Y-50923247D01*
X162902240Y-50932874D01*
X162853845Y-50942500D01*
X162755155Y-50942500D01*
X162706760Y-50932874D01*
X162658364Y-50923247D01*
X162620598Y-50907604D01*
X162567189Y-50885481D01*
X162526438Y-50858252D01*
X162485131Y-50830652D01*
X162415348Y-50760869D01*
X162360520Y-50678812D01*
X162360519Y-50678811D01*
X162322753Y-50587635D01*
X162303500Y-50490845D01*
X162303500Y-50392155D01*
X162322753Y-50295365D01*
X162360519Y-50204189D01*
X162415347Y-50122133D01*
X162415348Y-50122131D01*
X162485131Y-50052348D01*
X162567188Y-49997520D01*
X162567189Y-49997519D01*
X162620598Y-49975396D01*
X162658364Y-49959753D01*
X162706760Y-49950126D01*
X162755155Y-49940500D01*
X162853845Y-49940500D01*
X162902240Y-49950126D01*
X162902240Y-49950126D01*
G37*
G36*
X74772400Y-49450400D02*
G01*
X71170400Y-49450400D01*
X71170400Y-45848400D01*
X74772400Y-45848400D01*
X74772400Y-49450400D01*
X74772400Y-49450400D01*
G37*
G36*
X167105500Y-49242500D02*
G01*
X164503500Y-49242500D01*
X164503500Y-47140500D01*
X167105500Y-47140500D01*
X167105500Y-49242500D01*
X167105500Y-49242500D01*
G37*
G36*
X161605500Y-49242500D02*
G01*
X159003500Y-49242500D01*
X159003500Y-47140500D01*
X161605500Y-47140500D01*
X161605500Y-49242500D01*
X161605500Y-49242500D01*
G37*
M02*
